<mxfile host="app.diagrams.net" modified="2021-12-01T18:28:05.937Z" agent="5.0 (Windows NT 10.0; Win64; x64) AppleWebKit/537.36 (KHTML, like Gecko) Chrome/96.0.4664.45 Safari/537.36" etag="1pfqtBaiHWNqq-op1smd" version="15.8.8" type="github" pages="5">
  <diagram id="9SsBPt5f3ULlJmDV1aBo" name="ClassUML">
    <mxGraphModel dx="7901" dy="1654" grid="1" gridSize="10" guides="1" tooltips="1" connect="1" arrows="1" fold="1" page="1" pageScale="1" pageWidth="850" pageHeight="1100" math="0" shadow="0">
      <root>
        <mxCell id="0" />
        <mxCell id="1" parent="0" />
        <mxCell id="0UR9MXXXDw9d1XQzhALQ-1" value="&lt;&lt;interface&gt;&gt;&#xa;Square" style="swimlane;fontStyle=1;align=center;verticalAlign=top;childLayout=stackLayout;horizontal=1;startSize=40;horizontalStack=0;resizeParent=1;resizeParentMax=0;resizeLast=0;collapsible=1;marginBottom=0;" vertex="1" parent="1">
          <mxGeometry x="-590" y="362" width="200" height="282" as="geometry" />
        </mxCell>
        <mxCell id="0UR9MXXXDw9d1XQzhALQ-2" value="" style="line;strokeWidth=1;fillColor=none;align=left;verticalAlign=middle;spacingTop=-1;spacingLeft=3;spacingRight=3;rotatable=0;labelPosition=right;points=[];portConstraint=eastwest;" vertex="1" parent="0UR9MXXXDw9d1XQzhALQ-1">
          <mxGeometry y="40" width="200" height="8" as="geometry" />
        </mxCell>
        <mxCell id="0UR9MXXXDw9d1XQzhALQ-3" value="+ position(): int" style="text;strokeColor=none;fillColor=none;align=left;verticalAlign=top;spacingLeft=4;spacingRight=4;overflow=hidden;rotatable=0;points=[[0,0.5],[1,0.5]];portConstraint=eastwest;" vertex="1" parent="0UR9MXXXDw9d1XQzhALQ-1">
          <mxGeometry y="48" width="200" height="26" as="geometry" />
        </mxCell>
        <mxCell id="0UR9MXXXDw9d1XQzhALQ-4" value="+ name(): String" style="text;strokeColor=none;fillColor=none;align=left;verticalAlign=top;spacingLeft=4;spacingRight=4;overflow=hidden;rotatable=0;points=[[0,0.5],[1,0.5]];portConstraint=eastwest;" vertex="1" parent="0UR9MXXXDw9d1XQzhALQ-1">
          <mxGeometry y="74" width="200" height="26" as="geometry" />
        </mxCell>
        <mxCell id="0UR9MXXXDw9d1XQzhALQ-5" value="+ isOwnable(): boolean" style="text;strokeColor=none;fillColor=none;align=left;verticalAlign=top;spacingLeft=4;spacingRight=4;overflow=hidden;rotatable=0;points=[[0,0.5],[1,0.5]];portConstraint=eastwest;" vertex="1" parent="0UR9MXXXDw9d1XQzhALQ-1">
          <mxGeometry y="100" width="200" height="26" as="geometry" />
        </mxCell>
        <mxCell id="0UR9MXXXDw9d1XQzhALQ-6" value="+ isOwned(): boolean" style="text;strokeColor=none;fillColor=none;align=left;verticalAlign=top;spacingLeft=4;spacingRight=4;overflow=hidden;rotatable=0;points=[[0,0.5],[1,0.5]];portConstraint=eastwest;" vertex="1" parent="0UR9MXXXDw9d1XQzhALQ-1">
          <mxGeometry y="126" width="200" height="26" as="geometry" />
        </mxCell>
        <mxCell id="0UR9MXXXDw9d1XQzhALQ-7" value="+ cost(): int" style="text;strokeColor=none;fillColor=none;align=left;verticalAlign=top;spacingLeft=4;spacingRight=4;overflow=hidden;rotatable=0;points=[[0,0.5],[1,0.5]];portConstraint=eastwest;" vertex="1" parent="0UR9MXXXDw9d1XQzhALQ-1">
          <mxGeometry y="152" width="200" height="26" as="geometry" />
        </mxCell>
        <mxCell id="0UR9MXXXDw9d1XQzhALQ-8" value="+ purchase(player: Player): void" style="text;strokeColor=none;fillColor=none;align=left;verticalAlign=top;spacingLeft=4;spacingRight=4;overflow=hidden;rotatable=0;points=[[0,0.5],[1,0.5]];portConstraint=eastwest;" vertex="1" parent="0UR9MXXXDw9d1XQzhALQ-1">
          <mxGeometry y="178" width="200" height="26" as="geometry" />
        </mxCell>
        <mxCell id="0UR9MXXXDw9d1XQzhALQ-9" value="+ rent(value: int): int" style="text;strokeColor=none;fillColor=none;align=left;verticalAlign=top;spacingLeft=4;spacingRight=4;overflow=hidden;rotatable=0;points=[[0,0.5],[1,0.5]];portConstraint=eastwest;" vertex="1" parent="0UR9MXXXDw9d1XQzhALQ-1">
          <mxGeometry y="204" width="200" height="26" as="geometry" />
        </mxCell>
        <mxCell id="0UR9MXXXDw9d1XQzhALQ-10" value="+ owner(): Player" style="text;strokeColor=none;fillColor=none;align=left;verticalAlign=top;spacingLeft=4;spacingRight=4;overflow=hidden;rotatable=0;points=[[0,0.5],[1,0.5]];portConstraint=eastwest;" vertex="1" parent="0UR9MXXXDw9d1XQzhALQ-1">
          <mxGeometry y="230" width="200" height="26" as="geometry" />
        </mxCell>
        <mxCell id="0UR9MXXXDw9d1XQzhALQ-11" value="+ toString(): String" style="text;strokeColor=none;fillColor=none;align=left;verticalAlign=top;spacingLeft=4;spacingRight=4;overflow=hidden;rotatable=0;points=[[0,0.5],[1,0.5]];portConstraint=eastwest;" vertex="1" parent="0UR9MXXXDw9d1XQzhALQ-1">
          <mxGeometry y="256" width="200" height="26" as="geometry" />
        </mxCell>
        <mxCell id="0UR9MXXXDw9d1XQzhALQ-12" style="edgeStyle=orthogonalEdgeStyle;rounded=0;orthogonalLoop=1;jettySize=auto;html=1;exitX=1;exitY=0.5;exitDx=0;exitDy=0;" edge="1" parent="0UR9MXXXDw9d1XQzhALQ-1" source="0UR9MXXXDw9d1XQzhALQ-6" target="0UR9MXXXDw9d1XQzhALQ-6">
          <mxGeometry relative="1" as="geometry" />
        </mxCell>
        <mxCell id="0UR9MXXXDw9d1XQzhALQ-13" value="&lt;&lt;interface&gt;&gt;&#xa;Dice" style="swimlane;fontStyle=1;align=center;verticalAlign=top;childLayout=stackLayout;horizontal=1;startSize=40;horizontalStack=0;resizeParent=1;resizeParentMax=0;resizeLast=0;collapsible=1;marginBottom=0;" vertex="1" parent="1">
          <mxGeometry x="-2620" y="727" width="200" height="152" as="geometry" />
        </mxCell>
        <mxCell id="0UR9MXXXDw9d1XQzhALQ-14" value="" style="line;strokeWidth=1;fillColor=none;align=left;verticalAlign=middle;spacingTop=-1;spacingLeft=3;spacingRight=3;rotatable=0;labelPosition=right;points=[];portConstraint=eastwest;" vertex="1" parent="0UR9MXXXDw9d1XQzhALQ-13">
          <mxGeometry y="40" width="200" height="8" as="geometry" />
        </mxCell>
        <mxCell id="0UR9MXXXDw9d1XQzhALQ-15" value="+ getNumDice(): int" style="text;strokeColor=none;fillColor=none;align=left;verticalAlign=top;spacingLeft=4;spacingRight=4;overflow=hidden;rotatable=0;points=[[0,0.5],[1,0.5]];portConstraint=eastwest;" vertex="1" parent="0UR9MXXXDw9d1XQzhALQ-13">
          <mxGeometry y="48" width="200" height="26" as="geometry" />
        </mxCell>
        <mxCell id="0UR9MXXXDw9d1XQzhALQ-16" value="+ getNumSides(): int" style="text;strokeColor=none;fillColor=none;align=left;verticalAlign=top;spacingLeft=4;spacingRight=4;overflow=hidden;rotatable=0;points=[[0,0.5],[1,0.5]];portConstraint=eastwest;" vertex="1" parent="0UR9MXXXDw9d1XQzhALQ-13">
          <mxGeometry y="74" width="200" height="26" as="geometry" />
        </mxCell>
        <mxCell id="0UR9MXXXDw9d1XQzhALQ-17" value="+ rollDice(): Roll" style="text;strokeColor=none;fillColor=none;align=left;verticalAlign=top;spacingLeft=4;spacingRight=4;overflow=hidden;rotatable=0;points=[[0,0.5],[1,0.5]];portConstraint=eastwest;" vertex="1" parent="0UR9MXXXDw9d1XQzhALQ-13">
          <mxGeometry y="100" width="200" height="26" as="geometry" />
        </mxCell>
        <mxCell id="0UR9MXXXDw9d1XQzhALQ-18" value="+ Roll: class" style="text;strokeColor=none;fillColor=none;align=left;verticalAlign=top;spacingLeft=4;spacingRight=4;overflow=hidden;rotatable=0;points=[[0,0.5],[1,0.5]];portConstraint=eastwest;" vertex="1" parent="0UR9MXXXDw9d1XQzhALQ-13">
          <mxGeometry y="126" width="200" height="26" as="geometry" />
        </mxCell>
        <mxCell id="0UR9MXXXDw9d1XQzhALQ-19" value="&lt;&lt;interface&gt;&gt;&#xa;Player" style="swimlane;fontStyle=1;align=center;verticalAlign=top;childLayout=stackLayout;horizontal=1;startSize=40;horizontalStack=0;resizeParent=1;resizeParentMax=0;resizeLast=0;collapsible=1;marginBottom=0;" vertex="1" parent="1">
          <mxGeometry x="-3500" y="350" width="370" height="438" as="geometry" />
        </mxCell>
        <mxCell id="0UR9MXXXDw9d1XQzhALQ-20" value="" style="line;strokeWidth=1;fillColor=none;align=left;verticalAlign=middle;spacingTop=-1;spacingLeft=3;spacingRight=3;rotatable=0;labelPosition=right;points=[];portConstraint=eastwest;" vertex="1" parent="0UR9MXXXDw9d1XQzhALQ-19">
          <mxGeometry y="40" width="370" height="8" as="geometry" />
        </mxCell>
        <mxCell id="0UR9MXXXDw9d1XQzhALQ-21" value="+ move(numTiles: int): void" style="text;strokeColor=none;fillColor=none;align=left;verticalAlign=top;spacingLeft=4;spacingRight=4;overflow=hidden;rotatable=0;points=[[0,0.5],[1,0.5]];portConstraint=eastwest;" vertex="1" parent="0UR9MXXXDw9d1XQzhALQ-19">
          <mxGeometry y="48" width="370" height="26" as="geometry" />
        </mxCell>
        <mxCell id="0UR9MXXXDw9d1XQzhALQ-22" value="+ moveTo(position: int): void" style="text;strokeColor=none;fillColor=none;align=left;verticalAlign=top;spacingLeft=4;spacingRight=4;overflow=hidden;rotatable=0;points=[[0,0.5],[1,0.5]];portConstraint=eastwest;" vertex="1" parent="0UR9MXXXDw9d1XQzhALQ-19">
          <mxGeometry y="74" width="370" height="26" as="geometry" />
        </mxCell>
        <mxCell id="0UR9MXXXDw9d1XQzhALQ-23" value="+ getPosition(): int" style="text;strokeColor=none;fillColor=none;align=left;verticalAlign=top;spacingLeft=4;spacingRight=4;overflow=hidden;rotatable=0;points=[[0,0.5],[1,0.5]];portConstraint=eastwest;" vertex="1" parent="0UR9MXXXDw9d1XQzhALQ-19">
          <mxGeometry y="100" width="370" height="26" as="geometry" />
        </mxCell>
        <mxCell id="0UR9MXXXDw9d1XQzhALQ-24" value="+ setInJail(bool: boolean): void" style="text;strokeColor=none;fillColor=none;align=left;verticalAlign=top;spacingLeft=4;spacingRight=4;overflow=hidden;rotatable=0;points=[[0,0.5],[1,0.5]];portConstraint=eastwest;" vertex="1" parent="0UR9MXXXDw9d1XQzhALQ-19">
          <mxGeometry y="126" width="370" height="26" as="geometry" />
        </mxCell>
        <mxCell id="0UR9MXXXDw9d1XQzhALQ-25" value="+ properties(): Collection&lt;Square&gt;" style="text;strokeColor=none;fillColor=none;align=left;verticalAlign=top;spacingLeft=4;spacingRight=4;overflow=hidden;rotatable=0;points=[[0,0.5],[1,0.5]];portConstraint=eastwest;" vertex="1" parent="0UR9MXXXDw9d1XQzhALQ-19">
          <mxGeometry y="152" width="370" height="26" as="geometry" />
        </mxCell>
        <mxCell id="0UR9MXXXDw9d1XQzhALQ-26" value="+ name(): String" style="text;strokeColor=none;fillColor=none;align=left;verticalAlign=top;spacingLeft=4;spacingRight=4;overflow=hidden;rotatable=0;points=[[0,0.5],[1,0.5]];portConstraint=eastwest;" vertex="1" parent="0UR9MXXXDw9d1XQzhALQ-19">
          <mxGeometry y="178" width="370" height="26" as="geometry" />
        </mxCell>
        <mxCell id="0UR9MXXXDw9d1XQzhALQ-27" value="+ getMoney(): int" style="text;strokeColor=none;fillColor=none;align=left;verticalAlign=top;spacingLeft=4;spacingRight=4;overflow=hidden;rotatable=0;points=[[0,0.5],[1,0.5]];portConstraint=eastwest;" vertex="1" parent="0UR9MXXXDw9d1XQzhALQ-19">
          <mxGeometry y="204" width="370" height="26" as="geometry" />
        </mxCell>
        <mxCell id="0UR9MXXXDw9d1XQzhALQ-28" value="+ exchangeMoney(money: int): void" style="text;strokeColor=none;fillColor=none;align=left;verticalAlign=top;spacingLeft=4;spacingRight=4;overflow=hidden;rotatable=0;points=[[0,0.5],[1,0.5]];portConstraint=eastwest;" vertex="1" parent="0UR9MXXXDw9d1XQzhALQ-19">
          <mxGeometry y="230" width="370" height="26" as="geometry" />
        </mxCell>
        <mxCell id="0UR9MXXXDw9d1XQzhALQ-29" value="+ addProperty(square: Square): void" style="text;strokeColor=none;fillColor=none;align=left;verticalAlign=top;spacingLeft=4;spacingRight=4;overflow=hidden;rotatable=0;points=[[0,0.5],[1,0.5]];portConstraint=eastwest;" vertex="1" parent="0UR9MXXXDw9d1XQzhALQ-19">
          <mxGeometry y="256" width="370" height="26" as="geometry" />
        </mxCell>
        <mxCell id="0UR9MXXXDw9d1XQzhALQ-30" value="+ removeProperty(square: Square): void" style="text;strokeColor=none;fillColor=none;align=left;verticalAlign=top;spacingLeft=4;spacingRight=4;overflow=hidden;rotatable=0;points=[[0,0.5],[1,0.5]];portConstraint=eastwest;" vertex="1" parent="0UR9MXXXDw9d1XQzhALQ-19">
          <mxGeometry y="282" width="370" height="26" as="geometry" />
        </mxCell>
        <mxCell id="0UR9MXXXDw9d1XQzhALQ-31" value="+ inputBool(state: Monopoly.Gamestate): boolean" style="text;strokeColor=none;fillColor=none;align=left;verticalAlign=top;spacingLeft=4;spacingRight=4;overflow=hidden;rotatable=0;points=[[0,0.5],[1,0.5]];portConstraint=eastwest;" vertex="1" parent="0UR9MXXXDw9d1XQzhALQ-19">
          <mxGeometry y="308" width="370" height="26" as="geometry" />
        </mxCell>
        <mxCell id="0UR9MXXXDw9d1XQzhALQ-32" value="+ inputInt(state: Monopoly.Gamestate): int" style="text;strokeColor=none;fillColor=none;align=left;verticalAlign=top;spacingLeft=4;spacingRight=4;overflow=hidden;rotatable=0;points=[[0,0.5],[1,0.5]];portConstraint=eastwest;" vertex="1" parent="0UR9MXXXDw9d1XQzhALQ-19">
          <mxGeometry y="334" width="370" height="26" as="geometry" />
        </mxCell>
        <mxCell id="0UR9MXXXDw9d1XQzhALQ-33" value="+ inputDecision(state: Monopoly.Gamestate,choices: String[]): int" style="text;strokeColor=none;fillColor=none;align=left;verticalAlign=top;spacingLeft=4;spacingRight=4;overflow=hidden;rotatable=0;points=[[0,0.5],[1,0.5]];portConstraint=eastwest;" vertex="1" parent="0UR9MXXXDw9d1XQzhALQ-19">
          <mxGeometry y="360" width="370" height="26" as="geometry" />
        </mxCell>
        <mxCell id="0UR9MXXXDw9d1XQzhALQ-34" value="+ setJailTurns(turns: int): void" style="text;strokeColor=none;fillColor=none;align=left;verticalAlign=top;spacingLeft=4;spacingRight=4;overflow=hidden;rotatable=0;points=[[0,0.5],[1,0.5]];portConstraint=eastwest;" vertex="1" parent="0UR9MXXXDw9d1XQzhALQ-19">
          <mxGeometry y="386" width="370" height="26" as="geometry" />
        </mxCell>
        <mxCell id="0UR9MXXXDw9d1XQzhALQ-35" value="+ getJailTurns(): int" style="text;strokeColor=none;fillColor=none;align=left;verticalAlign=top;spacingLeft=4;spacingRight=4;overflow=hidden;rotatable=0;points=[[0,0.5],[1,0.5]];portConstraint=eastwest;" vertex="1" parent="0UR9MXXXDw9d1XQzhALQ-19">
          <mxGeometry y="412" width="370" height="26" as="geometry" />
        </mxCell>
        <mxCell id="0UR9MXXXDw9d1XQzhALQ-36" value="RollDice" style="swimlane;fontStyle=1;align=center;verticalAlign=top;childLayout=stackLayout;horizontal=1;startSize=26;horizontalStack=0;resizeParent=1;resizeParentMax=0;resizeLast=0;collapsible=1;marginBottom=0;" vertex="1" parent="1">
          <mxGeometry x="-2620" y="927" width="200" height="190" as="geometry" />
        </mxCell>
        <mxCell id="0UR9MXXXDw9d1XQzhALQ-37" value="- NUM_DICE: int" style="text;strokeColor=none;fillColor=none;align=left;verticalAlign=top;spacingLeft=4;spacingRight=4;overflow=hidden;rotatable=0;points=[[0,0.5],[1,0.5]];portConstraint=eastwest;" vertex="1" parent="0UR9MXXXDw9d1XQzhALQ-36">
          <mxGeometry y="26" width="200" height="26" as="geometry" />
        </mxCell>
        <mxCell id="0UR9MXXXDw9d1XQzhALQ-38" value="- NUM_SIDE: int" style="text;strokeColor=none;fillColor=none;align=left;verticalAlign=top;spacingLeft=4;spacingRight=4;overflow=hidden;rotatable=0;points=[[0,0.5],[1,0.5]];portConstraint=eastwest;" vertex="1" parent="0UR9MXXXDw9d1XQzhALQ-36">
          <mxGeometry y="52" width="200" height="26" as="geometry" />
        </mxCell>
        <mxCell id="0UR9MXXXDw9d1XQzhALQ-39" value="" style="line;strokeWidth=1;fillColor=none;align=left;verticalAlign=middle;spacingTop=-1;spacingLeft=3;spacingRight=3;rotatable=0;labelPosition=right;points=[];portConstraint=eastwest;" vertex="1" parent="0UR9MXXXDw9d1XQzhALQ-36">
          <mxGeometry y="78" width="200" height="8" as="geometry" />
        </mxCell>
        <mxCell id="0UR9MXXXDw9d1XQzhALQ-40" value="+ RollDice()" style="text;strokeColor=none;fillColor=none;align=left;verticalAlign=top;spacingLeft=4;spacingRight=4;overflow=hidden;rotatable=0;points=[[0,0.5],[1,0.5]];portConstraint=eastwest;" vertex="1" parent="0UR9MXXXDw9d1XQzhALQ-36">
          <mxGeometry y="86" width="200" height="26" as="geometry" />
        </mxCell>
        <mxCell id="0UR9MXXXDw9d1XQzhALQ-41" value="+ getNumDice(): int" style="text;strokeColor=none;fillColor=none;align=left;verticalAlign=top;spacingLeft=4;spacingRight=4;overflow=hidden;rotatable=0;points=[[0,0.5],[1,0.5]];portConstraint=eastwest;" vertex="1" parent="0UR9MXXXDw9d1XQzhALQ-36">
          <mxGeometry y="112" width="200" height="26" as="geometry" />
        </mxCell>
        <mxCell id="0UR9MXXXDw9d1XQzhALQ-42" value="+ getNumSides(): int" style="text;strokeColor=none;fillColor=none;align=left;verticalAlign=top;spacingLeft=4;spacingRight=4;overflow=hidden;rotatable=0;points=[[0,0.5],[1,0.5]];portConstraint=eastwest;" vertex="1" parent="0UR9MXXXDw9d1XQzhALQ-36">
          <mxGeometry y="138" width="200" height="26" as="geometry" />
        </mxCell>
        <mxCell id="0UR9MXXXDw9d1XQzhALQ-43" value="+ rollDice(): Roll" style="text;strokeColor=none;fillColor=none;align=left;verticalAlign=top;spacingLeft=4;spacingRight=4;overflow=hidden;rotatable=0;points=[[0,0.5],[1,0.5]];portConstraint=eastwest;" vertex="1" parent="0UR9MXXXDw9d1XQzhALQ-36">
          <mxGeometry y="164" width="200" height="26" as="geometry" />
        </mxCell>
        <mxCell id="0UR9MXXXDw9d1XQzhALQ-44" value="HumanPlayer" style="swimlane;fontStyle=1;align=center;verticalAlign=top;childLayout=stackLayout;horizontal=1;startSize=26;horizontalStack=0;resizeParent=1;resizeParentMax=0;resizeLast=0;collapsible=1;marginBottom=0;" vertex="1" parent="1">
          <mxGeometry x="-3300" y="838" width="370" height="632" as="geometry" />
        </mxCell>
        <mxCell id="0UR9MXXXDw9d1XQzhALQ-45" value="- input: Input" style="text;strokeColor=none;fillColor=none;align=left;verticalAlign=top;spacingLeft=4;spacingRight=4;overflow=hidden;rotatable=0;points=[[0,0.5],[1,0.5]];portConstraint=eastwest;" vertex="1" parent="0UR9MXXXDw9d1XQzhALQ-44">
          <mxGeometry y="26" width="370" height="26" as="geometry" />
        </mxCell>
        <mxCell id="0UR9MXXXDw9d1XQzhALQ-46" value="- properties: Collection&lt;Square&gt;" style="text;strokeColor=none;fillColor=none;align=left;verticalAlign=top;spacingLeft=4;spacingRight=4;overflow=hidden;rotatable=0;points=[[0,0.5],[1,0.5]];portConstraint=eastwest;" vertex="1" parent="0UR9MXXXDw9d1XQzhALQ-44">
          <mxGeometry y="52" width="370" height="26" as="geometry" />
        </mxCell>
        <mxCell id="0UR9MXXXDw9d1XQzhALQ-47" value="- playerName: String" style="text;strokeColor=none;fillColor=none;align=left;verticalAlign=top;spacingLeft=4;spacingRight=4;overflow=hidden;rotatable=0;points=[[0,0.5],[1,0.5]];portConstraint=eastwest;" vertex="1" parent="0UR9MXXXDw9d1XQzhALQ-44">
          <mxGeometry y="78" width="370" height="26" as="geometry" />
        </mxCell>
        <mxCell id="0UR9MXXXDw9d1XQzhALQ-48" value="- money: int" style="text;strokeColor=none;fillColor=none;align=left;verticalAlign=top;spacingLeft=4;spacingRight=4;overflow=hidden;rotatable=0;points=[[0,0.5],[1,0.5]];portConstraint=eastwest;" vertex="1" parent="0UR9MXXXDw9d1XQzhALQ-44">
          <mxGeometry y="104" width="370" height="26" as="geometry" />
        </mxCell>
        <mxCell id="0UR9MXXXDw9d1XQzhALQ-49" value="- position: int" style="text;strokeColor=none;fillColor=none;align=left;verticalAlign=top;spacingLeft=4;spacingRight=4;overflow=hidden;rotatable=0;points=[[0,0.5],[1,0.5]];portConstraint=eastwest;" vertex="1" parent="0UR9MXXXDw9d1XQzhALQ-44">
          <mxGeometry y="130" width="370" height="26" as="geometry" />
        </mxCell>
        <mxCell id="0UR9MXXXDw9d1XQzhALQ-50" value="- jailTurns: int" style="text;strokeColor=none;fillColor=none;align=left;verticalAlign=top;spacingLeft=4;spacingRight=4;overflow=hidden;rotatable=0;points=[[0,0.5],[1,0.5]];portConstraint=eastwest;" vertex="1" parent="0UR9MXXXDw9d1XQzhALQ-44">
          <mxGeometry y="156" width="370" height="26" as="geometry" />
        </mxCell>
        <mxCell id="0UR9MXXXDw9d1XQzhALQ-51" value="- inJail: boolean" style="text;strokeColor=none;fillColor=none;align=left;verticalAlign=top;spacingLeft=4;spacingRight=4;overflow=hidden;rotatable=0;points=[[0,0.5],[1,0.5]];portConstraint=eastwest;" vertex="1" parent="0UR9MXXXDw9d1XQzhALQ-44">
          <mxGeometry y="182" width="370" height="26" as="geometry" />
        </mxCell>
        <mxCell id="0UR9MXXXDw9d1XQzhALQ-52" value="" style="line;strokeWidth=1;fillColor=none;align=left;verticalAlign=middle;spacingTop=-1;spacingLeft=3;spacingRight=3;rotatable=0;labelPosition=right;points=[];portConstraint=eastwest;" vertex="1" parent="0UR9MXXXDw9d1XQzhALQ-44">
          <mxGeometry y="208" width="370" height="8" as="geometry" />
        </mxCell>
        <mxCell id="0UR9MXXXDw9d1XQzhALQ-53" value="+ HumanPlayer(playerName: String)" style="text;strokeColor=none;fillColor=none;align=left;verticalAlign=top;spacingLeft=4;spacingRight=4;overflow=hidden;rotatable=0;points=[[0,0.5],[1,0.5]];portConstraint=eastwest;" vertex="1" parent="0UR9MXXXDw9d1XQzhALQ-44">
          <mxGeometry y="216" width="370" height="26" as="geometry" />
        </mxCell>
        <mxCell id="0UR9MXXXDw9d1XQzhALQ-54" value="+ move(numTiles: int): void" style="text;strokeColor=none;fillColor=none;align=left;verticalAlign=top;spacingLeft=4;spacingRight=4;overflow=hidden;rotatable=0;points=[[0,0.5],[1,0.5]];portConstraint=eastwest;" vertex="1" parent="0UR9MXXXDw9d1XQzhALQ-44">
          <mxGeometry y="242" width="370" height="26" as="geometry" />
        </mxCell>
        <mxCell id="0UR9MXXXDw9d1XQzhALQ-55" value="+ moveTo(newPosition: int): void" style="text;strokeColor=none;fillColor=none;align=left;verticalAlign=top;spacingLeft=4;spacingRight=4;overflow=hidden;rotatable=0;points=[[0,0.5],[1,0.5]];portConstraint=eastwest;" vertex="1" parent="0UR9MXXXDw9d1XQzhALQ-44">
          <mxGeometry y="268" width="370" height="26" as="geometry" />
        </mxCell>
        <mxCell id="0UR9MXXXDw9d1XQzhALQ-56" value="+ getPosition(): int" style="text;strokeColor=none;fillColor=none;align=left;verticalAlign=top;spacingLeft=4;spacingRight=4;overflow=hidden;rotatable=0;points=[[0,0.5],[1,0.5]];portConstraint=eastwest;" vertex="1" parent="0UR9MXXXDw9d1XQzhALQ-44">
          <mxGeometry y="294" width="370" height="26" as="geometry" />
        </mxCell>
        <mxCell id="0UR9MXXXDw9d1XQzhALQ-57" value="+ setInJail(bool: boolean): void" style="text;strokeColor=none;fillColor=none;align=left;verticalAlign=top;spacingLeft=4;spacingRight=4;overflow=hidden;rotatable=0;points=[[0,0.5],[1,0.5]];portConstraint=eastwest;" vertex="1" parent="0UR9MXXXDw9d1XQzhALQ-44">
          <mxGeometry y="320" width="370" height="26" as="geometry" />
        </mxCell>
        <mxCell id="0UR9MXXXDw9d1XQzhALQ-58" value="+ properties(): Collection&lt;Square&gt;" style="text;strokeColor=none;fillColor=none;align=left;verticalAlign=top;spacingLeft=4;spacingRight=4;overflow=hidden;rotatable=0;points=[[0,0.5],[1,0.5]];portConstraint=eastwest;" vertex="1" parent="0UR9MXXXDw9d1XQzhALQ-44">
          <mxGeometry y="346" width="370" height="26" as="geometry" />
        </mxCell>
        <mxCell id="0UR9MXXXDw9d1XQzhALQ-59" value="+ name(): String" style="text;strokeColor=none;fillColor=none;align=left;verticalAlign=top;spacingLeft=4;spacingRight=4;overflow=hidden;rotatable=0;points=[[0,0.5],[1,0.5]];portConstraint=eastwest;" vertex="1" parent="0UR9MXXXDw9d1XQzhALQ-44">
          <mxGeometry y="372" width="370" height="26" as="geometry" />
        </mxCell>
        <mxCell id="0UR9MXXXDw9d1XQzhALQ-60" value="+ getMoney(): int " style="text;strokeColor=none;fillColor=none;align=left;verticalAlign=top;spacingLeft=4;spacingRight=4;overflow=hidden;rotatable=0;points=[[0,0.5],[1,0.5]];portConstraint=eastwest;" vertex="1" parent="0UR9MXXXDw9d1XQzhALQ-44">
          <mxGeometry y="398" width="370" height="26" as="geometry" />
        </mxCell>
        <mxCell id="0UR9MXXXDw9d1XQzhALQ-61" value="+ exchangeMoney(money: int): void" style="text;strokeColor=none;fillColor=none;align=left;verticalAlign=top;spacingLeft=4;spacingRight=4;overflow=hidden;rotatable=0;points=[[0,0.5],[1,0.5]];portConstraint=eastwest;" vertex="1" parent="0UR9MXXXDw9d1XQzhALQ-44">
          <mxGeometry y="424" width="370" height="26" as="geometry" />
        </mxCell>
        <mxCell id="0UR9MXXXDw9d1XQzhALQ-62" value="+ addProperty(square: Square): void" style="text;strokeColor=none;fillColor=none;align=left;verticalAlign=top;spacingLeft=4;spacingRight=4;overflow=hidden;rotatable=0;points=[[0,0.5],[1,0.5]];portConstraint=eastwest;" vertex="1" parent="0UR9MXXXDw9d1XQzhALQ-44">
          <mxGeometry y="450" width="370" height="26" as="geometry" />
        </mxCell>
        <mxCell id="0UR9MXXXDw9d1XQzhALQ-63" value="+ removeProperty(square: Square): void" style="text;strokeColor=none;fillColor=none;align=left;verticalAlign=top;spacingLeft=4;spacingRight=4;overflow=hidden;rotatable=0;points=[[0,0.5],[1,0.5]];portConstraint=eastwest;" vertex="1" parent="0UR9MXXXDw9d1XQzhALQ-44">
          <mxGeometry y="476" width="370" height="26" as="geometry" />
        </mxCell>
        <mxCell id="0UR9MXXXDw9d1XQzhALQ-64" value="+ inputBool(state: Monopoly.Gamestate): boolean" style="text;strokeColor=none;fillColor=none;align=left;verticalAlign=top;spacingLeft=4;spacingRight=4;overflow=hidden;rotatable=0;points=[[0,0.5],[1,0.5]];portConstraint=eastwest;" vertex="1" parent="0UR9MXXXDw9d1XQzhALQ-44">
          <mxGeometry y="502" width="370" height="26" as="geometry" />
        </mxCell>
        <mxCell id="0UR9MXXXDw9d1XQzhALQ-65" value="+ inputInt(state: Monopoly.Gamestate): int" style="text;strokeColor=none;fillColor=none;align=left;verticalAlign=top;spacingLeft=4;spacingRight=4;overflow=hidden;rotatable=0;points=[[0,0.5],[1,0.5]];portConstraint=eastwest;" vertex="1" parent="0UR9MXXXDw9d1XQzhALQ-44">
          <mxGeometry y="528" width="370" height="26" as="geometry" />
        </mxCell>
        <mxCell id="0UR9MXXXDw9d1XQzhALQ-66" value="+ inputDecision(state: Monopoly.Gamestate,choices: String[]): int" style="text;strokeColor=none;fillColor=none;align=left;verticalAlign=top;spacingLeft=4;spacingRight=4;overflow=hidden;rotatable=0;points=[[0,0.5],[1,0.5]];portConstraint=eastwest;" vertex="1" parent="0UR9MXXXDw9d1XQzhALQ-44">
          <mxGeometry y="554" width="370" height="26" as="geometry" />
        </mxCell>
        <mxCell id="0UR9MXXXDw9d1XQzhALQ-67" value="+ setJailTurns(turns: int): void" style="text;strokeColor=none;fillColor=none;align=left;verticalAlign=top;spacingLeft=4;spacingRight=4;overflow=hidden;rotatable=0;points=[[0,0.5],[1,0.5]];portConstraint=eastwest;" vertex="1" parent="0UR9MXXXDw9d1XQzhALQ-44">
          <mxGeometry y="580" width="370" height="26" as="geometry" />
        </mxCell>
        <mxCell id="0UR9MXXXDw9d1XQzhALQ-68" value="+ getJailTurns(): int" style="text;strokeColor=none;fillColor=none;align=left;verticalAlign=top;spacingLeft=4;spacingRight=4;overflow=hidden;rotatable=0;points=[[0,0.5],[1,0.5]];portConstraint=eastwest;" vertex="1" parent="0UR9MXXXDw9d1XQzhALQ-44">
          <mxGeometry y="606" width="370" height="26" as="geometry" />
        </mxCell>
        <mxCell id="0UR9MXXXDw9d1XQzhALQ-69" value="Inactive" style="swimlane;fontStyle=1;align=center;verticalAlign=top;childLayout=stackLayout;horizontal=1;startSize=26;horizontalStack=0;resizeParent=1;resizeParentMax=0;resizeLast=0;collapsible=1;marginBottom=0;" vertex="1" parent="1">
          <mxGeometry x="-1280" y="778" width="210" height="320" as="geometry" />
        </mxCell>
        <mxCell id="0UR9MXXXDw9d1XQzhALQ-70" value="- position: int" style="text;strokeColor=none;fillColor=none;align=left;verticalAlign=top;spacingLeft=4;spacingRight=4;overflow=hidden;rotatable=0;points=[[0,0.5],[1,0.5]];portConstraint=eastwest;" vertex="1" parent="0UR9MXXXDw9d1XQzhALQ-69">
          <mxGeometry y="26" width="210" height="26" as="geometry" />
        </mxCell>
        <mxCell id="0UR9MXXXDw9d1XQzhALQ-71" value="- name: String" style="text;strokeColor=none;fillColor=none;align=left;verticalAlign=top;spacingLeft=4;spacingRight=4;overflow=hidden;rotatable=0;points=[[0,0.5],[1,0.5]];portConstraint=eastwest;" vertex="1" parent="0UR9MXXXDw9d1XQzhALQ-69">
          <mxGeometry y="52" width="210" height="26" as="geometry" />
        </mxCell>
        <mxCell id="0UR9MXXXDw9d1XQzhALQ-72" value="" style="line;strokeWidth=1;fillColor=none;align=left;verticalAlign=middle;spacingTop=-1;spacingLeft=3;spacingRight=3;rotatable=0;labelPosition=right;points=[];portConstraint=eastwest;" vertex="1" parent="0UR9MXXXDw9d1XQzhALQ-69">
          <mxGeometry y="78" width="210" height="8" as="geometry" />
        </mxCell>
        <mxCell id="0UR9MXXXDw9d1XQzhALQ-73" value="+ Inactive(position: int, name: String)" style="text;strokeColor=none;fillColor=none;align=left;verticalAlign=top;spacingLeft=4;spacingRight=4;overflow=hidden;rotatable=0;points=[[0,0.5],[1,0.5]];portConstraint=eastwest;" vertex="1" parent="0UR9MXXXDw9d1XQzhALQ-69">
          <mxGeometry y="86" width="210" height="26" as="geometry" />
        </mxCell>
        <mxCell id="0UR9MXXXDw9d1XQzhALQ-74" value="+ position(): int" style="text;strokeColor=none;fillColor=none;align=left;verticalAlign=top;spacingLeft=4;spacingRight=4;overflow=hidden;rotatable=0;points=[[0,0.5],[1,0.5]];portConstraint=eastwest;" vertex="1" parent="0UR9MXXXDw9d1XQzhALQ-69">
          <mxGeometry y="112" width="210" height="26" as="geometry" />
        </mxCell>
        <mxCell id="0UR9MXXXDw9d1XQzhALQ-75" value="+ name(): String" style="text;strokeColor=none;fillColor=none;align=left;verticalAlign=top;spacingLeft=4;spacingRight=4;overflow=hidden;rotatable=0;points=[[0,0.5],[1,0.5]];portConstraint=eastwest;" vertex="1" parent="0UR9MXXXDw9d1XQzhALQ-69">
          <mxGeometry y="138" width="210" height="26" as="geometry" />
        </mxCell>
        <mxCell id="0UR9MXXXDw9d1XQzhALQ-76" value="+ isOwnable(): boolean" style="text;strokeColor=none;fillColor=none;align=left;verticalAlign=top;spacingLeft=4;spacingRight=4;overflow=hidden;rotatable=0;points=[[0,0.5],[1,0.5]];portConstraint=eastwest;" vertex="1" parent="0UR9MXXXDw9d1XQzhALQ-69">
          <mxGeometry y="164" width="210" height="26" as="geometry" />
        </mxCell>
        <mxCell id="0UR9MXXXDw9d1XQzhALQ-77" value="+ isOwned(): boolean " style="text;strokeColor=none;fillColor=none;align=left;verticalAlign=top;spacingLeft=4;spacingRight=4;overflow=hidden;rotatable=0;points=[[0,0.5],[1,0.5]];portConstraint=eastwest;" vertex="1" parent="0UR9MXXXDw9d1XQzhALQ-69">
          <mxGeometry y="190" width="210" height="26" as="geometry" />
        </mxCell>
        <mxCell id="0UR9MXXXDw9d1XQzhALQ-78" value="+ cost(): int" style="text;strokeColor=none;fillColor=none;align=left;verticalAlign=top;spacingLeft=4;spacingRight=4;overflow=hidden;rotatable=0;points=[[0,0.5],[1,0.5]];portConstraint=eastwest;" vertex="1" parent="0UR9MXXXDw9d1XQzhALQ-69">
          <mxGeometry y="216" width="210" height="26" as="geometry" />
        </mxCell>
        <mxCell id="0UR9MXXXDw9d1XQzhALQ-79" value="+ purchase(player: Player): void" style="text;strokeColor=none;fillColor=none;align=left;verticalAlign=top;spacingLeft=4;spacingRight=4;overflow=hidden;rotatable=0;points=[[0,0.5],[1,0.5]];portConstraint=eastwest;" vertex="1" parent="0UR9MXXXDw9d1XQzhALQ-69">
          <mxGeometry y="242" width="210" height="26" as="geometry" />
        </mxCell>
        <mxCell id="0UR9MXXXDw9d1XQzhALQ-80" value="+ rent(value: int): int" style="text;strokeColor=none;fillColor=none;align=left;verticalAlign=top;spacingLeft=4;spacingRight=4;overflow=hidden;rotatable=0;points=[[0,0.5],[1,0.5]];portConstraint=eastwest;" vertex="1" parent="0UR9MXXXDw9d1XQzhALQ-69">
          <mxGeometry y="268" width="210" height="26" as="geometry" />
        </mxCell>
        <mxCell id="0UR9MXXXDw9d1XQzhALQ-81" value="+ owner(): Player" style="text;strokeColor=none;fillColor=none;align=left;verticalAlign=top;spacingLeft=4;spacingRight=4;overflow=hidden;rotatable=0;points=[[0,0.5],[1,0.5]];portConstraint=eastwest;" vertex="1" parent="0UR9MXXXDw9d1XQzhALQ-69">
          <mxGeometry y="294" width="210" height="26" as="geometry" />
        </mxCell>
        <mxCell id="0UR9MXXXDw9d1XQzhALQ-82" value="Utility" style="swimlane;fontStyle=1;align=center;verticalAlign=top;childLayout=stackLayout;horizontal=1;startSize=26;horizontalStack=0;resizeParent=1;resizeParentMax=0;resizeLast=0;collapsible=1;marginBottom=0;" vertex="1" parent="1">
          <mxGeometry x="-750" y="778" width="210" height="502" as="geometry" />
        </mxCell>
        <mxCell id="0UR9MXXXDw9d1XQzhALQ-83" value="- COST: int = 150" style="text;strokeColor=none;fillColor=none;align=left;verticalAlign=top;spacingLeft=4;spacingRight=4;overflow=hidden;rotatable=0;points=[[0,0.5],[1,0.5]];portConstraint=eastwest;" vertex="1" parent="0UR9MXXXDw9d1XQzhALQ-82">
          <mxGeometry y="26" width="210" height="26" as="geometry" />
        </mxCell>
        <mxCell id="0UR9MXXXDw9d1XQzhALQ-84" value="- position: int" style="text;strokeColor=none;fillColor=none;align=left;verticalAlign=top;spacingLeft=4;spacingRight=4;overflow=hidden;rotatable=0;points=[[0,0.5],[1,0.5]];portConstraint=eastwest;" vertex="1" parent="0UR9MXXXDw9d1XQzhALQ-82">
          <mxGeometry y="52" width="210" height="26" as="geometry" />
        </mxCell>
        <mxCell id="0UR9MXXXDw9d1XQzhALQ-85" value="- name: String" style="text;strokeColor=none;fillColor=none;align=left;verticalAlign=top;spacingLeft=4;spacingRight=4;overflow=hidden;rotatable=0;points=[[0,0.5],[1,0.5]];portConstraint=eastwest;" vertex="1" parent="0UR9MXXXDw9d1XQzhALQ-82">
          <mxGeometry y="78" width="210" height="26" as="geometry" />
        </mxCell>
        <mxCell id="0UR9MXXXDw9d1XQzhALQ-86" value="- other: Utility" style="text;strokeColor=none;fillColor=none;align=left;verticalAlign=top;spacingLeft=4;spacingRight=4;overflow=hidden;rotatable=0;points=[[0,0.5],[1,0.5]];portConstraint=eastwest;" vertex="1" parent="0UR9MXXXDw9d1XQzhALQ-82">
          <mxGeometry y="104" width="210" height="26" as="geometry" />
        </mxCell>
        <mxCell id="0UR9MXXXDw9d1XQzhALQ-87" value="- numOwned: int" style="text;strokeColor=none;fillColor=none;align=left;verticalAlign=top;spacingLeft=4;spacingRight=4;overflow=hidden;rotatable=0;points=[[0,0.5],[1,0.5]];portConstraint=eastwest;" vertex="1" parent="0UR9MXXXDw9d1XQzhALQ-82">
          <mxGeometry y="130" width="210" height="26" as="geometry" />
        </mxCell>
        <mxCell id="0UR9MXXXDw9d1XQzhALQ-88" value="- owner: Player" style="text;strokeColor=none;fillColor=none;align=left;verticalAlign=top;spacingLeft=4;spacingRight=4;overflow=hidden;rotatable=0;points=[[0,0.5],[1,0.5]];portConstraint=eastwest;" vertex="1" parent="0UR9MXXXDw9d1XQzhALQ-82">
          <mxGeometry y="156" width="210" height="26" as="geometry" />
        </mxCell>
        <mxCell id="0UR9MXXXDw9d1XQzhALQ-89" value="- owned: boolean" style="text;strokeColor=none;fillColor=none;align=left;verticalAlign=top;spacingLeft=4;spacingRight=4;overflow=hidden;rotatable=0;points=[[0,0.5],[1,0.5]];portConstraint=eastwest;" vertex="1" parent="0UR9MXXXDw9d1XQzhALQ-82">
          <mxGeometry y="182" width="210" height="26" as="geometry" />
        </mxCell>
        <mxCell id="0UR9MXXXDw9d1XQzhALQ-90" value="- dice: RollDice" style="text;strokeColor=none;fillColor=none;align=left;verticalAlign=top;spacingLeft=4;spacingRight=4;overflow=hidden;rotatable=0;points=[[0,0.5],[1,0.5]];portConstraint=eastwest;" vertex="1" parent="0UR9MXXXDw9d1XQzhALQ-82">
          <mxGeometry y="208" width="210" height="26" as="geometry" />
        </mxCell>
        <mxCell id="0UR9MXXXDw9d1XQzhALQ-91" value="" style="line;strokeWidth=1;fillColor=none;align=left;verticalAlign=middle;spacingTop=-1;spacingLeft=3;spacingRight=3;rotatable=0;labelPosition=right;points=[];portConstraint=eastwest;" vertex="1" parent="0UR9MXXXDw9d1XQzhALQ-82">
          <mxGeometry y="234" width="210" height="8" as="geometry" />
        </mxCell>
        <mxCell id="0UR9MXXXDw9d1XQzhALQ-92" value="+ Utility(position: int, name: String)" style="text;strokeColor=none;fillColor=none;align=left;verticalAlign=top;spacingLeft=4;spacingRight=4;overflow=hidden;rotatable=0;points=[[0,0.5],[1,0.5]];portConstraint=eastwest;" vertex="1" parent="0UR9MXXXDw9d1XQzhALQ-82">
          <mxGeometry y="242" width="210" height="26" as="geometry" />
        </mxCell>
        <mxCell id="0UR9MXXXDw9d1XQzhALQ-93" value="+ position(): int" style="text;strokeColor=none;fillColor=none;align=left;verticalAlign=top;spacingLeft=4;spacingRight=4;overflow=hidden;rotatable=0;points=[[0,0.5],[1,0.5]];portConstraint=eastwest;" vertex="1" parent="0UR9MXXXDw9d1XQzhALQ-82">
          <mxGeometry y="268" width="210" height="26" as="geometry" />
        </mxCell>
        <mxCell id="0UR9MXXXDw9d1XQzhALQ-94" value="+ name(): String" style="text;strokeColor=none;fillColor=none;align=left;verticalAlign=top;spacingLeft=4;spacingRight=4;overflow=hidden;rotatable=0;points=[[0,0.5],[1,0.5]];portConstraint=eastwest;" vertex="1" parent="0UR9MXXXDw9d1XQzhALQ-82">
          <mxGeometry y="294" width="210" height="26" as="geometry" />
        </mxCell>
        <mxCell id="0UR9MXXXDw9d1XQzhALQ-95" value="+ isOwnable(): boolean" style="text;strokeColor=none;fillColor=none;align=left;verticalAlign=top;spacingLeft=4;spacingRight=4;overflow=hidden;rotatable=0;points=[[0,0.5],[1,0.5]];portConstraint=eastwest;" vertex="1" parent="0UR9MXXXDw9d1XQzhALQ-82">
          <mxGeometry y="320" width="210" height="26" as="geometry" />
        </mxCell>
        <mxCell id="0UR9MXXXDw9d1XQzhALQ-96" value="+ isOwned(): boolean " style="text;strokeColor=none;fillColor=none;align=left;verticalAlign=top;spacingLeft=4;spacingRight=4;overflow=hidden;rotatable=0;points=[[0,0.5],[1,0.5]];portConstraint=eastwest;" vertex="1" parent="0UR9MXXXDw9d1XQzhALQ-82">
          <mxGeometry y="346" width="210" height="26" as="geometry" />
        </mxCell>
        <mxCell id="0UR9MXXXDw9d1XQzhALQ-97" value="+ cost(): int" style="text;strokeColor=none;fillColor=none;align=left;verticalAlign=top;spacingLeft=4;spacingRight=4;overflow=hidden;rotatable=0;points=[[0,0.5],[1,0.5]];portConstraint=eastwest;" vertex="1" parent="0UR9MXXXDw9d1XQzhALQ-82">
          <mxGeometry y="372" width="210" height="26" as="geometry" />
        </mxCell>
        <mxCell id="0UR9MXXXDw9d1XQzhALQ-98" value="+ purchase(player: Player): void" style="text;strokeColor=none;fillColor=none;align=left;verticalAlign=top;spacingLeft=4;spacingRight=4;overflow=hidden;rotatable=0;points=[[0,0.5],[1,0.5]];portConstraint=eastwest;" vertex="1" parent="0UR9MXXXDw9d1XQzhALQ-82">
          <mxGeometry y="398" width="210" height="26" as="geometry" />
        </mxCell>
        <mxCell id="0UR9MXXXDw9d1XQzhALQ-99" value="+ rent(roll: int): int" style="text;strokeColor=none;fillColor=none;align=left;verticalAlign=top;spacingLeft=4;spacingRight=4;overflow=hidden;rotatable=0;points=[[0,0.5],[1,0.5]];portConstraint=eastwest;" vertex="1" parent="0UR9MXXXDw9d1XQzhALQ-82">
          <mxGeometry y="424" width="210" height="26" as="geometry" />
        </mxCell>
        <mxCell id="0UR9MXXXDw9d1XQzhALQ-100" value="+ owner(): Player" style="text;strokeColor=none;fillColor=none;align=left;verticalAlign=top;spacingLeft=4;spacingRight=4;overflow=hidden;rotatable=0;points=[[0,0.5],[1,0.5]];portConstraint=eastwest;" vertex="1" parent="0UR9MXXXDw9d1XQzhALQ-82">
          <mxGeometry y="450" width="210" height="26" as="geometry" />
        </mxCell>
        <mxCell id="0UR9MXXXDw9d1XQzhALQ-101" value="+ setGroup(other: Utility): void" style="text;strokeColor=none;fillColor=none;align=left;verticalAlign=top;spacingLeft=4;spacingRight=4;overflow=hidden;rotatable=0;points=[[0,0.5],[1,0.5]];portConstraint=eastwest;" vertex="1" parent="0UR9MXXXDw9d1XQzhALQ-82">
          <mxGeometry y="476" width="210" height="26" as="geometry" />
        </mxCell>
        <mxCell id="0UR9MXXXDw9d1XQzhALQ-102" value="Taxes" style="swimlane;fontStyle=1;align=center;verticalAlign=top;childLayout=stackLayout;horizontal=1;startSize=26;horizontalStack=0;resizeParent=1;resizeParentMax=0;resizeLast=0;collapsible=1;marginBottom=0;" vertex="1" parent="1">
          <mxGeometry x="-150" y="778" width="230" height="424" as="geometry" />
        </mxCell>
        <mxCell id="0UR9MXXXDw9d1XQzhALQ-103" value="- position: int" style="text;strokeColor=none;fillColor=none;align=left;verticalAlign=top;spacingLeft=4;spacingRight=4;overflow=hidden;rotatable=0;points=[[0,0.5],[1,0.5]];portConstraint=eastwest;" vertex="1" parent="0UR9MXXXDw9d1XQzhALQ-102">
          <mxGeometry y="26" width="230" height="26" as="geometry" />
        </mxCell>
        <mxCell id="0UR9MXXXDw9d1XQzhALQ-104" value="- name: String" style="text;strokeColor=none;fillColor=none;align=left;verticalAlign=top;spacingLeft=4;spacingRight=4;overflow=hidden;rotatable=0;points=[[0,0.5],[1,0.5]];portConstraint=eastwest;" vertex="1" parent="0UR9MXXXDw9d1XQzhALQ-102">
          <mxGeometry y="52" width="230" height="26" as="geometry" />
        </mxCell>
        <mxCell id="0UR9MXXXDw9d1XQzhALQ-105" value="- fixTax: int" style="text;strokeColor=none;fillColor=none;align=left;verticalAlign=top;spacingLeft=4;spacingRight=4;overflow=hidden;rotatable=0;points=[[0,0.5],[1,0.5]];portConstraint=eastwest;" vertex="1" parent="0UR9MXXXDw9d1XQzhALQ-102">
          <mxGeometry y="78" width="230" height="26" as="geometry" />
        </mxCell>
        <mxCell id="0UR9MXXXDw9d1XQzhALQ-106" value="- varTax: double" style="text;strokeColor=none;fillColor=none;align=left;verticalAlign=top;spacingLeft=4;spacingRight=4;overflow=hidden;rotatable=0;points=[[0,0.5],[1,0.5]];portConstraint=eastwest;" vertex="1" parent="0UR9MXXXDw9d1XQzhALQ-102">
          <mxGeometry y="104" width="230" height="26" as="geometry" />
        </mxCell>
        <mxCell id="0UR9MXXXDw9d1XQzhALQ-107" value="" style="line;strokeWidth=1;fillColor=none;align=left;verticalAlign=middle;spacingTop=-1;spacingLeft=3;spacingRight=3;rotatable=0;labelPosition=right;points=[];portConstraint=eastwest;" vertex="1" parent="0UR9MXXXDw9d1XQzhALQ-102">
          <mxGeometry y="130" width="230" height="8" as="geometry" />
        </mxCell>
        <mxCell id="0UR9MXXXDw9d1XQzhALQ-108" value="+ Tax(position: int, incomeTax:boolean)" style="text;strokeColor=none;fillColor=none;align=left;verticalAlign=top;spacingLeft=4;spacingRight=4;overflow=hidden;rotatable=0;points=[[0,0.5],[1,0.5]];portConstraint=eastwest;" vertex="1" parent="0UR9MXXXDw9d1XQzhALQ-102">
          <mxGeometry y="138" width="230" height="26" as="geometry" />
        </mxCell>
        <mxCell id="0UR9MXXXDw9d1XQzhALQ-109" value="+ getTax(): int" style="text;strokeColor=none;fillColor=none;align=left;verticalAlign=top;spacingLeft=4;spacingRight=4;overflow=hidden;rotatable=0;points=[[0,0.5],[1,0.5]];portConstraint=eastwest;" vertex="1" parent="0UR9MXXXDw9d1XQzhALQ-102">
          <mxGeometry y="164" width="230" height="26" as="geometry" />
        </mxCell>
        <mxCell id="0UR9MXXXDw9d1XQzhALQ-110" value="+ getTax(value: int): int" style="text;strokeColor=none;fillColor=none;align=left;verticalAlign=top;spacingLeft=4;spacingRight=4;overflow=hidden;rotatable=0;points=[[0,0.5],[1,0.5]];portConstraint=eastwest;" vertex="1" parent="0UR9MXXXDw9d1XQzhALQ-102">
          <mxGeometry y="190" width="230" height="26" as="geometry" />
        </mxCell>
        <mxCell id="0UR9MXXXDw9d1XQzhALQ-111" value="+ position(): int" style="text;strokeColor=none;fillColor=none;align=left;verticalAlign=top;spacingLeft=4;spacingRight=4;overflow=hidden;rotatable=0;points=[[0,0.5],[1,0.5]];portConstraint=eastwest;" vertex="1" parent="0UR9MXXXDw9d1XQzhALQ-102">
          <mxGeometry y="216" width="230" height="26" as="geometry" />
        </mxCell>
        <mxCell id="0UR9MXXXDw9d1XQzhALQ-112" value="+ name(): String" style="text;strokeColor=none;fillColor=none;align=left;verticalAlign=top;spacingLeft=4;spacingRight=4;overflow=hidden;rotatable=0;points=[[0,0.5],[1,0.5]];portConstraint=eastwest;" vertex="1" parent="0UR9MXXXDw9d1XQzhALQ-102">
          <mxGeometry y="242" width="230" height="26" as="geometry" />
        </mxCell>
        <mxCell id="0UR9MXXXDw9d1XQzhALQ-113" value="+ isOwnable(): boolean" style="text;strokeColor=none;fillColor=none;align=left;verticalAlign=top;spacingLeft=4;spacingRight=4;overflow=hidden;rotatable=0;points=[[0,0.5],[1,0.5]];portConstraint=eastwest;" vertex="1" parent="0UR9MXXXDw9d1XQzhALQ-102">
          <mxGeometry y="268" width="230" height="26" as="geometry" />
        </mxCell>
        <mxCell id="0UR9MXXXDw9d1XQzhALQ-114" value="+ isOwned(): boolean " style="text;strokeColor=none;fillColor=none;align=left;verticalAlign=top;spacingLeft=4;spacingRight=4;overflow=hidden;rotatable=0;points=[[0,0.5],[1,0.5]];portConstraint=eastwest;" vertex="1" parent="0UR9MXXXDw9d1XQzhALQ-102">
          <mxGeometry y="294" width="230" height="26" as="geometry" />
        </mxCell>
        <mxCell id="0UR9MXXXDw9d1XQzhALQ-115" value="+ cost(): int" style="text;strokeColor=none;fillColor=none;align=left;verticalAlign=top;spacingLeft=4;spacingRight=4;overflow=hidden;rotatable=0;points=[[0,0.5],[1,0.5]];portConstraint=eastwest;" vertex="1" parent="0UR9MXXXDw9d1XQzhALQ-102">
          <mxGeometry y="320" width="230" height="26" as="geometry" />
        </mxCell>
        <mxCell id="0UR9MXXXDw9d1XQzhALQ-116" value="+ purchase(player: Player): void" style="text;strokeColor=none;fillColor=none;align=left;verticalAlign=top;spacingLeft=4;spacingRight=4;overflow=hidden;rotatable=0;points=[[0,0.5],[1,0.5]];portConstraint=eastwest;" vertex="1" parent="0UR9MXXXDw9d1XQzhALQ-102">
          <mxGeometry y="346" width="230" height="26" as="geometry" />
        </mxCell>
        <mxCell id="0UR9MXXXDw9d1XQzhALQ-117" value="+ rent(value: int): int" style="text;strokeColor=none;fillColor=none;align=left;verticalAlign=top;spacingLeft=4;spacingRight=4;overflow=hidden;rotatable=0;points=[[0,0.5],[1,0.5]];portConstraint=eastwest;" vertex="1" parent="0UR9MXXXDw9d1XQzhALQ-102">
          <mxGeometry y="372" width="230" height="26" as="geometry" />
        </mxCell>
        <mxCell id="0UR9MXXXDw9d1XQzhALQ-118" value="+ owner(): Player" style="text;strokeColor=none;fillColor=none;align=left;verticalAlign=top;spacingLeft=4;spacingRight=4;overflow=hidden;rotatable=0;points=[[0,0.5],[1,0.5]];portConstraint=eastwest;" vertex="1" parent="0UR9MXXXDw9d1XQzhALQ-102">
          <mxGeometry y="398" width="230" height="26" as="geometry" />
        </mxCell>
        <mxCell id="0UR9MXXXDw9d1XQzhALQ-119" value="Railroad" style="swimlane;fontStyle=1;align=center;verticalAlign=top;childLayout=stackLayout;horizontal=1;startSize=26;horizontalStack=0;resizeParent=1;resizeParentMax=0;resizeLast=0;collapsible=1;marginBottom=0;" vertex="1" parent="1">
          <mxGeometry x="-510" y="778" width="320" height="502" as="geometry" />
        </mxCell>
        <mxCell id="0UR9MXXXDw9d1XQzhALQ-120" value="- COST: int = 200" style="text;strokeColor=none;fillColor=none;align=left;verticalAlign=top;spacingLeft=4;spacingRight=4;overflow=hidden;rotatable=0;points=[[0,0.5],[1,0.5]];portConstraint=eastwest;" vertex="1" parent="0UR9MXXXDw9d1XQzhALQ-119">
          <mxGeometry y="26" width="320" height="26" as="geometry" />
        </mxCell>
        <mxCell id="0UR9MXXXDw9d1XQzhALQ-121" value="- position: int" style="text;strokeColor=none;fillColor=none;align=left;verticalAlign=top;spacingLeft=4;spacingRight=4;overflow=hidden;rotatable=0;points=[[0,0.5],[1,0.5]];portConstraint=eastwest;" vertex="1" parent="0UR9MXXXDw9d1XQzhALQ-119">
          <mxGeometry y="52" width="320" height="26" as="geometry" />
        </mxCell>
        <mxCell id="0UR9MXXXDw9d1XQzhALQ-122" value="- name: String" style="text;strokeColor=none;fillColor=none;align=left;verticalAlign=top;spacingLeft=4;spacingRight=4;overflow=hidden;rotatable=0;points=[[0,0.5],[1,0.5]];portConstraint=eastwest;" vertex="1" parent="0UR9MXXXDw9d1XQzhALQ-119">
          <mxGeometry y="78" width="320" height="26" as="geometry" />
        </mxCell>
        <mxCell id="0UR9MXXXDw9d1XQzhALQ-123" value="- others: Railroad[]" style="text;strokeColor=none;fillColor=none;align=left;verticalAlign=top;spacingLeft=4;spacingRight=4;overflow=hidden;rotatable=0;points=[[0,0.5],[1,0.5]];portConstraint=eastwest;" vertex="1" parent="0UR9MXXXDw9d1XQzhALQ-119">
          <mxGeometry y="104" width="320" height="26" as="geometry" />
        </mxCell>
        <mxCell id="0UR9MXXXDw9d1XQzhALQ-124" value="- numOwned: int" style="text;strokeColor=none;fillColor=none;align=left;verticalAlign=top;spacingLeft=4;spacingRight=4;overflow=hidden;rotatable=0;points=[[0,0.5],[1,0.5]];portConstraint=eastwest;" vertex="1" parent="0UR9MXXXDw9d1XQzhALQ-119">
          <mxGeometry y="130" width="320" height="26" as="geometry" />
        </mxCell>
        <mxCell id="0UR9MXXXDw9d1XQzhALQ-125" value="- owner: Player" style="text;strokeColor=none;fillColor=none;align=left;verticalAlign=top;spacingLeft=4;spacingRight=4;overflow=hidden;rotatable=0;points=[[0,0.5],[1,0.5]];portConstraint=eastwest;" vertex="1" parent="0UR9MXXXDw9d1XQzhALQ-119">
          <mxGeometry y="156" width="320" height="26" as="geometry" />
        </mxCell>
        <mxCell id="0UR9MXXXDw9d1XQzhALQ-126" value="- owned: boolean" style="text;strokeColor=none;fillColor=none;align=left;verticalAlign=top;spacingLeft=4;spacingRight=4;overflow=hidden;rotatable=0;points=[[0,0.5],[1,0.5]];portConstraint=eastwest;" vertex="1" parent="0UR9MXXXDw9d1XQzhALQ-119">
          <mxGeometry y="182" width="320" height="26" as="geometry" />
        </mxCell>
        <mxCell id="0UR9MXXXDw9d1XQzhALQ-127" value="" style="line;strokeWidth=1;fillColor=none;align=left;verticalAlign=middle;spacingTop=-1;spacingLeft=3;spacingRight=3;rotatable=0;labelPosition=right;points=[];portConstraint=eastwest;" vertex="1" parent="0UR9MXXXDw9d1XQzhALQ-119">
          <mxGeometry y="208" width="320" height="8" as="geometry" />
        </mxCell>
        <mxCell id="0UR9MXXXDw9d1XQzhALQ-128" value="+ Railroad(position: int, name: String)" style="text;strokeColor=none;fillColor=none;align=left;verticalAlign=top;spacingLeft=4;spacingRight=4;overflow=hidden;rotatable=0;points=[[0,0.5],[1,0.5]];portConstraint=eastwest;" vertex="1" parent="0UR9MXXXDw9d1XQzhALQ-119">
          <mxGeometry y="216" width="320" height="26" as="geometry" />
        </mxCell>
        <mxCell id="0UR9MXXXDw9d1XQzhALQ-129" value="+ position(): int" style="text;strokeColor=none;fillColor=none;align=left;verticalAlign=top;spacingLeft=4;spacingRight=4;overflow=hidden;rotatable=0;points=[[0,0.5],[1,0.5]];portConstraint=eastwest;" vertex="1" parent="0UR9MXXXDw9d1XQzhALQ-119">
          <mxGeometry y="242" width="320" height="26" as="geometry" />
        </mxCell>
        <mxCell id="0UR9MXXXDw9d1XQzhALQ-130" value="+ name(): String" style="text;strokeColor=none;fillColor=none;align=left;verticalAlign=top;spacingLeft=4;spacingRight=4;overflow=hidden;rotatable=0;points=[[0,0.5],[1,0.5]];portConstraint=eastwest;" vertex="1" parent="0UR9MXXXDw9d1XQzhALQ-119">
          <mxGeometry y="268" width="320" height="26" as="geometry" />
        </mxCell>
        <mxCell id="0UR9MXXXDw9d1XQzhALQ-131" value="+ isOwnable(): boolean" style="text;strokeColor=none;fillColor=none;align=left;verticalAlign=top;spacingLeft=4;spacingRight=4;overflow=hidden;rotatable=0;points=[[0,0.5],[1,0.5]];portConstraint=eastwest;" vertex="1" parent="0UR9MXXXDw9d1XQzhALQ-119">
          <mxGeometry y="294" width="320" height="26" as="geometry" />
        </mxCell>
        <mxCell id="0UR9MXXXDw9d1XQzhALQ-132" value="+ isOwned(): boolean " style="text;strokeColor=none;fillColor=none;align=left;verticalAlign=top;spacingLeft=4;spacingRight=4;overflow=hidden;rotatable=0;points=[[0,0.5],[1,0.5]];portConstraint=eastwest;" vertex="1" parent="0UR9MXXXDw9d1XQzhALQ-119">
          <mxGeometry y="320" width="320" height="26" as="geometry" />
        </mxCell>
        <mxCell id="0UR9MXXXDw9d1XQzhALQ-133" value="+ cost(): int" style="text;strokeColor=none;fillColor=none;align=left;verticalAlign=top;spacingLeft=4;spacingRight=4;overflow=hidden;rotatable=0;points=[[0,0.5],[1,0.5]];portConstraint=eastwest;" vertex="1" parent="0UR9MXXXDw9d1XQzhALQ-119">
          <mxGeometry y="346" width="320" height="26" as="geometry" />
        </mxCell>
        <mxCell id="0UR9MXXXDw9d1XQzhALQ-134" value="+ purchase(player: Player): void" style="text;strokeColor=none;fillColor=none;align=left;verticalAlign=top;spacingLeft=4;spacingRight=4;overflow=hidden;rotatable=0;points=[[0,0.5],[1,0.5]];portConstraint=eastwest;" vertex="1" parent="0UR9MXXXDw9d1XQzhALQ-119">
          <mxGeometry y="372" width="320" height="26" as="geometry" />
        </mxCell>
        <mxCell id="0UR9MXXXDw9d1XQzhALQ-135" value="+ rent(value: int): int" style="text;strokeColor=none;fillColor=none;align=left;verticalAlign=top;spacingLeft=4;spacingRight=4;overflow=hidden;rotatable=0;points=[[0,0.5],[1,0.5]];portConstraint=eastwest;" vertex="1" parent="0UR9MXXXDw9d1XQzhALQ-119">
          <mxGeometry y="398" width="320" height="26" as="geometry" />
        </mxCell>
        <mxCell id="0UR9MXXXDw9d1XQzhALQ-136" value="+ owner(): Player" style="text;strokeColor=none;fillColor=none;align=left;verticalAlign=top;spacingLeft=4;spacingRight=4;overflow=hidden;rotatable=0;points=[[0,0.5],[1,0.5]];portConstraint=eastwest;" vertex="1" parent="0UR9MXXXDw9d1XQzhALQ-119">
          <mxGeometry y="424" width="320" height="26" as="geometry" />
        </mxCell>
        <mxCell id="0UR9MXXXDw9d1XQzhALQ-137" value="+ setGroup(a: Railroad, b: Railroad, c: Railroad): void" style="text;strokeColor=none;fillColor=none;align=left;verticalAlign=top;spacingLeft=4;spacingRight=4;overflow=hidden;rotatable=0;points=[[0,0.5],[1,0.5]];portConstraint=eastwest;" vertex="1" parent="0UR9MXXXDw9d1XQzhALQ-119">
          <mxGeometry y="450" width="320" height="26" as="geometry" />
        </mxCell>
        <mxCell id="0UR9MXXXDw9d1XQzhALQ-138" value="+ updateOwners(): void" style="text;strokeColor=none;fillColor=none;align=left;verticalAlign=top;spacingLeft=4;spacingRight=4;overflow=hidden;rotatable=0;points=[[0,0.5],[1,0.5]];portConstraint=eastwest;" vertex="1" parent="0UR9MXXXDw9d1XQzhALQ-119">
          <mxGeometry y="476" width="320" height="26" as="geometry" />
        </mxCell>
        <mxCell id="0UR9MXXXDw9d1XQzhALQ-139" value="Jail" style="swimlane;fontStyle=1;align=center;verticalAlign=top;childLayout=stackLayout;horizontal=1;startSize=26;horizontalStack=0;resizeParent=1;resizeParentMax=0;resizeLast=0;collapsible=1;marginBottom=0;" vertex="1" parent="1">
          <mxGeometry x="-1040" y="778" width="260" height="372" as="geometry" />
        </mxCell>
        <mxCell id="0UR9MXXXDw9d1XQzhALQ-140" value="- position: int" style="text;strokeColor=none;fillColor=none;align=left;verticalAlign=top;spacingLeft=4;spacingRight=4;overflow=hidden;rotatable=0;points=[[0,0.5],[1,0.5]];portConstraint=eastwest;" vertex="1" parent="0UR9MXXXDw9d1XQzhALQ-139">
          <mxGeometry y="26" width="260" height="26" as="geometry" />
        </mxCell>
        <mxCell id="0UR9MXXXDw9d1XQzhALQ-141" value="- name: String" style="text;strokeColor=none;fillColor=none;align=left;verticalAlign=top;spacingLeft=4;spacingRight=4;overflow=hidden;rotatable=0;points=[[0,0.5],[1,0.5]];portConstraint=eastwest;" vertex="1" parent="0UR9MXXXDw9d1XQzhALQ-139">
          <mxGeometry y="52" width="260" height="26" as="geometry" />
        </mxCell>
        <mxCell id="0UR9MXXXDw9d1XQzhALQ-142" value="- type: JailType" style="text;strokeColor=none;fillColor=none;align=left;verticalAlign=top;spacingLeft=4;spacingRight=4;overflow=hidden;rotatable=0;points=[[0,0.5],[1,0.5]];portConstraint=eastwest;" vertex="1" parent="0UR9MXXXDw9d1XQzhALQ-139">
          <mxGeometry y="78" width="260" height="26" as="geometry" />
        </mxCell>
        <mxCell id="0UR9MXXXDw9d1XQzhALQ-143" value="" style="line;strokeWidth=1;fillColor=none;align=left;verticalAlign=middle;spacingTop=-1;spacingLeft=3;spacingRight=3;rotatable=0;labelPosition=right;points=[];portConstraint=eastwest;" vertex="1" parent="0UR9MXXXDw9d1XQzhALQ-139">
          <mxGeometry y="104" width="260" height="8" as="geometry" />
        </mxCell>
        <mxCell id="0UR9MXXXDw9d1XQzhALQ-144" value="+ Jail(position: int, name: String, type JailType)" style="text;strokeColor=none;fillColor=none;align=left;verticalAlign=top;spacingLeft=4;spacingRight=4;overflow=hidden;rotatable=0;points=[[0,0.5],[1,0.5]];portConstraint=eastwest;" vertex="1" parent="0UR9MXXXDw9d1XQzhALQ-139">
          <mxGeometry y="112" width="260" height="26" as="geometry" />
        </mxCell>
        <mxCell id="0UR9MXXXDw9d1XQzhALQ-145" value="+ position(): int" style="text;strokeColor=none;fillColor=none;align=left;verticalAlign=top;spacingLeft=4;spacingRight=4;overflow=hidden;rotatable=0;points=[[0,0.5],[1,0.5]];portConstraint=eastwest;" vertex="1" parent="0UR9MXXXDw9d1XQzhALQ-139">
          <mxGeometry y="138" width="260" height="26" as="geometry" />
        </mxCell>
        <mxCell id="0UR9MXXXDw9d1XQzhALQ-146" value="+ name(): String" style="text;strokeColor=none;fillColor=none;align=left;verticalAlign=top;spacingLeft=4;spacingRight=4;overflow=hidden;rotatable=0;points=[[0,0.5],[1,0.5]];portConstraint=eastwest;" vertex="1" parent="0UR9MXXXDw9d1XQzhALQ-139">
          <mxGeometry y="164" width="260" height="26" as="geometry" />
        </mxCell>
        <mxCell id="0UR9MXXXDw9d1XQzhALQ-147" value="+ isOwnable(): boolean" style="text;strokeColor=none;fillColor=none;align=left;verticalAlign=top;spacingLeft=4;spacingRight=4;overflow=hidden;rotatable=0;points=[[0,0.5],[1,0.5]];portConstraint=eastwest;" vertex="1" parent="0UR9MXXXDw9d1XQzhALQ-139">
          <mxGeometry y="190" width="260" height="26" as="geometry" />
        </mxCell>
        <mxCell id="0UR9MXXXDw9d1XQzhALQ-148" value="+ isOwned(): boolean " style="text;strokeColor=none;fillColor=none;align=left;verticalAlign=top;spacingLeft=4;spacingRight=4;overflow=hidden;rotatable=0;points=[[0,0.5],[1,0.5]];portConstraint=eastwest;" vertex="1" parent="0UR9MXXXDw9d1XQzhALQ-139">
          <mxGeometry y="216" width="260" height="26" as="geometry" />
        </mxCell>
        <mxCell id="0UR9MXXXDw9d1XQzhALQ-149" value="+ cost(): int" style="text;strokeColor=none;fillColor=none;align=left;verticalAlign=top;spacingLeft=4;spacingRight=4;overflow=hidden;rotatable=0;points=[[0,0.5],[1,0.5]];portConstraint=eastwest;" vertex="1" parent="0UR9MXXXDw9d1XQzhALQ-139">
          <mxGeometry y="242" width="260" height="26" as="geometry" />
        </mxCell>
        <mxCell id="0UR9MXXXDw9d1XQzhALQ-150" value="+ purchase(player: Player): void" style="text;strokeColor=none;fillColor=none;align=left;verticalAlign=top;spacingLeft=4;spacingRight=4;overflow=hidden;rotatable=0;points=[[0,0.5],[1,0.5]];portConstraint=eastwest;" vertex="1" parent="0UR9MXXXDw9d1XQzhALQ-139">
          <mxGeometry y="268" width="260" height="26" as="geometry" />
        </mxCell>
        <mxCell id="0UR9MXXXDw9d1XQzhALQ-151" value="+ rent(value: int): int" style="text;strokeColor=none;fillColor=none;align=left;verticalAlign=top;spacingLeft=4;spacingRight=4;overflow=hidden;rotatable=0;points=[[0,0.5],[1,0.5]];portConstraint=eastwest;" vertex="1" parent="0UR9MXXXDw9d1XQzhALQ-139">
          <mxGeometry y="294" width="260" height="26" as="geometry" />
        </mxCell>
        <mxCell id="0UR9MXXXDw9d1XQzhALQ-152" value="+ owner(): Player" style="text;strokeColor=none;fillColor=none;align=left;verticalAlign=top;spacingLeft=4;spacingRight=4;overflow=hidden;rotatable=0;points=[[0,0.5],[1,0.5]];portConstraint=eastwest;" vertex="1" parent="0UR9MXXXDw9d1XQzhALQ-139">
          <mxGeometry y="320" width="260" height="26" as="geometry" />
        </mxCell>
        <mxCell id="0UR9MXXXDw9d1XQzhALQ-153" value="+ JailType: enum" style="text;strokeColor=none;fillColor=none;align=left;verticalAlign=top;spacingLeft=4;spacingRight=4;overflow=hidden;rotatable=0;points=[[0,0.5],[1,0.5]];portConstraint=eastwest;" vertex="1" parent="0UR9MXXXDw9d1XQzhALQ-139">
          <mxGeometry y="346" width="260" height="26" as="geometry" />
        </mxCell>
        <mxCell id="0UR9MXXXDw9d1XQzhALQ-154" value="" style="endArrow=none;dashed=1;html=1;rounded=0;exitX=0.5;exitY=0;exitDx=0;exitDy=0;" edge="1" parent="1" source="0UR9MXXXDw9d1XQzhALQ-139">
          <mxGeometry width="50" height="50" relative="1" as="geometry">
            <mxPoint x="-910" y="766.13" as="sourcePoint" />
            <mxPoint x="-490" y="718" as="targetPoint" />
          </mxGeometry>
        </mxCell>
        <mxCell id="0UR9MXXXDw9d1XQzhALQ-155" value="" style="endArrow=none;dashed=1;html=1;rounded=0;exitX=0.5;exitY=0;exitDx=0;exitDy=0;" edge="1" parent="1" source="0UR9MXXXDw9d1XQzhALQ-82">
          <mxGeometry width="50" height="50" relative="1" as="geometry">
            <mxPoint x="-640" y="768" as="sourcePoint" />
            <mxPoint x="-490" y="718" as="targetPoint" />
          </mxGeometry>
        </mxCell>
        <mxCell id="0UR9MXXXDw9d1XQzhALQ-156" value="" style="endArrow=none;dashed=1;html=1;rounded=0;exitX=0.5;exitY=0;exitDx=0;exitDy=0;" edge="1" parent="1" source="0UR9MXXXDw9d1XQzhALQ-119">
          <mxGeometry width="50" height="50" relative="1" as="geometry">
            <mxPoint x="-370" y="748" as="sourcePoint" />
            <mxPoint x="-490" y="718" as="targetPoint" />
          </mxGeometry>
        </mxCell>
        <mxCell id="0UR9MXXXDw9d1XQzhALQ-157" value="" style="endArrow=none;dashed=1;html=1;rounded=0;exitX=0.5;exitY=0;exitDx=0;exitDy=0;" edge="1" parent="1" source="0UR9MXXXDw9d1XQzhALQ-102">
          <mxGeometry width="50" height="50" relative="1" as="geometry">
            <mxPoint x="-170" y="758" as="sourcePoint" />
            <mxPoint x="-490" y="718" as="targetPoint" />
          </mxGeometry>
        </mxCell>
        <mxCell id="0UR9MXXXDw9d1XQzhALQ-158" value="" style="endArrow=none;dashed=1;html=1;rounded=0;exitX=0.5;exitY=0;exitDx=0;exitDy=0;" edge="1" parent="1" source="0UR9MXXXDw9d1XQzhALQ-69">
          <mxGeometry width="50" height="50" relative="1" as="geometry">
            <mxPoint x="-900" y="788" as="sourcePoint" />
            <mxPoint x="-490" y="718" as="targetPoint" />
          </mxGeometry>
        </mxCell>
        <mxCell id="0UR9MXXXDw9d1XQzhALQ-159" value="Property" style="swimlane;fontStyle=1;align=center;verticalAlign=top;childLayout=stackLayout;horizontal=1;startSize=26;horizontalStack=0;resizeParent=1;resizeParentMax=0;resizeLast=0;collapsible=1;marginBottom=0;" vertex="1" parent="1">
          <mxGeometry x="110" y="778" width="340" height="948" as="geometry" />
        </mxCell>
        <mxCell id="0UR9MXXXDw9d1XQzhALQ-160" value="- rent: int" style="text;strokeColor=none;fillColor=none;align=left;verticalAlign=top;spacingLeft=4;spacingRight=4;overflow=hidden;rotatable=0;points=[[0,0.5],[1,0.5]];portConstraint=eastwest;" vertex="1" parent="0UR9MXXXDw9d1XQzhALQ-159">
          <mxGeometry y="26" width="340" height="26" as="geometry" />
        </mxCell>
        <mxCell id="0UR9MXXXDw9d1XQzhALQ-161" value="- oneHouse: int" style="text;strokeColor=none;fillColor=none;align=left;verticalAlign=top;spacingLeft=4;spacingRight=4;overflow=hidden;rotatable=0;points=[[0,0.5],[1,0.5]];portConstraint=eastwest;" vertex="1" parent="0UR9MXXXDw9d1XQzhALQ-159">
          <mxGeometry y="52" width="340" height="26" as="geometry" />
        </mxCell>
        <mxCell id="0UR9MXXXDw9d1XQzhALQ-162" value="- twoHouse: int" style="text;strokeColor=none;fillColor=none;align=left;verticalAlign=top;spacingLeft=4;spacingRight=4;overflow=hidden;rotatable=0;points=[[0,0.5],[1,0.5]];portConstraint=eastwest;" vertex="1" parent="0UR9MXXXDw9d1XQzhALQ-159">
          <mxGeometry y="78" width="340" height="26" as="geometry" />
        </mxCell>
        <mxCell id="0UR9MXXXDw9d1XQzhALQ-163" value="- threeHouse: int" style="text;strokeColor=none;fillColor=none;align=left;verticalAlign=top;spacingLeft=4;spacingRight=4;overflow=hidden;rotatable=0;points=[[0,0.5],[1,0.5]];portConstraint=eastwest;" vertex="1" parent="0UR9MXXXDw9d1XQzhALQ-159">
          <mxGeometry y="104" width="340" height="26" as="geometry" />
        </mxCell>
        <mxCell id="0UR9MXXXDw9d1XQzhALQ-164" value="- fourHouse: int" style="text;strokeColor=none;fillColor=none;align=left;verticalAlign=top;spacingLeft=4;spacingRight=4;overflow=hidden;rotatable=0;points=[[0,0.5],[1,0.5]];portConstraint=eastwest;" vertex="1" parent="0UR9MXXXDw9d1XQzhALQ-159">
          <mxGeometry y="130" width="340" height="26" as="geometry" />
        </mxCell>
        <mxCell id="0UR9MXXXDw9d1XQzhALQ-165" value="- hotel: int" style="text;strokeColor=none;fillColor=none;align=left;verticalAlign=top;spacingLeft=4;spacingRight=4;overflow=hidden;rotatable=0;points=[[0,0.5],[1,0.5]];portConstraint=eastwest;" vertex="1" parent="0UR9MXXXDw9d1XQzhALQ-159">
          <mxGeometry y="156" width="340" height="26" as="geometry" />
        </mxCell>
        <mxCell id="0UR9MXXXDw9d1XQzhALQ-166" value="- position: int" style="text;strokeColor=none;fillColor=none;align=left;verticalAlign=top;spacingLeft=4;spacingRight=4;overflow=hidden;rotatable=0;points=[[0,0.5],[1,0.5]];portConstraint=eastwest;" vertex="1" parent="0UR9MXXXDw9d1XQzhALQ-159">
          <mxGeometry y="182" width="340" height="26" as="geometry" />
        </mxCell>
        <mxCell id="0UR9MXXXDw9d1XQzhALQ-167" value="- name: String" style="text;strokeColor=none;fillColor=none;align=left;verticalAlign=top;spacingLeft=4;spacingRight=4;overflow=hidden;rotatable=0;points=[[0,0.5],[1,0.5]];portConstraint=eastwest;" vertex="1" parent="0UR9MXXXDw9d1XQzhALQ-159">
          <mxGeometry y="208" width="340" height="26" as="geometry" />
        </mxCell>
        <mxCell id="0UR9MXXXDw9d1XQzhALQ-168" value="- owner: Player" style="text;strokeColor=none;fillColor=none;align=left;verticalAlign=top;spacingLeft=4;spacingRight=4;overflow=hidden;rotatable=0;points=[[0,0.5],[1,0.5]];portConstraint=eastwest;" vertex="1" parent="0UR9MXXXDw9d1XQzhALQ-159">
          <mxGeometry y="234" width="340" height="26" as="geometry" />
        </mxCell>
        <mxCell id="0UR9MXXXDw9d1XQzhALQ-169" value="- owned: boolean" style="text;strokeColor=none;fillColor=none;align=left;verticalAlign=top;spacingLeft=4;spacingRight=4;overflow=hidden;rotatable=0;points=[[0,0.5],[1,0.5]];portConstraint=eastwest;" vertex="1" parent="0UR9MXXXDw9d1XQzhALQ-159">
          <mxGeometry y="260" width="340" height="26" as="geometry" />
        </mxCell>
        <mxCell id="0UR9MXXXDw9d1XQzhALQ-170" value="- others: Property[]" style="text;strokeColor=none;fillColor=none;align=left;verticalAlign=top;spacingLeft=4;spacingRight=4;overflow=hidden;rotatable=0;points=[[0,0.5],[1,0.5]];portConstraint=eastwest;" vertex="1" parent="0UR9MXXXDw9d1XQzhALQ-159">
          <mxGeometry y="286" width="340" height="26" as="geometry" />
        </mxCell>
        <mxCell id="0UR9MXXXDw9d1XQzhALQ-171" value="- propertyCost: int" style="text;strokeColor=none;fillColor=none;align=left;verticalAlign=top;spacingLeft=4;spacingRight=4;overflow=hidden;rotatable=0;points=[[0,0.5],[1,0.5]];portConstraint=eastwest;" vertex="1" parent="0UR9MXXXDw9d1XQzhALQ-159">
          <mxGeometry y="312" width="340" height="26" as="geometry" />
        </mxCell>
        <mxCell id="0UR9MXXXDw9d1XQzhALQ-172" value="- houseCost: int" style="text;strokeColor=none;fillColor=none;align=left;verticalAlign=top;spacingLeft=4;spacingRight=4;overflow=hidden;rotatable=0;points=[[0,0.5],[1,0.5]];portConstraint=eastwest;" vertex="1" parent="0UR9MXXXDw9d1XQzhALQ-159">
          <mxGeometry y="338" width="340" height="26" as="geometry" />
        </mxCell>
        <mxCell id="0UR9MXXXDw9d1XQzhALQ-173" value="- buildings: int" style="text;strokeColor=none;fillColor=none;align=left;verticalAlign=top;spacingLeft=4;spacingRight=4;overflow=hidden;rotatable=0;points=[[0,0.5],[1,0.5]];portConstraint=eastwest;" vertex="1" parent="0UR9MXXXDw9d1XQzhALQ-159">
          <mxGeometry y="364" width="340" height="26" as="geometry" />
        </mxCell>
        <mxCell id="0UR9MXXXDw9d1XQzhALQ-174" value="- monopoly: boolean" style="text;strokeColor=none;fillColor=none;align=left;verticalAlign=top;spacingLeft=4;spacingRight=4;overflow=hidden;rotatable=0;points=[[0,0.5],[1,0.5]];portConstraint=eastwest;" vertex="1" parent="0UR9MXXXDw9d1XQzhALQ-159">
          <mxGeometry y="390" width="340" height="26" as="geometry" />
        </mxCell>
        <mxCell id="0UR9MXXXDw9d1XQzhALQ-175" value="" style="line;strokeWidth=1;fillColor=none;align=left;verticalAlign=middle;spacingTop=-1;spacingLeft=3;spacingRight=3;rotatable=0;labelPosition=right;points=[];portConstraint=eastwest;" vertex="1" parent="0UR9MXXXDw9d1XQzhALQ-159">
          <mxGeometry y="416" width="340" height="8" as="geometry" />
        </mxCell>
        <mxCell id="0UR9MXXXDw9d1XQzhALQ-176" value="+ Property(position: int, name: String, rent: int, &#xa;    oneHouse: int, twoHouse: int, threeHouse: int, &#xa;    fourHouse: int, hotel: int, propertyCost: int, houseCost: int)" style="text;strokeColor=none;fillColor=none;align=left;verticalAlign=top;spacingLeft=4;spacingRight=4;overflow=hidden;rotatable=0;points=[[0,0.5],[1,0.5]];portConstraint=eastwest;" vertex="1" parent="0UR9MXXXDw9d1XQzhALQ-159">
          <mxGeometry y="424" width="340" height="56" as="geometry" />
        </mxCell>
        <mxCell id="0UR9MXXXDw9d1XQzhALQ-177" value="+ position(): int" style="text;strokeColor=none;fillColor=none;align=left;verticalAlign=top;spacingLeft=4;spacingRight=4;overflow=hidden;rotatable=0;points=[[0,0.5],[1,0.5]];portConstraint=eastwest;" vertex="1" parent="0UR9MXXXDw9d1XQzhALQ-159">
          <mxGeometry y="480" width="340" height="26" as="geometry" />
        </mxCell>
        <mxCell id="0UR9MXXXDw9d1XQzhALQ-178" value="+ name(): String" style="text;strokeColor=none;fillColor=none;align=left;verticalAlign=top;spacingLeft=4;spacingRight=4;overflow=hidden;rotatable=0;points=[[0,0.5],[1,0.5]];portConstraint=eastwest;" vertex="1" parent="0UR9MXXXDw9d1XQzhALQ-159">
          <mxGeometry y="506" width="340" height="26" as="geometry" />
        </mxCell>
        <mxCell id="0UR9MXXXDw9d1XQzhALQ-179" value="+ isOwnable(): boolean" style="text;strokeColor=none;fillColor=none;align=left;verticalAlign=top;spacingLeft=4;spacingRight=4;overflow=hidden;rotatable=0;points=[[0,0.5],[1,0.5]];portConstraint=eastwest;" vertex="1" parent="0UR9MXXXDw9d1XQzhALQ-159">
          <mxGeometry y="532" width="340" height="26" as="geometry" />
        </mxCell>
        <mxCell id="0UR9MXXXDw9d1XQzhALQ-180" value="+ isOwned(): boolean " style="text;strokeColor=none;fillColor=none;align=left;verticalAlign=top;spacingLeft=4;spacingRight=4;overflow=hidden;rotatable=0;points=[[0,0.5],[1,0.5]];portConstraint=eastwest;" vertex="1" parent="0UR9MXXXDw9d1XQzhALQ-159">
          <mxGeometry y="558" width="340" height="26" as="geometry" />
        </mxCell>
        <mxCell id="0UR9MXXXDw9d1XQzhALQ-181" value="+ cost(): int" style="text;strokeColor=none;fillColor=none;align=left;verticalAlign=top;spacingLeft=4;spacingRight=4;overflow=hidden;rotatable=0;points=[[0,0.5],[1,0.5]];portConstraint=eastwest;" vertex="1" parent="0UR9MXXXDw9d1XQzhALQ-159">
          <mxGeometry y="584" width="340" height="26" as="geometry" />
        </mxCell>
        <mxCell id="0UR9MXXXDw9d1XQzhALQ-182" value="+ purchase(player: Player): void" style="text;strokeColor=none;fillColor=none;align=left;verticalAlign=top;spacingLeft=4;spacingRight=4;overflow=hidden;rotatable=0;points=[[0,0.5],[1,0.5]];portConstraint=eastwest;" vertex="1" parent="0UR9MXXXDw9d1XQzhALQ-159">
          <mxGeometry y="610" width="340" height="26" as="geometry" />
        </mxCell>
        <mxCell id="0UR9MXXXDw9d1XQzhALQ-183" value="+ rent(value: int): int" style="text;strokeColor=none;fillColor=none;align=left;verticalAlign=top;spacingLeft=4;spacingRight=4;overflow=hidden;rotatable=0;points=[[0,0.5],[1,0.5]];portConstraint=eastwest;" vertex="1" parent="0UR9MXXXDw9d1XQzhALQ-159">
          <mxGeometry y="636" width="340" height="26" as="geometry" />
        </mxCell>
        <mxCell id="0UR9MXXXDw9d1XQzhALQ-184" value="+ owner(): Player" style="text;strokeColor=none;fillColor=none;align=left;verticalAlign=top;spacingLeft=4;spacingRight=4;overflow=hidden;rotatable=0;points=[[0,0.5],[1,0.5]];portConstraint=eastwest;" vertex="1" parent="0UR9MXXXDw9d1XQzhALQ-159">
          <mxGeometry y="662" width="340" height="26" as="geometry" />
        </mxCell>
        <mxCell id="0UR9MXXXDw9d1XQzhALQ-185" value="+ isMonopoly(): boolean" style="text;strokeColor=none;fillColor=none;align=left;verticalAlign=top;spacingLeft=4;spacingRight=4;overflow=hidden;rotatable=0;points=[[0,0.5],[1,0.5]];portConstraint=eastwest;" vertex="1" parent="0UR9MXXXDw9d1XQzhALQ-159">
          <mxGeometry y="688" width="340" height="26" as="geometry" />
        </mxCell>
        <mxCell id="0UR9MXXXDw9d1XQzhALQ-186" value="+ setMonopoly(): boolean" style="text;strokeColor=none;fillColor=none;align=left;verticalAlign=top;spacingLeft=4;spacingRight=4;overflow=hidden;rotatable=0;points=[[0,0.5],[1,0.5]];portConstraint=eastwest;" vertex="1" parent="0UR9MXXXDw9d1XQzhALQ-159">
          <mxGeometry y="714" width="340" height="26" as="geometry" />
        </mxCell>
        <mxCell id="0UR9MXXXDw9d1XQzhALQ-187" value="+ breakMonopoly(): boolean" style="text;strokeColor=none;fillColor=none;align=left;verticalAlign=top;spacingLeft=4;spacingRight=4;overflow=hidden;rotatable=0;points=[[0,0.5],[1,0.5]];portConstraint=eastwest;" vertex="1" parent="0UR9MXXXDw9d1XQzhALQ-159">
          <mxGeometry y="740" width="340" height="26" as="geometry" />
        </mxCell>
        <mxCell id="0UR9MXXXDw9d1XQzhALQ-188" value="+ updateMonopoly(player: Player): void" style="text;strokeColor=none;fillColor=none;align=left;verticalAlign=top;spacingLeft=4;spacingRight=4;overflow=hidden;rotatable=0;points=[[0,0.5],[1,0.5]];portConstraint=eastwest;" vertex="1" parent="0UR9MXXXDw9d1XQzhALQ-159">
          <mxGeometry y="766" width="340" height="26" as="geometry" />
        </mxCell>
        <mxCell id="0UR9MXXXDw9d1XQzhALQ-189" value="+ getHouseCost(): int" style="text;strokeColor=none;fillColor=none;align=left;verticalAlign=top;spacingLeft=4;spacingRight=4;overflow=hidden;rotatable=0;points=[[0,0.5],[1,0.5]];portConstraint=eastwest;" vertex="1" parent="0UR9MXXXDw9d1XQzhALQ-159">
          <mxGeometry y="792" width="340" height="26" as="geometry" />
        </mxCell>
        <mxCell id="0UR9MXXXDw9d1XQzhALQ-190" value="+ setGroup(propertyA: Property): void" style="text;strokeColor=none;fillColor=none;align=left;verticalAlign=top;spacingLeft=4;spacingRight=4;overflow=hidden;rotatable=0;points=[[0,0.5],[1,0.5]];portConstraint=eastwest;" vertex="1" parent="0UR9MXXXDw9d1XQzhALQ-159">
          <mxGeometry y="818" width="340" height="26" as="geometry" />
        </mxCell>
        <mxCell id="0UR9MXXXDw9d1XQzhALQ-191" value="+ setGroup(propertyA: Property, propertyB: Property): void" style="text;strokeColor=none;fillColor=none;align=left;verticalAlign=top;spacingLeft=4;spacingRight=4;overflow=hidden;rotatable=0;points=[[0,0.5],[1,0.5]];portConstraint=eastwest;" vertex="1" parent="0UR9MXXXDw9d1XQzhALQ-159">
          <mxGeometry y="844" width="340" height="26" as="geometry" />
        </mxCell>
        <mxCell id="0UR9MXXXDw9d1XQzhALQ-192" value="+ getBuildings(): int" style="text;strokeColor=none;fillColor=none;align=left;verticalAlign=top;spacingLeft=4;spacingRight=4;overflow=hidden;rotatable=0;points=[[0,0.5],[1,0.5]];portConstraint=eastwest;" vertex="1" parent="0UR9MXXXDw9d1XQzhALQ-159">
          <mxGeometry y="870" width="340" height="26" as="geometry" />
        </mxCell>
        <mxCell id="0UR9MXXXDw9d1XQzhALQ-193" value="+ build(): void" style="text;strokeColor=none;fillColor=none;align=left;verticalAlign=top;spacingLeft=4;spacingRight=4;overflow=hidden;rotatable=0;points=[[0,0.5],[1,0.5]];portConstraint=eastwest;" vertex="1" parent="0UR9MXXXDw9d1XQzhALQ-159">
          <mxGeometry y="896" width="340" height="26" as="geometry" />
        </mxCell>
        <mxCell id="0UR9MXXXDw9d1XQzhALQ-194" value="+ evenRule(): boolean" style="text;strokeColor=none;fillColor=none;align=left;verticalAlign=top;spacingLeft=4;spacingRight=4;overflow=hidden;rotatable=0;points=[[0,0.5],[1,0.5]];portConstraint=eastwest;" vertex="1" parent="0UR9MXXXDw9d1XQzhALQ-159">
          <mxGeometry y="922" width="340" height="26" as="geometry" />
        </mxCell>
        <mxCell id="0UR9MXXXDw9d1XQzhALQ-195" value="" style="endArrow=none;dashed=1;html=1;rounded=0;exitX=0.5;exitY=0;exitDx=0;exitDy=0;" edge="1" parent="1" source="0UR9MXXXDw9d1XQzhALQ-159">
          <mxGeometry width="50" height="50" relative="1" as="geometry">
            <mxPoint x="-15" y="768" as="sourcePoint" />
            <mxPoint x="-490" y="718" as="targetPoint" />
          </mxGeometry>
        </mxCell>
        <mxCell id="0UR9MXXXDw9d1XQzhALQ-196" value="Roll" style="swimlane;fontStyle=1;align=center;verticalAlign=top;childLayout=stackLayout;horizontal=1;startSize=26;horizontalStack=0;resizeParent=1;resizeParentMax=0;resizeLast=0;collapsible=1;marginBottom=0;" vertex="1" parent="1">
          <mxGeometry x="-2890" y="745" width="200" height="138" as="geometry" />
        </mxCell>
        <mxCell id="0UR9MXXXDw9d1XQzhALQ-197" value="+ dieValue1: int" style="text;strokeColor=none;fillColor=none;align=left;verticalAlign=top;spacingLeft=4;spacingRight=4;overflow=hidden;rotatable=0;points=[[0,0.5],[1,0.5]];portConstraint=eastwest;" vertex="1" parent="0UR9MXXXDw9d1XQzhALQ-196">
          <mxGeometry y="26" width="200" height="26" as="geometry" />
        </mxCell>
        <mxCell id="0UR9MXXXDw9d1XQzhALQ-198" value="+ dieValue2: int" style="text;strokeColor=none;fillColor=none;align=left;verticalAlign=top;spacingLeft=4;spacingRight=4;overflow=hidden;rotatable=0;points=[[0,0.5],[1,0.5]];portConstraint=eastwest;" vertex="1" parent="0UR9MXXXDw9d1XQzhALQ-196">
          <mxGeometry y="52" width="200" height="26" as="geometry" />
        </mxCell>
        <mxCell id="0UR9MXXXDw9d1XQzhALQ-199" value="+ value: int" style="text;strokeColor=none;fillColor=none;align=left;verticalAlign=top;spacingLeft=4;spacingRight=4;overflow=hidden;rotatable=0;points=[[0,0.5],[1,0.5]];portConstraint=eastwest;" vertex="1" parent="0UR9MXXXDw9d1XQzhALQ-196">
          <mxGeometry y="78" width="200" height="26" as="geometry" />
        </mxCell>
        <mxCell id="0UR9MXXXDw9d1XQzhALQ-200" value="+ isDouble: boolean" style="text;strokeColor=none;fillColor=none;align=left;verticalAlign=top;spacingLeft=4;spacingRight=4;overflow=hidden;rotatable=0;points=[[0,0.5],[1,0.5]];portConstraint=eastwest;" vertex="1" parent="0UR9MXXXDw9d1XQzhALQ-196">
          <mxGeometry y="104" width="200" height="26" as="geometry" />
        </mxCell>
        <mxCell id="0UR9MXXXDw9d1XQzhALQ-201" value="" style="line;strokeWidth=1;fillColor=none;align=left;verticalAlign=middle;spacingTop=-1;spacingLeft=3;spacingRight=3;rotatable=0;labelPosition=right;points=[];portConstraint=eastwest;" vertex="1" parent="0UR9MXXXDw9d1XQzhALQ-196">
          <mxGeometry y="130" width="200" height="8" as="geometry" />
        </mxCell>
        <mxCell id="0UR9MXXXDw9d1XQzhALQ-202" value="" style="endArrow=open;endFill=1;endSize=12;html=1;rounded=0;" edge="1" parent="1" source="0UR9MXXXDw9d1XQzhALQ-36" target="0UR9MXXXDw9d1XQzhALQ-196">
          <mxGeometry width="160" relative="1" as="geometry">
            <mxPoint x="-2440" y="967" as="sourcePoint" />
            <mxPoint x="-2850" y="917" as="targetPoint" />
            <Array as="points">
              <mxPoint x="-2790" y="1026" />
            </Array>
          </mxGeometry>
        </mxCell>
        <mxCell id="0UR9MXXXDw9d1XQzhALQ-203" value="uses" style="text;html=1;align=center;verticalAlign=middle;resizable=0;points=[];autosize=1;strokeColor=none;fillColor=none;" vertex="1" parent="1">
          <mxGeometry x="-2730" y="1005" width="40" height="20" as="geometry" />
        </mxCell>
        <mxCell id="0UR9MXXXDw9d1XQzhALQ-204" value="&lt;&lt;enumeration&gt;&gt;&#xa;JailType" style="swimlane;fontStyle=1;childLayout=stackLayout;horizontal=1;startSize=40;fillColor=none;horizontalStack=0;resizeParent=1;resizeParentMax=0;resizeLast=0;collapsible=1;marginBottom=0;" vertex="1" parent="1">
          <mxGeometry x="-980" y="1228" width="140" height="118" as="geometry" />
        </mxCell>
        <mxCell id="0UR9MXXXDw9d1XQzhALQ-205" value="JUST_VISITING" style="text;strokeColor=none;fillColor=none;align=left;verticalAlign=top;spacingLeft=4;spacingRight=4;overflow=hidden;rotatable=0;points=[[0,0.5],[1,0.5]];portConstraint=eastwest;" vertex="1" parent="0UR9MXXXDw9d1XQzhALQ-204">
          <mxGeometry y="40" width="140" height="26" as="geometry" />
        </mxCell>
        <mxCell id="0UR9MXXXDw9d1XQzhALQ-206" value="IN_JAIL" style="text;strokeColor=none;fillColor=none;align=left;verticalAlign=top;spacingLeft=4;spacingRight=4;overflow=hidden;rotatable=0;points=[[0,0.5],[1,0.5]];portConstraint=eastwest;" vertex="1" parent="0UR9MXXXDw9d1XQzhALQ-204">
          <mxGeometry y="66" width="140" height="26" as="geometry" />
        </mxCell>
        <mxCell id="0UR9MXXXDw9d1XQzhALQ-207" value="GOTO_JAIL" style="text;strokeColor=none;fillColor=none;align=left;verticalAlign=top;spacingLeft=4;spacingRight=4;overflow=hidden;rotatable=0;points=[[0,0.5],[1,0.5]];portConstraint=eastwest;" vertex="1" parent="0UR9MXXXDw9d1XQzhALQ-204">
          <mxGeometry y="92" width="140" height="26" as="geometry" />
        </mxCell>
        <mxCell id="0UR9MXXXDw9d1XQzhALQ-208" value="GameBoard" style="swimlane;fontStyle=1;align=center;verticalAlign=top;childLayout=stackLayout;horizontal=1;startSize=26;horizontalStack=0;resizeParent=1;resizeParentMax=0;resizeLast=0;collapsible=1;marginBottom=0;" vertex="1" parent="1">
          <mxGeometry x="-1600" y="378" width="240" height="1282" as="geometry" />
        </mxCell>
        <mxCell id="0UR9MXXXDw9d1XQzhALQ-209" value="- NUM_TILES: int = 41;" style="text;strokeColor=none;fillColor=none;align=left;verticalAlign=top;spacingLeft=4;spacingRight=4;overflow=hidden;rotatable=0;points=[[0,0.5],[1,0.5]];portConstraint=eastwest;" vertex="1" parent="0UR9MXXXDw9d1XQzhALQ-208">
          <mxGeometry y="26" width="240" height="26" as="geometry" />
        </mxCell>
        <mxCell id="0UR9MXXXDw9d1XQzhALQ-210" value="- board: Square[]" style="text;strokeColor=none;fillColor=none;align=left;verticalAlign=top;spacingLeft=4;spacingRight=4;overflow=hidden;rotatable=0;points=[[0,0.5],[1,0.5]];portConstraint=eastwest;" vertex="1" parent="0UR9MXXXDw9d1XQzhALQ-208">
          <mxGeometry y="52" width="240" height="26" as="geometry" />
        </mxCell>
        <mxCell id="0UR9MXXXDw9d1XQzhALQ-211" value="" style="line;strokeWidth=1;fillColor=none;align=left;verticalAlign=middle;spacingTop=-1;spacingLeft=3;spacingRight=3;rotatable=0;labelPosition=right;points=[];portConstraint=eastwest;" vertex="1" parent="0UR9MXXXDw9d1XQzhALQ-208">
          <mxGeometry y="78" width="240" height="8" as="geometry" />
        </mxCell>
        <mxCell id="0UR9MXXXDw9d1XQzhALQ-212" value="+ GameBoard()" style="text;strokeColor=none;fillColor=none;align=left;verticalAlign=top;spacingLeft=4;spacingRight=4;overflow=hidden;rotatable=0;points=[[0,0.5],[1,0.5]];portConstraint=eastwest;" vertex="1" parent="0UR9MXXXDw9d1XQzhALQ-208">
          <mxGeometry y="86" width="240" height="26" as="geometry" />
        </mxCell>
        <mxCell id="0UR9MXXXDw9d1XQzhALQ-213" value="+ size(): int" style="text;strokeColor=none;fillColor=none;align=left;verticalAlign=top;spacingLeft=4;spacingRight=4;overflow=hidden;rotatable=0;points=[[0,0.5],[1,0.5]];portConstraint=eastwest;" vertex="1" parent="0UR9MXXXDw9d1XQzhALQ-208">
          <mxGeometry y="112" width="240" height="26" as="geometry" />
        </mxCell>
        <mxCell id="0UR9MXXXDw9d1XQzhALQ-214" value="+ getBoard(): Square[]" style="text;strokeColor=none;fillColor=none;align=left;verticalAlign=top;spacingLeft=4;spacingRight=4;overflow=hidden;rotatable=0;points=[[0,0.5],[1,0.5]];portConstraint=eastwest;" vertex="1" parent="0UR9MXXXDw9d1XQzhALQ-208">
          <mxGeometry y="138" width="240" height="26" as="geometry" />
        </mxCell>
        <mxCell id="0UR9MXXXDw9d1XQzhALQ-215" value="+ square(position: int): Square" style="text;strokeColor=none;fillColor=none;align=left;verticalAlign=top;spacingLeft=4;spacingRight=4;overflow=hidden;rotatable=0;points=[[0,0.5],[1,0.5]];portConstraint=eastwest;" vertex="1" parent="0UR9MXXXDw9d1XQzhALQ-208">
          <mxGeometry y="164" width="240" height="26" as="geometry" />
        </mxCell>
        <mxCell id="0UR9MXXXDw9d1XQzhALQ-216" value="+ property(name: String): Property" style="text;strokeColor=none;fillColor=none;align=left;verticalAlign=top;spacingLeft=4;spacingRight=4;overflow=hidden;rotatable=0;points=[[0,0.5],[1,0.5]];portConstraint=eastwest;" vertex="1" parent="0UR9MXXXDw9d1XQzhALQ-208">
          <mxGeometry y="190" width="240" height="26" as="geometry" />
        </mxCell>
        <mxCell id="0UR9MXXXDw9d1XQzhALQ-217" value="+ makeSquare(position: int): Square" style="text;strokeColor=none;fillColor=none;align=left;verticalAlign=top;spacingLeft=4;spacingRight=4;overflow=hidden;rotatable=0;points=[[0,0.5],[1,0.5]];portConstraint=eastwest;" vertex="1" parent="0UR9MXXXDw9d1XQzhALQ-208">
          <mxGeometry y="216" width="240" height="26" as="geometry" />
        </mxCell>
        <mxCell id="0UR9MXXXDw9d1XQzhALQ-218" value="+ groupProperties(): void" style="text;strokeColor=none;fillColor=none;align=left;verticalAlign=top;spacingLeft=4;spacingRight=4;overflow=hidden;rotatable=0;points=[[0,0.5],[1,0.5]];portConstraint=eastwest;" vertex="1" parent="0UR9MXXXDw9d1XQzhALQ-208">
          <mxGeometry y="242" width="240" height="26" as="geometry" />
        </mxCell>
        <mxCell id="0UR9MXXXDw9d1XQzhALQ-219" value="+ groupRailroads(): void" style="text;strokeColor=none;fillColor=none;align=left;verticalAlign=top;spacingLeft=4;spacingRight=4;overflow=hidden;rotatable=0;points=[[0,0.5],[1,0.5]];portConstraint=eastwest;" vertex="1" parent="0UR9MXXXDw9d1XQzhALQ-208">
          <mxGeometry y="268" width="240" height="26" as="geometry" />
        </mxCell>
        <mxCell id="0UR9MXXXDw9d1XQzhALQ-220" value="+ groupUtilities(): void" style="text;strokeColor=none;fillColor=none;align=left;verticalAlign=top;spacingLeft=4;spacingRight=4;overflow=hidden;rotatable=0;points=[[0,0.5],[1,0.5]];portConstraint=eastwest;" vertex="1" parent="0UR9MXXXDw9d1XQzhALQ-208">
          <mxGeometry y="294" width="240" height="26" as="geometry" />
        </mxCell>
        <mxCell id="0UR9MXXXDw9d1XQzhALQ-221" value="+ go(position: int): Square" style="text;strokeColor=none;fillColor=none;align=left;verticalAlign=top;spacingLeft=4;spacingRight=4;overflow=hidden;rotatable=0;points=[[0,0.5],[1,0.5]];portConstraint=eastwest;" vertex="1" parent="0UR9MXXXDw9d1XQzhALQ-208">
          <mxGeometry y="320" width="240" height="26" as="geometry" />
        </mxCell>
        <mxCell id="0UR9MXXXDw9d1XQzhALQ-222" value="+ community(position: int): Square" style="text;strokeColor=none;fillColor=none;align=left;verticalAlign=top;spacingLeft=4;spacingRight=4;overflow=hidden;rotatable=0;points=[[0,0.5],[1,0.5]];portConstraint=eastwest;" vertex="1" parent="0UR9MXXXDw9d1XQzhALQ-208">
          <mxGeometry y="346" width="240" height="26" as="geometry" />
        </mxCell>
        <mxCell id="0UR9MXXXDw9d1XQzhALQ-223" value="+ chance(position: int): Square" style="text;strokeColor=none;fillColor=none;align=left;verticalAlign=top;spacingLeft=4;spacingRight=4;overflow=hidden;rotatable=0;points=[[0,0.5],[1,0.5]];portConstraint=eastwest;" vertex="1" parent="0UR9MXXXDw9d1XQzhALQ-208">
          <mxGeometry y="372" width="240" height="26" as="geometry" />
        </mxCell>
        <mxCell id="0UR9MXXXDw9d1XQzhALQ-224" value="+ incomeTax(position: int): Square" style="text;strokeColor=none;fillColor=none;align=left;verticalAlign=top;spacingLeft=4;spacingRight=4;overflow=hidden;rotatable=0;points=[[0,0.5],[1,0.5]];portConstraint=eastwest;" vertex="1" parent="0UR9MXXXDw9d1XQzhALQ-208">
          <mxGeometry y="398" width="240" height="26" as="geometry" />
        </mxCell>
        <mxCell id="0UR9MXXXDw9d1XQzhALQ-225" value="+ superTax(position: int): Square" style="text;strokeColor=none;fillColor=none;align=left;verticalAlign=top;spacingLeft=4;spacingRight=4;overflow=hidden;rotatable=0;points=[[0,0.5],[1,0.5]];portConstraint=eastwest;" vertex="1" parent="0UR9MXXXDw9d1XQzhALQ-208">
          <mxGeometry y="424" width="240" height="26" as="geometry" />
        </mxCell>
        <mxCell id="0UR9MXXXDw9d1XQzhALQ-226" value="+ electricCompany(position: int): Square" style="text;strokeColor=none;fillColor=none;align=left;verticalAlign=top;spacingLeft=4;spacingRight=4;overflow=hidden;rotatable=0;points=[[0,0.5],[1,0.5]];portConstraint=eastwest;" vertex="1" parent="0UR9MXXXDw9d1XQzhALQ-208">
          <mxGeometry y="450" width="240" height="26" as="geometry" />
        </mxCell>
        <mxCell id="0UR9MXXXDw9d1XQzhALQ-227" value="+ waterWorks(position: int): Square" style="text;strokeColor=none;fillColor=none;align=left;verticalAlign=top;spacingLeft=4;spacingRight=4;overflow=hidden;rotatable=0;points=[[0,0.5],[1,0.5]];portConstraint=eastwest;" vertex="1" parent="0UR9MXXXDw9d1XQzhALQ-208">
          <mxGeometry y="476" width="240" height="26" as="geometry" />
        </mxCell>
        <mxCell id="0UR9MXXXDw9d1XQzhALQ-228" value="+ kingsCross(position: int): Square" style="text;strokeColor=none;fillColor=none;align=left;verticalAlign=top;spacingLeft=4;spacingRight=4;overflow=hidden;rotatable=0;points=[[0,0.5],[1,0.5]];portConstraint=eastwest;" vertex="1" parent="0UR9MXXXDw9d1XQzhALQ-208">
          <mxGeometry y="502" width="240" height="26" as="geometry" />
        </mxCell>
        <mxCell id="0UR9MXXXDw9d1XQzhALQ-229" value="+ marylebone(position: int): Square" style="text;strokeColor=none;fillColor=none;align=left;verticalAlign=top;spacingLeft=4;spacingRight=4;overflow=hidden;rotatable=0;points=[[0,0.5],[1,0.5]];portConstraint=eastwest;" vertex="1" parent="0UR9MXXXDw9d1XQzhALQ-208">
          <mxGeometry y="528" width="240" height="26" as="geometry" />
        </mxCell>
        <mxCell id="0UR9MXXXDw9d1XQzhALQ-230" value="+ fenchurch(position: int): Square" style="text;strokeColor=none;fillColor=none;align=left;verticalAlign=top;spacingLeft=4;spacingRight=4;overflow=hidden;rotatable=0;points=[[0,0.5],[1,0.5]];portConstraint=eastwest;" vertex="1" parent="0UR9MXXXDw9d1XQzhALQ-208">
          <mxGeometry y="554" width="240" height="26" as="geometry" />
        </mxCell>
        <mxCell id="0UR9MXXXDw9d1XQzhALQ-231" value="+ liverpool(position: int): Square" style="text;strokeColor=none;fillColor=none;align=left;verticalAlign=top;spacingLeft=4;spacingRight=4;overflow=hidden;rotatable=0;points=[[0,0.5],[1,0.5]];portConstraint=eastwest;" vertex="1" parent="0UR9MXXXDw9d1XQzhALQ-208">
          <mxGeometry y="580" width="240" height="26" as="geometry" />
        </mxCell>
        <mxCell id="0UR9MXXXDw9d1XQzhALQ-232" value="+ freeParking(position: int): Square" style="text;strokeColor=none;fillColor=none;align=left;verticalAlign=top;spacingLeft=4;spacingRight=4;overflow=hidden;rotatable=0;points=[[0,0.5],[1,0.5]];portConstraint=eastwest;" vertex="1" parent="0UR9MXXXDw9d1XQzhALQ-208">
          <mxGeometry y="606" width="240" height="26" as="geometry" />
        </mxCell>
        <mxCell id="0UR9MXXXDw9d1XQzhALQ-233" value="+ goToJail(position: int): Square" style="text;strokeColor=none;fillColor=none;align=left;verticalAlign=top;spacingLeft=4;spacingRight=4;overflow=hidden;rotatable=0;points=[[0,0.5],[1,0.5]];portConstraint=eastwest;" vertex="1" parent="0UR9MXXXDw9d1XQzhALQ-208">
          <mxGeometry y="632" width="240" height="26" as="geometry" />
        </mxCell>
        <mxCell id="0UR9MXXXDw9d1XQzhALQ-234" value="+ inJail(position: int): Square" style="text;strokeColor=none;fillColor=none;align=left;verticalAlign=top;spacingLeft=4;spacingRight=4;overflow=hidden;rotatable=0;points=[[0,0.5],[1,0.5]];portConstraint=eastwest;" vertex="1" parent="0UR9MXXXDw9d1XQzhALQ-208">
          <mxGeometry y="658" width="240" height="26" as="geometry" />
        </mxCell>
        <mxCell id="0UR9MXXXDw9d1XQzhALQ-235" value="+ justVisiting(position: int): Square" style="text;strokeColor=none;fillColor=none;align=left;verticalAlign=top;spacingLeft=4;spacingRight=4;overflow=hidden;rotatable=0;points=[[0,0.5],[1,0.5]];portConstraint=eastwest;" vertex="1" parent="0UR9MXXXDw9d1XQzhALQ-208">
          <mxGeometry y="684" width="240" height="26" as="geometry" />
        </mxCell>
        <mxCell id="0UR9MXXXDw9d1XQzhALQ-236" value="+ oldKent(position: int): Square" style="text;strokeColor=none;fillColor=none;align=left;verticalAlign=top;spacingLeft=4;spacingRight=4;overflow=hidden;rotatable=0;points=[[0,0.5],[1,0.5]];portConstraint=eastwest;" vertex="1" parent="0UR9MXXXDw9d1XQzhALQ-208">
          <mxGeometry y="710" width="240" height="26" as="geometry" />
        </mxCell>
        <mxCell id="0UR9MXXXDw9d1XQzhALQ-237" value="+ whitechapel(position: int): Square" style="text;strokeColor=none;fillColor=none;align=left;verticalAlign=top;spacingLeft=4;spacingRight=4;overflow=hidden;rotatable=0;points=[[0,0.5],[1,0.5]];portConstraint=eastwest;" vertex="1" parent="0UR9MXXXDw9d1XQzhALQ-208">
          <mxGeometry y="736" width="240" height="26" as="geometry" />
        </mxCell>
        <mxCell id="0UR9MXXXDw9d1XQzhALQ-238" value="+ theAngelIslington(position: int): Square" style="text;strokeColor=none;fillColor=none;align=left;verticalAlign=top;spacingLeft=4;spacingRight=4;overflow=hidden;rotatable=0;points=[[0,0.5],[1,0.5]];portConstraint=eastwest;" vertex="1" parent="0UR9MXXXDw9d1XQzhALQ-208">
          <mxGeometry y="762" width="240" height="26" as="geometry" />
        </mxCell>
        <mxCell id="0UR9MXXXDw9d1XQzhALQ-239" value="+ euston(position: int): Square" style="text;strokeColor=none;fillColor=none;align=left;verticalAlign=top;spacingLeft=4;spacingRight=4;overflow=hidden;rotatable=0;points=[[0,0.5],[1,0.5]];portConstraint=eastwest;" vertex="1" parent="0UR9MXXXDw9d1XQzhALQ-208">
          <mxGeometry y="788" width="240" height="26" as="geometry" />
        </mxCell>
        <mxCell id="0UR9MXXXDw9d1XQzhALQ-240" value="+ pentonville(position: int): Square" style="text;strokeColor=none;fillColor=none;align=left;verticalAlign=top;spacingLeft=4;spacingRight=4;overflow=hidden;rotatable=0;points=[[0,0.5],[1,0.5]];portConstraint=eastwest;" vertex="1" parent="0UR9MXXXDw9d1XQzhALQ-208">
          <mxGeometry y="814" width="240" height="26" as="geometry" />
        </mxCell>
        <mxCell id="0UR9MXXXDw9d1XQzhALQ-241" value="+ pallMall(position: int): Square" style="text;strokeColor=none;fillColor=none;align=left;verticalAlign=top;spacingLeft=4;spacingRight=4;overflow=hidden;rotatable=0;points=[[0,0.5],[1,0.5]];portConstraint=eastwest;" vertex="1" parent="0UR9MXXXDw9d1XQzhALQ-208">
          <mxGeometry y="840" width="240" height="26" as="geometry" />
        </mxCell>
        <mxCell id="0UR9MXXXDw9d1XQzhALQ-242" value="+ whitehall(position: int): Square" style="text;strokeColor=none;fillColor=none;align=left;verticalAlign=top;spacingLeft=4;spacingRight=4;overflow=hidden;rotatable=0;points=[[0,0.5],[1,0.5]];portConstraint=eastwest;" vertex="1" parent="0UR9MXXXDw9d1XQzhALQ-208">
          <mxGeometry y="866" width="240" height="26" as="geometry" />
        </mxCell>
        <mxCell id="0UR9MXXXDw9d1XQzhALQ-243" value="+ northumrld(position: int): Square" style="text;strokeColor=none;fillColor=none;align=left;verticalAlign=top;spacingLeft=4;spacingRight=4;overflow=hidden;rotatable=0;points=[[0,0.5],[1,0.5]];portConstraint=eastwest;" vertex="1" parent="0UR9MXXXDw9d1XQzhALQ-208">
          <mxGeometry y="892" width="240" height="26" as="geometry" />
        </mxCell>
        <mxCell id="0UR9MXXXDw9d1XQzhALQ-244" value="+ bow(position: int): Square" style="text;strokeColor=none;fillColor=none;align=left;verticalAlign=top;spacingLeft=4;spacingRight=4;overflow=hidden;rotatable=0;points=[[0,0.5],[1,0.5]];portConstraint=eastwest;" vertex="1" parent="0UR9MXXXDw9d1XQzhALQ-208">
          <mxGeometry y="918" width="240" height="26" as="geometry" />
        </mxCell>
        <mxCell id="0UR9MXXXDw9d1XQzhALQ-245" value="+ marlborough(position: int): Square" style="text;strokeColor=none;fillColor=none;align=left;verticalAlign=top;spacingLeft=4;spacingRight=4;overflow=hidden;rotatable=0;points=[[0,0.5],[1,0.5]];portConstraint=eastwest;" vertex="1" parent="0UR9MXXXDw9d1XQzhALQ-208">
          <mxGeometry y="944" width="240" height="26" as="geometry" />
        </mxCell>
        <mxCell id="0UR9MXXXDw9d1XQzhALQ-246" value="+ vine(position: int): Square" style="text;strokeColor=none;fillColor=none;align=left;verticalAlign=top;spacingLeft=4;spacingRight=4;overflow=hidden;rotatable=0;points=[[0,0.5],[1,0.5]];portConstraint=eastwest;" vertex="1" parent="0UR9MXXXDw9d1XQzhALQ-208">
          <mxGeometry y="970" width="240" height="26" as="geometry" />
        </mxCell>
        <mxCell id="0UR9MXXXDw9d1XQzhALQ-247" value="+ strand(position: int): Square" style="text;strokeColor=none;fillColor=none;align=left;verticalAlign=top;spacingLeft=4;spacingRight=4;overflow=hidden;rotatable=0;points=[[0,0.5],[1,0.5]];portConstraint=eastwest;" vertex="1" parent="0UR9MXXXDw9d1XQzhALQ-208">
          <mxGeometry y="996" width="240" height="26" as="geometry" />
        </mxCell>
        <mxCell id="0UR9MXXXDw9d1XQzhALQ-248" value="+ fleet(position: int): Square" style="text;strokeColor=none;fillColor=none;align=left;verticalAlign=top;spacingLeft=4;spacingRight=4;overflow=hidden;rotatable=0;points=[[0,0.5],[1,0.5]];portConstraint=eastwest;" vertex="1" parent="0UR9MXXXDw9d1XQzhALQ-208">
          <mxGeometry y="1022" width="240" height="26" as="geometry" />
        </mxCell>
        <mxCell id="0UR9MXXXDw9d1XQzhALQ-249" value="+ trafalgar(position: int): Square" style="text;strokeColor=none;fillColor=none;align=left;verticalAlign=top;spacingLeft=4;spacingRight=4;overflow=hidden;rotatable=0;points=[[0,0.5],[1,0.5]];portConstraint=eastwest;" vertex="1" parent="0UR9MXXXDw9d1XQzhALQ-208">
          <mxGeometry y="1048" width="240" height="26" as="geometry" />
        </mxCell>
        <mxCell id="0UR9MXXXDw9d1XQzhALQ-250" value="+ leicester(position: int): Square" style="text;strokeColor=none;fillColor=none;align=left;verticalAlign=top;spacingLeft=4;spacingRight=4;overflow=hidden;rotatable=0;points=[[0,0.5],[1,0.5]];portConstraint=eastwest;" vertex="1" parent="0UR9MXXXDw9d1XQzhALQ-208">
          <mxGeometry y="1074" width="240" height="26" as="geometry" />
        </mxCell>
        <mxCell id="0UR9MXXXDw9d1XQzhALQ-251" value="+ conventry(position: int): Square" style="text;strokeColor=none;fillColor=none;align=left;verticalAlign=top;spacingLeft=4;spacingRight=4;overflow=hidden;rotatable=0;points=[[0,0.5],[1,0.5]];portConstraint=eastwest;" vertex="1" parent="0UR9MXXXDw9d1XQzhALQ-208">
          <mxGeometry y="1100" width="240" height="26" as="geometry" />
        </mxCell>
        <mxCell id="0UR9MXXXDw9d1XQzhALQ-252" value="+ piccadilly(position: int): Square" style="text;strokeColor=none;fillColor=none;align=left;verticalAlign=top;spacingLeft=4;spacingRight=4;overflow=hidden;rotatable=0;points=[[0,0.5],[1,0.5]];portConstraint=eastwest;" vertex="1" parent="0UR9MXXXDw9d1XQzhALQ-208">
          <mxGeometry y="1126" width="240" height="26" as="geometry" />
        </mxCell>
        <mxCell id="0UR9MXXXDw9d1XQzhALQ-253" value="+ regent(position: int): Square" style="text;strokeColor=none;fillColor=none;align=left;verticalAlign=top;spacingLeft=4;spacingRight=4;overflow=hidden;rotatable=0;points=[[0,0.5],[1,0.5]];portConstraint=eastwest;" vertex="1" parent="0UR9MXXXDw9d1XQzhALQ-208">
          <mxGeometry y="1152" width="240" height="26" as="geometry" />
        </mxCell>
        <mxCell id="0UR9MXXXDw9d1XQzhALQ-254" value="+ oxford(position: int): Square" style="text;strokeColor=none;fillColor=none;align=left;verticalAlign=top;spacingLeft=4;spacingRight=4;overflow=hidden;rotatable=0;points=[[0,0.5],[1,0.5]];portConstraint=eastwest;" vertex="1" parent="0UR9MXXXDw9d1XQzhALQ-208">
          <mxGeometry y="1178" width="240" height="26" as="geometry" />
        </mxCell>
        <mxCell id="0UR9MXXXDw9d1XQzhALQ-255" value="+ bond(position: int): Square" style="text;strokeColor=none;fillColor=none;align=left;verticalAlign=top;spacingLeft=4;spacingRight=4;overflow=hidden;rotatable=0;points=[[0,0.5],[1,0.5]];portConstraint=eastwest;" vertex="1" parent="0UR9MXXXDw9d1XQzhALQ-208">
          <mxGeometry y="1204" width="240" height="26" as="geometry" />
        </mxCell>
        <mxCell id="0UR9MXXXDw9d1XQzhALQ-256" value="+ park(position: int): Square" style="text;strokeColor=none;fillColor=none;align=left;verticalAlign=top;spacingLeft=4;spacingRight=4;overflow=hidden;rotatable=0;points=[[0,0.5],[1,0.5]];portConstraint=eastwest;" vertex="1" parent="0UR9MXXXDw9d1XQzhALQ-208">
          <mxGeometry y="1230" width="240" height="26" as="geometry" />
        </mxCell>
        <mxCell id="0UR9MXXXDw9d1XQzhALQ-257" value="+ mayfair(position: int): Square" style="text;strokeColor=none;fillColor=none;align=left;verticalAlign=top;spacingLeft=4;spacingRight=4;overflow=hidden;rotatable=0;points=[[0,0.5],[1,0.5]];portConstraint=eastwest;" vertex="1" parent="0UR9MXXXDw9d1XQzhALQ-208">
          <mxGeometry y="1256" width="240" height="26" as="geometry" />
        </mxCell>
        <mxCell id="0UR9MXXXDw9d1XQzhALQ-258" value="Input" style="swimlane;fontStyle=1;align=center;verticalAlign=top;childLayout=stackLayout;horizontal=1;startSize=26;horizontalStack=0;resizeParent=1;resizeParentMax=0;resizeLast=0;collapsible=1;marginBottom=0;" vertex="1" parent="1">
          <mxGeometry x="-1870" y="927" width="210" height="190" as="geometry" />
        </mxCell>
        <mxCell id="0UR9MXXXDw9d1XQzhALQ-259" value="- scanner: Scanner" style="text;strokeColor=none;fillColor=none;align=left;verticalAlign=top;spacingLeft=4;spacingRight=4;overflow=hidden;rotatable=0;points=[[0,0.5],[1,0.5]];portConstraint=eastwest;" vertex="1" parent="0UR9MXXXDw9d1XQzhALQ-258">
          <mxGeometry y="26" width="210" height="26" as="geometry" />
        </mxCell>
        <mxCell id="0UR9MXXXDw9d1XQzhALQ-260" value="" style="line;strokeWidth=1;fillColor=none;align=left;verticalAlign=middle;spacingTop=-1;spacingLeft=3;spacingRight=3;rotatable=0;labelPosition=right;points=[];portConstraint=eastwest;" vertex="1" parent="0UR9MXXXDw9d1XQzhALQ-258">
          <mxGeometry y="52" width="210" height="8" as="geometry" />
        </mxCell>
        <mxCell id="0UR9MXXXDw9d1XQzhALQ-261" value="+ Input()" style="text;strokeColor=none;fillColor=none;align=left;verticalAlign=top;spacingLeft=4;spacingRight=4;overflow=hidden;rotatable=0;points=[[0,0.5],[1,0.5]];portConstraint=eastwest;" vertex="1" parent="0UR9MXXXDw9d1XQzhALQ-258">
          <mxGeometry y="60" width="210" height="26" as="geometry" />
        </mxCell>
        <mxCell id="0UR9MXXXDw9d1XQzhALQ-262" value="+ inputString(): String" style="text;strokeColor=none;fillColor=none;align=left;verticalAlign=top;spacingLeft=4;spacingRight=4;overflow=hidden;rotatable=0;points=[[0,0.5],[1,0.5]];portConstraint=eastwest;" vertex="1" parent="0UR9MXXXDw9d1XQzhALQ-258">
          <mxGeometry y="86" width="210" height="26" as="geometry" />
        </mxCell>
        <mxCell id="0UR9MXXXDw9d1XQzhALQ-263" value="+ inputBool(): boolean" style="text;strokeColor=none;fillColor=none;align=left;verticalAlign=top;spacingLeft=4;spacingRight=4;overflow=hidden;rotatable=0;points=[[0,0.5],[1,0.5]];portConstraint=eastwest;" vertex="1" parent="0UR9MXXXDw9d1XQzhALQ-258">
          <mxGeometry y="112" width="210" height="26" as="geometry" />
        </mxCell>
        <mxCell id="0UR9MXXXDw9d1XQzhALQ-264" value="+ inputDecision(choices: String[]): int " style="text;strokeColor=none;fillColor=none;align=left;verticalAlign=top;spacingLeft=4;spacingRight=4;overflow=hidden;rotatable=0;points=[[0,0.5],[1,0.5]];portConstraint=eastwest;" vertex="1" parent="0UR9MXXXDw9d1XQzhALQ-258">
          <mxGeometry y="138" width="210" height="26" as="geometry" />
        </mxCell>
        <mxCell id="0UR9MXXXDw9d1XQzhALQ-265" value="+ inputInt(): int" style="text;strokeColor=none;fillColor=none;align=left;verticalAlign=top;spacingLeft=4;spacingRight=4;overflow=hidden;rotatable=0;points=[[0,0.5],[1,0.5]];portConstraint=eastwest;" vertex="1" parent="0UR9MXXXDw9d1XQzhALQ-258">
          <mxGeometry y="164" width="210" height="26" as="geometry" />
        </mxCell>
        <mxCell id="0UR9MXXXDw9d1XQzhALQ-266" value="Monopoly" style="swimlane;fontStyle=1;align=center;verticalAlign=top;childLayout=stackLayout;horizontal=1;startSize=26;horizontalStack=0;resizeParent=1;resizeParentMax=0;resizeLast=0;collapsible=1;marginBottom=0;" vertex="1" parent="1">
          <mxGeometry x="-2320" y="687" width="390" height="606" as="geometry" />
        </mxCell>
        <mxCell id="0UR9MXXXDw9d1XQzhALQ-267" value="- rollDice: RollDice" style="text;strokeColor=none;fillColor=none;align=left;verticalAlign=top;spacingLeft=4;spacingRight=4;overflow=hidden;rotatable=0;points=[[0,0.5],[1,0.5]];portConstraint=eastwest;" vertex="1" parent="0UR9MXXXDw9d1XQzhALQ-266">
          <mxGeometry y="26" width="390" height="26" as="geometry" />
        </mxCell>
        <mxCell id="0UR9MXXXDw9d1XQzhALQ-268" value="- gameState: GameState" style="text;strokeColor=none;fillColor=none;align=left;verticalAlign=top;spacingLeft=4;spacingRight=4;overflow=hidden;rotatable=0;points=[[0,0.5],[1,0.5]];portConstraint=eastwest;" vertex="1" parent="0UR9MXXXDw9d1XQzhALQ-266">
          <mxGeometry y="52" width="390" height="26" as="geometry" />
        </mxCell>
        <mxCell id="0UR9MXXXDw9d1XQzhALQ-269" value="- isBankrupt: boolean" style="text;strokeColor=none;fillColor=none;align=left;verticalAlign=top;spacingLeft=4;spacingRight=4;overflow=hidden;rotatable=0;points=[[0,0.5],[1,0.5]];portConstraint=eastwest;" vertex="1" parent="0UR9MXXXDw9d1XQzhALQ-266">
          <mxGeometry y="78" width="390" height="26" as="geometry" />
        </mxCell>
        <mxCell id="0UR9MXXXDw9d1XQzhALQ-270" value="" style="line;strokeWidth=1;fillColor=none;align=left;verticalAlign=middle;spacingTop=-1;spacingLeft=3;spacingRight=3;rotatable=0;labelPosition=right;points=[];portConstraint=eastwest;" vertex="1" parent="0UR9MXXXDw9d1XQzhALQ-266">
          <mxGeometry y="104" width="390" height="8" as="geometry" />
        </mxCell>
        <mxCell id="0UR9MXXXDw9d1XQzhALQ-271" value="+ Monopoly()" style="text;strokeColor=none;fillColor=none;align=left;verticalAlign=top;spacingLeft=4;spacingRight=4;overflow=hidden;rotatable=0;points=[[0,0.5],[1,0.5]];portConstraint=eastwest;" vertex="1" parent="0UR9MXXXDw9d1XQzhALQ-266">
          <mxGeometry y="112" width="390" height="26" as="geometry" />
        </mxCell>
        <mxCell id="0UR9MXXXDw9d1XQzhALQ-272" value="+ DecisionState: enum" style="text;strokeColor=none;fillColor=none;align=left;verticalAlign=top;spacingLeft=4;spacingRight=4;overflow=hidden;rotatable=0;points=[[0,0.5],[1,0.5]];portConstraint=eastwest;" vertex="1" parent="0UR9MXXXDw9d1XQzhALQ-266">
          <mxGeometry y="138" width="390" height="26" as="geometry" />
        </mxCell>
        <mxCell id="0UR9MXXXDw9d1XQzhALQ-273" value="+ GameState: class" style="text;strokeColor=none;fillColor=none;align=left;verticalAlign=top;spacingLeft=4;spacingRight=4;overflow=hidden;rotatable=0;points=[[0,0.5],[1,0.5]];portConstraint=eastwest;" vertex="1" parent="0UR9MXXXDw9d1XQzhALQ-266">
          <mxGeometry y="164" width="390" height="26" as="geometry" />
        </mxCell>
        <mxCell id="0UR9MXXXDw9d1XQzhALQ-274" value="+ play(): void" style="text;strokeColor=none;fillColor=none;align=left;verticalAlign=top;spacingLeft=4;spacingRight=4;overflow=hidden;rotatable=0;points=[[0,0.5],[1,0.5]];portConstraint=eastwest;" vertex="1" parent="0UR9MXXXDw9d1XQzhALQ-266">
          <mxGeometry y="190" width="390" height="26" as="geometry" />
        </mxCell>
        <mxCell id="0UR9MXXXDw9d1XQzhALQ-275" value="+ initializePlayers(input: Input): void" style="text;strokeColor=none;fillColor=none;align=left;verticalAlign=top;spacingLeft=4;spacingRight=4;overflow=hidden;rotatable=0;points=[[0,0.5],[1,0.5]];portConstraint=eastwest;" vertex="1" parent="0UR9MXXXDw9d1XQzhALQ-266">
          <mxGeometry y="216" width="390" height="26" as="geometry" />
        </mxCell>
        <mxCell id="0UR9MXXXDw9d1XQzhALQ-276" value="+ turn(): void" style="text;strokeColor=none;fillColor=none;align=left;verticalAlign=top;spacingLeft=4;spacingRight=4;overflow=hidden;rotatable=0;points=[[0,0.5],[1,0.5]];portConstraint=eastwest;" vertex="1" parent="0UR9MXXXDw9d1XQzhALQ-266">
          <mxGeometry y="242" width="390" height="26" as="geometry" />
        </mxCell>
        <mxCell id="0UR9MXXXDw9d1XQzhALQ-277" value="+ printState(): void" style="text;strokeColor=none;fillColor=none;align=left;verticalAlign=top;spacingLeft=4;spacingRight=4;overflow=hidden;rotatable=0;points=[[0,0.5],[1,0.5]];portConstraint=eastwest;" vertex="1" parent="0UR9MXXXDw9d1XQzhALQ-266">
          <mxGeometry y="268" width="390" height="26" as="geometry" />
        </mxCell>
        <mxCell id="0UR9MXXXDw9d1XQzhALQ-278" value="+ handleSquare(player: Player, square: Square, roll: int)" style="text;strokeColor=none;fillColor=none;align=left;verticalAlign=top;spacingLeft=4;spacingRight=4;overflow=hidden;rotatable=0;points=[[0,0.5],[1,0.5]];portConstraint=eastwest;" vertex="1" parent="0UR9MXXXDw9d1XQzhALQ-266">
          <mxGeometry y="294" width="390" height="26" as="geometry" />
        </mxCell>
        <mxCell id="0UR9MXXXDw9d1XQzhALQ-279" value="+ buyHouse(player: Player): void" style="text;strokeColor=none;fillColor=none;align=left;verticalAlign=top;spacingLeft=4;spacingRight=4;overflow=hidden;rotatable=0;points=[[0,0.5],[1,0.5]];portConstraint=eastwest;" vertex="1" parent="0UR9MXXXDw9d1XQzhALQ-266">
          <mxGeometry y="320" width="390" height="26" as="geometry" />
        </mxCell>
        <mxCell id="0UR9MXXXDw9d1XQzhALQ-280" value="+ selectProperty(player: Player, properties: Queue&lt;Square&gt;): Square" style="text;strokeColor=none;fillColor=none;align=left;verticalAlign=top;spacingLeft=4;spacingRight=4;overflow=hidden;rotatable=0;points=[[0,0.5],[1,0.5]];portConstraint=eastwest;" vertex="1" parent="0UR9MXXXDw9d1XQzhALQ-266">
          <mxGeometry y="346" width="390" height="26" as="geometry" />
        </mxCell>
        <mxCell id="0UR9MXXXDw9d1XQzhALQ-281" value="+ unowned(player: Player, square: Square): void" style="text;strokeColor=none;fillColor=none;align=left;verticalAlign=top;spacingLeft=4;spacingRight=4;overflow=hidden;rotatable=0;points=[[0,0.5],[1,0.5]];portConstraint=eastwest;" vertex="1" parent="0UR9MXXXDw9d1XQzhALQ-266">
          <mxGeometry y="372" width="390" height="26" as="geometry" />
        </mxCell>
        <mxCell id="0UR9MXXXDw9d1XQzhALQ-282" value="+ buyProperty(player: Player, square: Square): void" style="text;strokeColor=none;fillColor=none;align=left;verticalAlign=top;spacingLeft=4;spacingRight=4;overflow=hidden;rotatable=0;points=[[0,0.5],[1,0.5]];portConstraint=eastwest;" vertex="1" parent="0UR9MXXXDw9d1XQzhALQ-266">
          <mxGeometry y="398" width="390" height="26" as="geometry" />
        </mxCell>
        <mxCell id="0UR9MXXXDw9d1XQzhALQ-283" value="+ owned(player: Player, square: Square, roll: int): void" style="text;strokeColor=none;fillColor=none;align=left;verticalAlign=top;spacingLeft=4;spacingRight=4;overflow=hidden;rotatable=0;points=[[0,0.5],[1,0.5]];portConstraint=eastwest;" vertex="1" parent="0UR9MXXXDw9d1XQzhALQ-266">
          <mxGeometry y="424" width="390" height="26" as="geometry" />
        </mxCell>
        <mxCell id="0UR9MXXXDw9d1XQzhALQ-284" value="+ payTax(player: Player, tax: Taxes, square: Square): void" style="text;strokeColor=none;fillColor=none;align=left;verticalAlign=top;spacingLeft=4;spacingRight=4;overflow=hidden;rotatable=0;points=[[0,0.5],[1,0.5]];portConstraint=eastwest;" vertex="1" parent="0UR9MXXXDw9d1XQzhALQ-266">
          <mxGeometry y="450" width="390" height="26" as="geometry" />
        </mxCell>
        <mxCell id="0UR9MXXXDw9d1XQzhALQ-285" value="+ railroadMove(player: Player): void" style="text;strokeColor=none;fillColor=none;align=left;verticalAlign=top;spacingLeft=4;spacingRight=4;overflow=hidden;rotatable=0;points=[[0,0.5],[1,0.5]];portConstraint=eastwest;" vertex="1" parent="0UR9MXXXDw9d1XQzhALQ-266">
          <mxGeometry y="476" width="390" height="26" as="geometry" />
        </mxCell>
        <mxCell id="0UR9MXXXDw9d1XQzhALQ-286" value="+ jailAction(player: Player, jail: Jail): void" style="text;strokeColor=none;fillColor=none;align=left;verticalAlign=top;spacingLeft=4;spacingRight=4;overflow=hidden;rotatable=0;points=[[0,0.5],[1,0.5]];portConstraint=eastwest;" vertex="1" parent="0UR9MXXXDw9d1XQzhALQ-266">
          <mxGeometry y="502" width="390" height="26" as="geometry" />
        </mxCell>
        <mxCell id="0UR9MXXXDw9d1XQzhALQ-287" value="+ intoJail(player: Player): void" style="text;strokeColor=none;fillColor=none;align=left;verticalAlign=top;spacingLeft=4;spacingRight=4;overflow=hidden;rotatable=0;points=[[0,0.5],[1,0.5]];portConstraint=eastwest;" vertex="1" parent="0UR9MXXXDw9d1XQzhALQ-266">
          <mxGeometry y="528" width="390" height="26" as="geometry" />
        </mxCell>
        <mxCell id="0UR9MXXXDw9d1XQzhALQ-288" value="+ leaveJail(player: Player): void" style="text;strokeColor=none;fillColor=none;align=left;verticalAlign=top;spacingLeft=4;spacingRight=4;overflow=hidden;rotatable=0;points=[[0,0.5],[1,0.5]];portConstraint=eastwest;" vertex="1" parent="0UR9MXXXDw9d1XQzhALQ-266">
          <mxGeometry y="554" width="390" height="26" as="geometry" />
        </mxCell>
        <mxCell id="0UR9MXXXDw9d1XQzhALQ-289" value="+ isBankrupt(): boolean" style="text;strokeColor=none;fillColor=none;align=left;verticalAlign=top;spacingLeft=4;spacingRight=4;overflow=hidden;rotatable=0;points=[[0,0.5],[1,0.5]];portConstraint=eastwest;" vertex="1" parent="0UR9MXXXDw9d1XQzhALQ-266">
          <mxGeometry y="580" width="390" height="26" as="geometry" />
        </mxCell>
        <mxCell id="0UR9MXXXDw9d1XQzhALQ-290" value="&lt;&lt;enumeration&gt;&gt;&#xa;DecisionState" style="swimlane;fontStyle=1;childLayout=stackLayout;horizontal=1;startSize=40;fillColor=none;horizontalStack=0;resizeParent=1;resizeParentMax=0;resizeLast=0;collapsible=1;marginBottom=0;" vertex="1" parent="1">
          <mxGeometry x="-2210" y="1346" width="140" height="170" as="geometry" />
        </mxCell>
        <mxCell id="0UR9MXXXDw9d1XQzhALQ-291" value="NONE" style="text;strokeColor=none;fillColor=none;align=left;verticalAlign=top;spacingLeft=4;spacingRight=4;overflow=hidden;rotatable=0;points=[[0,0.5],[1,0.5]];portConstraint=eastwest;" vertex="1" parent="0UR9MXXXDw9d1XQzhALQ-290">
          <mxGeometry y="40" width="140" height="26" as="geometry" />
        </mxCell>
        <mxCell id="0UR9MXXXDw9d1XQzhALQ-292" value="BUY_PROPERTY" style="text;strokeColor=none;fillColor=none;align=left;verticalAlign=top;spacingLeft=4;spacingRight=4;overflow=hidden;rotatable=0;points=[[0,0.5],[1,0.5]];portConstraint=eastwest;" vertex="1" parent="0UR9MXXXDw9d1XQzhALQ-290">
          <mxGeometry y="66" width="140" height="26" as="geometry" />
        </mxCell>
        <mxCell id="0UR9MXXXDw9d1XQzhALQ-293" value="BUY_HOUSE" style="text;strokeColor=none;fillColor=none;align=left;verticalAlign=top;spacingLeft=4;spacingRight=4;overflow=hidden;rotatable=0;points=[[0,0.5],[1,0.5]];portConstraint=eastwest;" vertex="1" parent="0UR9MXXXDw9d1XQzhALQ-290">
          <mxGeometry y="92" width="140" height="26" as="geometry" />
        </mxCell>
        <mxCell id="0UR9MXXXDw9d1XQzhALQ-294" value="TURN_ACTION" style="text;strokeColor=none;fillColor=none;align=left;verticalAlign=top;spacingLeft=4;spacingRight=4;overflow=hidden;rotatable=0;points=[[0,0.5],[1,0.5]];portConstraint=eastwest;" vertex="1" parent="0UR9MXXXDw9d1XQzhALQ-290">
          <mxGeometry y="118" width="140" height="26" as="geometry" />
        </mxCell>
        <mxCell id="0UR9MXXXDw9d1XQzhALQ-295" value="INCOME_TAX" style="text;strokeColor=none;fillColor=none;align=left;verticalAlign=top;spacingLeft=4;spacingRight=4;overflow=hidden;rotatable=0;points=[[0,0.5],[1,0.5]];portConstraint=eastwest;" vertex="1" parent="0UR9MXXXDw9d1XQzhALQ-290">
          <mxGeometry y="144" width="140" height="26" as="geometry" />
        </mxCell>
        <mxCell id="0UR9MXXXDw9d1XQzhALQ-296" value="GameState" style="swimlane;fontStyle=1;align=center;verticalAlign=top;childLayout=stackLayout;horizontal=1;startSize=26;horizontalStack=0;resizeParent=1;resizeParentMax=0;resizeLast=0;collapsible=1;marginBottom=0;" vertex="1" parent="1">
          <mxGeometry x="-2240" y="500" width="200" height="138" as="geometry" />
        </mxCell>
        <mxCell id="0UR9MXXXDw9d1XQzhALQ-297" value="+ decisionState: DecisionState" style="text;strokeColor=none;fillColor=none;align=left;verticalAlign=top;spacingLeft=4;spacingRight=4;overflow=hidden;rotatable=0;points=[[0,0.5],[1,0.5]];portConstraint=eastwest;" vertex="1" parent="0UR9MXXXDw9d1XQzhALQ-296">
          <mxGeometry y="26" width="200" height="26" as="geometry" />
        </mxCell>
        <mxCell id="0UR9MXXXDw9d1XQzhALQ-298" value="+ players: Queue&lt;Player&gt;" style="text;strokeColor=none;fillColor=none;align=left;verticalAlign=top;spacingLeft=4;spacingRight=4;overflow=hidden;rotatable=0;points=[[0,0.5],[1,0.5]];portConstraint=eastwest;" vertex="1" parent="0UR9MXXXDw9d1XQzhALQ-296">
          <mxGeometry y="52" width="200" height="26" as="geometry" />
        </mxCell>
        <mxCell id="0UR9MXXXDw9d1XQzhALQ-299" value="+ GameBoard: gameBoard" style="text;strokeColor=none;fillColor=none;align=left;verticalAlign=top;spacingLeft=4;spacingRight=4;overflow=hidden;rotatable=0;points=[[0,0.5],[1,0.5]];portConstraint=eastwest;" vertex="1" parent="0UR9MXXXDw9d1XQzhALQ-296">
          <mxGeometry y="78" width="200" height="26" as="geometry" />
        </mxCell>
        <mxCell id="0UR9MXXXDw9d1XQzhALQ-300" value="+ currentPlayer: Player" style="text;strokeColor=none;fillColor=none;align=left;verticalAlign=top;spacingLeft=4;spacingRight=4;overflow=hidden;rotatable=0;points=[[0,0.5],[1,0.5]];portConstraint=eastwest;" vertex="1" parent="0UR9MXXXDw9d1XQzhALQ-296">
          <mxGeometry y="104" width="200" height="26" as="geometry" />
        </mxCell>
        <mxCell id="0UR9MXXXDw9d1XQzhALQ-301" value="" style="line;strokeWidth=1;fillColor=none;align=left;verticalAlign=middle;spacingTop=-1;spacingLeft=3;spacingRight=3;rotatable=0;labelPosition=right;points=[];portConstraint=eastwest;" vertex="1" parent="0UR9MXXXDw9d1XQzhALQ-296">
          <mxGeometry y="130" width="200" height="8" as="geometry" />
        </mxCell>
        <mxCell id="0UR9MXXXDw9d1XQzhALQ-302" value="" style="endArrow=diamondThin;endFill=0;endSize=24;html=1;rounded=0;" edge="1" parent="1" source="0UR9MXXXDw9d1XQzhALQ-258" target="0UR9MXXXDw9d1XQzhALQ-266">
          <mxGeometry width="160" relative="1" as="geometry">
            <mxPoint x="-2250" y="1074.5" as="sourcePoint" />
            <mxPoint x="-2090" y="1074.5" as="targetPoint" />
          </mxGeometry>
        </mxCell>
        <mxCell id="0UR9MXXXDw9d1XQzhALQ-303" value="" style="endArrow=diamondThin;endFill=0;endSize=24;html=1;rounded=0;" edge="1" parent="1" source="0UR9MXXXDw9d1XQzhALQ-36" target="0UR9MXXXDw9d1XQzhALQ-266">
          <mxGeometry width="160" relative="1" as="geometry">
            <mxPoint x="-2355" y="1345" as="sourcePoint" />
            <mxPoint x="-2465" y="1345" as="targetPoint" />
          </mxGeometry>
        </mxCell>
        <mxCell id="0UR9MXXXDw9d1XQzhALQ-304" value="" style="endArrow=diamondThin;endFill=1;endSize=24;html=1;rounded=0;" edge="1" parent="1" source="0UR9MXXXDw9d1XQzhALQ-296" target="0UR9MXXXDw9d1XQzhALQ-266">
          <mxGeometry width="160" relative="1" as="geometry">
            <mxPoint x="-2060" y="887" as="sourcePoint" />
            <mxPoint x="-2050" y="667" as="targetPoint" />
          </mxGeometry>
        </mxCell>
        <mxCell id="0UR9MXXXDw9d1XQzhALQ-305" value="&lt;b&gt;SYSC 3110 - Milestone 3&lt;/b&gt;&lt;br&gt;&lt;b&gt;Group 17&lt;/b&gt;&lt;br&gt;&lt;b&gt;Members:&lt;/b&gt;&lt;br&gt;Trong Nguyen 100848232 &lt;br&gt;Francisco De Grano 101147447 &lt;br&gt;Ibrahim Almalki 101142978 &lt;br&gt;Elisha Catherasoo&amp;nbsp;101148507&lt;br&gt;&lt;b&gt;Date: &lt;/b&gt;Nov. 22, 2021" style="text;html=1;strokeColor=none;fillColor=none;align=left;verticalAlign=middle;whiteSpace=wrap;rounded=0;" vertex="1" parent="1">
          <mxGeometry x="-3810" y="2387" width="200" height="130" as="geometry" />
        </mxCell>
        <mxCell id="0UR9MXXXDw9d1XQzhALQ-306" value="" style="endArrow=block;dashed=1;endFill=0;endSize=12;html=1;rounded=0;" edge="1" parent="1" source="0UR9MXXXDw9d1XQzhALQ-44" target="0UR9MXXXDw9d1XQzhALQ-19">
          <mxGeometry width="160" relative="1" as="geometry">
            <mxPoint x="-3090" y="787" as="sourcePoint" />
            <mxPoint x="-2930" y="787" as="targetPoint" />
          </mxGeometry>
        </mxCell>
        <mxCell id="0UR9MXXXDw9d1XQzhALQ-307" value="" style="endArrow=block;dashed=1;endFill=0;endSize=12;html=1;rounded=0;" edge="1" parent="1" target="0UR9MXXXDw9d1XQzhALQ-1">
          <mxGeometry width="160" relative="1" as="geometry">
            <mxPoint x="-490" y="718" as="sourcePoint" />
            <mxPoint x="-630" y="717" as="targetPoint" />
          </mxGeometry>
        </mxCell>
        <mxCell id="0UR9MXXXDw9d1XQzhALQ-308" value="" style="endArrow=block;dashed=1;endFill=0;endSize=12;html=1;rounded=0;" edge="1" parent="1" source="0UR9MXXXDw9d1XQzhALQ-36" target="0UR9MXXXDw9d1XQzhALQ-13">
          <mxGeometry width="160" relative="1" as="geometry">
            <mxPoint x="-2330" y="967" as="sourcePoint" />
            <mxPoint x="-2170" y="967" as="targetPoint" />
          </mxGeometry>
        </mxCell>
        <mxCell id="0UR9MXXXDw9d1XQzhALQ-309" value="" style="endArrow=diamondThin;endFill=0;endSize=24;html=1;rounded=0;" edge="1" parent="1" source="0UR9MXXXDw9d1XQzhALQ-1" target="0UR9MXXXDw9d1XQzhALQ-213">
          <mxGeometry width="160" relative="1" as="geometry">
            <mxPoint x="-1170" y="527" as="sourcePoint" />
            <mxPoint x="-1010" y="527" as="targetPoint" />
          </mxGeometry>
        </mxCell>
        <mxCell id="0UR9MXXXDw9d1XQzhALQ-310" value="" style="endArrow=diamondThin;endFill=0;endSize=24;html=1;rounded=0;" edge="1" parent="1" source="0UR9MXXXDw9d1XQzhALQ-19" target="0UR9MXXXDw9d1XQzhALQ-296">
          <mxGeometry width="160" relative="1" as="geometry">
            <mxPoint x="-2230" y="687" as="sourcePoint" />
            <mxPoint x="-2070" y="687" as="targetPoint" />
          </mxGeometry>
        </mxCell>
        <mxCell id="0UR9MXXXDw9d1XQzhALQ-311" value="" style="endArrow=diamondThin;endFill=0;endSize=24;html=1;rounded=0;" edge="1" parent="1" source="0UR9MXXXDw9d1XQzhALQ-216" target="0UR9MXXXDw9d1XQzhALQ-296">
          <mxGeometry width="160" relative="1" as="geometry">
            <mxPoint x="-1980" y="777" as="sourcePoint" />
            <mxPoint x="-1820" y="777" as="targetPoint" />
          </mxGeometry>
        </mxCell>
        <mxCell id="0UR9MXXXDw9d1XQzhALQ-312" value="" style="endArrow=none;html=1;rounded=0;" edge="1" parent="1" source="0UR9MXXXDw9d1XQzhALQ-290" target="0UR9MXXXDw9d1XQzhALQ-266">
          <mxGeometry width="50" height="50" relative="1" as="geometry">
            <mxPoint x="-1870" y="1087" as="sourcePoint" />
            <mxPoint x="-1820" y="1037" as="targetPoint" />
          </mxGeometry>
        </mxCell>
        <mxCell id="0UR9MXXXDw9d1XQzhALQ-313" value="" style="endArrow=none;html=1;rounded=0;" edge="1" parent="1" source="0UR9MXXXDw9d1XQzhALQ-204" target="0UR9MXXXDw9d1XQzhALQ-139">
          <mxGeometry width="50" height="50" relative="1" as="geometry">
            <mxPoint x="-1870" y="1087" as="sourcePoint" />
            <mxPoint x="-1820" y="1037" as="targetPoint" />
          </mxGeometry>
        </mxCell>
        <mxCell id="0UR9MXXXDw9d1XQzhALQ-314" value="MonopolyGUI" style="swimlane;fontStyle=1;align=center;verticalAlign=top;childLayout=stackLayout;horizontal=1;startSize=26;horizontalStack=0;resizeParent=1;resizeParentMax=0;resizeLast=0;collapsible=1;marginBottom=0;" vertex="1" parent="1">
          <mxGeometry x="-2710" y="1728" width="340" height="1204" as="geometry" />
        </mxCell>
        <mxCell id="0UR9MXXXDw9d1XQzhALQ-315" value="- monopoly: Monopoly" style="text;strokeColor=none;fillColor=none;align=left;verticalAlign=top;spacingLeft=4;spacingRight=4;overflow=hidden;rotatable=0;points=[[0,0.5],[1,0.5]];portConstraint=eastwest;" vertex="1" parent="0UR9MXXXDw9d1XQzhALQ-314">
          <mxGeometry y="26" width="340" height="26" as="geometry" />
        </mxCell>
        <mxCell id="0UR9MXXXDw9d1XQzhALQ-316" value="- controller: MonopolyController = new MonopolyController()" style="text;strokeColor=none;fillColor=none;align=left;verticalAlign=top;spacingLeft=4;spacingRight=4;overflow=hidden;rotatable=0;points=[[0,0.5],[1,0.5]];portConstraint=eastwest;" vertex="1" parent="0UR9MXXXDw9d1XQzhALQ-314">
          <mxGeometry y="52" width="340" height="26" as="geometry" />
        </mxCell>
        <mxCell id="0UR9MXXXDw9d1XQzhALQ-317" value="- playerList: LinkedList&lt;Player&gt;" style="text;strokeColor=none;fillColor=none;align=left;verticalAlign=top;spacingLeft=4;spacingRight=4;overflow=hidden;rotatable=0;points=[[0,0.5],[1,0.5]];portConstraint=eastwest;" vertex="1" parent="0UR9MXXXDw9d1XQzhALQ-314">
          <mxGeometry y="78" width="340" height="26" as="geometry" />
        </mxCell>
        <mxCell id="0UR9MXXXDw9d1XQzhALQ-318" value="- gameBoard: GameBoardGUI" style="text;strokeColor=none;fillColor=none;align=left;verticalAlign=top;spacingLeft=4;spacingRight=4;overflow=hidden;rotatable=0;points=[[0,0.5],[1,0.5]];portConstraint=eastwest;" vertex="1" parent="0UR9MXXXDw9d1XQzhALQ-314">
          <mxGeometry y="104" width="340" height="26" as="geometry" />
        </mxCell>
        <mxCell id="0UR9MXXXDw9d1XQzhALQ-319" value="- infoConsole: JTextArea" style="text;strokeColor=none;fillColor=none;align=left;verticalAlign=top;spacingLeft=4;spacingRight=4;overflow=hidden;rotatable=0;points=[[0,0.5],[1,0.5]];portConstraint=eastwest;fontStyle=4" vertex="1" parent="0UR9MXXXDw9d1XQzhALQ-314">
          <mxGeometry y="130" width="340" height="26" as="geometry" />
        </mxCell>
        <mxCell id="0UR9MXXXDw9d1XQzhALQ-320" value="- currentPlayerOrder: int" style="text;strokeColor=none;fillColor=none;align=left;verticalAlign=top;spacingLeft=4;spacingRight=4;overflow=hidden;rotatable=0;points=[[0,0.5],[1,0.5]];portConstraint=eastwest;" vertex="1" parent="0UR9MXXXDw9d1XQzhALQ-314">
          <mxGeometry y="156" width="340" height="26" as="geometry" />
        </mxCell>
        <mxCell id="0UR9MXXXDw9d1XQzhALQ-321" value="- currentSquareNumber: int" style="text;strokeColor=none;fillColor=none;align=left;verticalAlign=top;spacingLeft=4;spacingRight=4;overflow=hidden;rotatable=0;points=[[0,0.5],[1,0.5]];portConstraint=eastwest;" vertex="1" parent="0UR9MXXXDw9d1XQzhALQ-314">
          <mxGeometry y="182" width="340" height="26" as="geometry" />
        </mxCell>
        <mxCell id="0UR9MXXXDw9d1XQzhALQ-322" value="- playersGUI: ArrayList&lt;PlayerGUI&gt; = new ArrayList()" style="text;strokeColor=none;fillColor=none;align=left;verticalAlign=top;spacingLeft=4;spacingRight=4;overflow=hidden;rotatable=0;points=[[0,0.5],[1,0.5]];portConstraint=eastwest;" vertex="1" parent="0UR9MXXXDw9d1XQzhALQ-314">
          <mxGeometry y="208" width="340" height="26" as="geometry" />
        </mxCell>
        <mxCell id="0UR9MXXXDw9d1XQzhALQ-323" value="- die1: DiceGUI" style="text;strokeColor=none;fillColor=none;align=left;verticalAlign=top;spacingLeft=4;spacingRight=4;overflow=hidden;rotatable=0;points=[[0,0.5],[1,0.5]];portConstraint=eastwest;" vertex="1" parent="0UR9MXXXDw9d1XQzhALQ-314">
          <mxGeometry y="234" width="340" height="26" as="geometry" />
        </mxCell>
        <mxCell id="0UR9MXXXDw9d1XQzhALQ-324" value="- die2: DiceGUI" style="text;strokeColor=none;fillColor=none;align=left;verticalAlign=top;spacingLeft=4;spacingRight=4;overflow=hidden;rotatable=0;points=[[0,0.5],[1,0.5]];portConstraint=eastwest;" vertex="1" parent="0UR9MXXXDw9d1XQzhALQ-314">
          <mxGeometry y="260" width="340" height="26" as="geometry" />
        </mxCell>
        <mxCell id="0UR9MXXXDw9d1XQzhALQ-325" value="- isDouble: Boolean = false" style="text;strokeColor=none;fillColor=none;align=left;verticalAlign=top;spacingLeft=4;spacingRight=4;overflow=hidden;rotatable=0;points=[[0,0.5],[1,0.5]];portConstraint=eastwest;" vertex="1" parent="0UR9MXXXDw9d1XQzhALQ-314">
          <mxGeometry y="286" width="340" height="26" as="geometry" />
        </mxCell>
        <mxCell id="0UR9MXXXDw9d1XQzhALQ-326" value="- doubles: int = 0" style="text;strokeColor=none;fillColor=none;align=left;verticalAlign=top;spacingLeft=4;spacingRight=4;overflow=hidden;rotatable=0;points=[[0,0.5],[1,0.5]];portConstraint=eastwest;" vertex="1" parent="0UR9MXXXDw9d1XQzhALQ-314">
          <mxGeometry y="312" width="340" height="26" as="geometry" />
        </mxCell>
        <mxCell id="0UR9MXXXDw9d1XQzhALQ-327" value="- boxPanel: JPanel" style="text;strokeColor=none;fillColor=none;align=left;verticalAlign=top;spacingLeft=4;spacingRight=4;overflow=hidden;rotatable=0;points=[[0,0.5],[1,0.5]];portConstraint=eastwest;" vertex="1" parent="0UR9MXXXDw9d1XQzhALQ-314">
          <mxGeometry y="338" width="340" height="26" as="geometry" />
        </mxCell>
        <mxCell id="0UR9MXXXDw9d1XQzhALQ-328" value="- leftLayeredPane: JLayeredPane" style="text;strokeColor=none;fillColor=none;align=left;verticalAlign=top;spacingLeft=4;spacingRight=4;overflow=hidden;rotatable=0;points=[[0,0.5],[1,0.5]];portConstraint=eastwest;" vertex="1" parent="0UR9MXXXDw9d1XQzhALQ-314">
          <mxGeometry y="364" width="340" height="26" as="geometry" />
        </mxCell>
        <mxCell id="0UR9MXXXDw9d1XQzhALQ-329" value="- rightLayeredPane: JLayeredPane" style="text;strokeColor=none;fillColor=none;align=left;verticalAlign=top;spacingLeft=4;spacingRight=4;overflow=hidden;rotatable=0;points=[[0,0.5],[1,0.5]];portConstraint=eastwest;" vertex="1" parent="0UR9MXXXDw9d1XQzhALQ-314">
          <mxGeometry y="390" width="340" height="26" as="geometry" />
        </mxCell>
        <mxCell id="0UR9MXXXDw9d1XQzhALQ-330" value="- playerAssetsPanel: JPanel " style="text;strokeColor=none;fillColor=none;align=left;verticalAlign=top;spacingLeft=4;spacingRight=4;overflow=hidden;rotatable=0;points=[[0,0.5],[1,0.5]];portConstraint=eastwest;" vertex="1" parent="0UR9MXXXDw9d1XQzhALQ-314">
          <mxGeometry y="416" width="340" height="26" as="geometry" />
        </mxCell>
        <mxCell id="0UR9MXXXDw9d1XQzhALQ-331" value="- panelPlayerTextAread: JTextArea" style="text;strokeColor=none;fillColor=none;align=left;verticalAlign=top;spacingLeft=4;spacingRight=4;overflow=hidden;rotatable=0;points=[[0,0.5],[1,0.5]];portConstraint=eastwest;" vertex="1" parent="0UR9MXXXDw9d1XQzhALQ-314">
          <mxGeometry y="442" width="340" height="26" as="geometry" />
        </mxCell>
        <mxCell id="0UR9MXXXDw9d1XQzhALQ-332" value="- cardLayout: CardLayout = new CardLayout()" style="text;strokeColor=none;fillColor=none;align=left;verticalAlign=top;spacingLeft=4;spacingRight=4;overflow=hidden;rotatable=0;points=[[0,0.5],[1,0.5]];portConstraint=eastwest;" vertex="1" parent="0UR9MXXXDw9d1XQzhALQ-314">
          <mxGeometry y="468" width="340" height="26" as="geometry" />
        </mxCell>
        <mxCell id="0UR9MXXXDw9d1XQzhALQ-333" value="- buttonNextTurn: JButton" style="text;strokeColor=none;fillColor=none;align=left;verticalAlign=top;spacingLeft=4;spacingRight=4;overflow=hidden;rotatable=0;points=[[0,0.5],[1,0.5]];portConstraint=eastwest;" vertex="1" parent="0UR9MXXXDw9d1XQzhALQ-314">
          <mxGeometry y="494" width="340" height="26" as="geometry" />
        </mxCell>
        <mxCell id="0UR9MXXXDw9d1XQzhALQ-334" value="- buttonPayRent: JButton" style="text;strokeColor=none;fillColor=none;align=left;verticalAlign=top;spacingLeft=4;spacingRight=4;overflow=hidden;rotatable=0;points=[[0,0.5],[1,0.5]];portConstraint=eastwest;" vertex="1" parent="0UR9MXXXDw9d1XQzhALQ-314">
          <mxGeometry y="520" width="340" height="26" as="geometry" />
        </mxCell>
        <mxCell id="0UR9MXXXDw9d1XQzhALQ-335" value="- buttonRollDice: JButton" style="text;strokeColor=none;fillColor=none;align=left;verticalAlign=top;spacingLeft=4;spacingRight=4;overflow=hidden;rotatable=0;points=[[0,0.5],[1,0.5]];portConstraint=eastwest;" vertex="1" parent="0UR9MXXXDw9d1XQzhALQ-314">
          <mxGeometry y="546" width="340" height="26" as="geometry" />
        </mxCell>
        <mxCell id="0UR9MXXXDw9d1XQzhALQ-336" value="- buttonBuy: JButton" style="text;strokeColor=none;fillColor=none;align=left;verticalAlign=top;spacingLeft=4;spacingRight=4;overflow=hidden;rotatable=0;points=[[0,0.5],[1,0.5]];portConstraint=eastwest;" vertex="1" parent="0UR9MXXXDw9d1XQzhALQ-314">
          <mxGeometry y="572" width="340" height="26" as="geometry" />
        </mxCell>
        <mxCell id="0UR9MXXXDw9d1XQzhALQ-337" value="- buttonRunCPU: JButton" style="text;strokeColor=none;fillColor=none;align=left;verticalAlign=top;spacingLeft=4;spacingRight=4;overflow=hidden;rotatable=0;points=[[0,0.5],[1,0.5]];portConstraint=eastwest;" vertex="1" parent="0UR9MXXXDw9d1XQzhALQ-314">
          <mxGeometry y="598" width="340" height="26" as="geometry" />
        </mxCell>
        <mxCell id="0UR9MXXXDw9d1XQzhALQ-338" value="- firstRoll: boolean = true" style="text;strokeColor=none;fillColor=none;align=left;verticalAlign=top;spacingLeft=4;spacingRight=4;overflow=hidden;rotatable=0;points=[[0,0.5],[1,0.5]];portConstraint=eastwest;" vertex="1" parent="0UR9MXXXDw9d1XQzhALQ-314">
          <mxGeometry y="624" width="340" height="26" as="geometry" />
        </mxCell>
        <mxCell id="0UR9MXXXDw9d1XQzhALQ-339" value="- playerTokenColors: Color[] " style="text;strokeColor=none;fillColor=none;align=left;verticalAlign=top;spacingLeft=4;spacingRight=4;overflow=hidden;rotatable=0;points=[[0,0.5],[1,0.5]];portConstraint=eastwest;" vertex="1" parent="0UR9MXXXDw9d1XQzhALQ-314">
          <mxGeometry y="650" width="340" height="26" as="geometry" />
        </mxCell>
        <mxCell id="0UR9MXXXDw9d1XQzhALQ-340" value="" style="line;strokeWidth=1;fillColor=none;align=left;verticalAlign=middle;spacingTop=-1;spacingLeft=3;spacingRight=3;rotatable=0;labelPosition=right;points=[];portConstraint=eastwest;" vertex="1" parent="0UR9MXXXDw9d1XQzhALQ-314">
          <mxGeometry y="676" width="340" height="8" as="geometry" />
        </mxCell>
        <mxCell id="0UR9MXXXDw9d1XQzhALQ-341" value="+ MonopolyGUI()" style="text;strokeColor=none;fillColor=none;align=left;verticalAlign=top;spacingLeft=4;spacingRight=4;overflow=hidden;rotatable=0;points=[[0,0.5],[1,0.5]];portConstraint=eastwest;fontStyle=0" vertex="1" parent="0UR9MXXXDw9d1XQzhALQ-314">
          <mxGeometry y="684" width="340" height="26" as="geometry" />
        </mxCell>
        <mxCell id="0UR9MXXXDw9d1XQzhALQ-342" value="- setupBoard(): void" style="text;strokeColor=none;fillColor=none;align=left;verticalAlign=top;spacingLeft=4;spacingRight=4;overflow=hidden;rotatable=0;points=[[0,0.5],[1,0.5]];portConstraint=eastwest;fontStyle=0" vertex="1" parent="0UR9MXXXDw9d1XQzhALQ-314">
          <mxGeometry y="710" width="340" height="26" as="geometry" />
        </mxCell>
        <mxCell id="0UR9MXXXDw9d1XQzhALQ-343" value="- setupDice(): void" style="text;strokeColor=none;fillColor=none;align=left;verticalAlign=top;spacingLeft=4;spacingRight=4;overflow=hidden;rotatable=0;points=[[0,0.5],[1,0.5]];portConstraint=eastwest;" vertex="1" parent="0UR9MXXXDw9d1XQzhALQ-314">
          <mxGeometry y="736" width="340" height="26" as="geometry" />
        </mxCell>
        <mxCell id="0UR9MXXXDw9d1XQzhALQ-344" value="- setupRollButton(): void" style="text;strokeColor=none;fillColor=none;align=left;verticalAlign=top;spacingLeft=4;spacingRight=4;overflow=hidden;rotatable=0;points=[[0,0.5],[1,0.5]];portConstraint=eastwest;" vertex="1" parent="0UR9MXXXDw9d1XQzhALQ-314">
          <mxGeometry y="762" width="340" height="26" as="geometry" />
        </mxCell>
        <mxCell id="0UR9MXXXDw9d1XQzhALQ-345" value="- setupButtons(): void" style="text;strokeColor=none;fillColor=none;align=left;verticalAlign=top;spacingLeft=4;spacingRight=4;overflow=hidden;rotatable=0;points=[[0,0.5],[1,0.5]];portConstraint=eastwest;" vertex="1" parent="0UR9MXXXDw9d1XQzhALQ-314">
          <mxGeometry y="788" width="340" height="26" as="geometry" />
        </mxCell>
        <mxCell id="0UR9MXXXDw9d1XQzhALQ-346" value="- setupPlayerToken(): void" style="text;strokeColor=none;fillColor=none;align=left;verticalAlign=top;spacingLeft=4;spacingRight=4;overflow=hidden;rotatable=0;points=[[0,0.5],[1,0.5]];portConstraint=eastwest;" vertex="1" parent="0UR9MXXXDw9d1XQzhALQ-314">
          <mxGeometry y="814" width="340" height="26" as="geometry" />
        </mxCell>
        <mxCell id="0UR9MXXXDw9d1XQzhALQ-347" value="- setupConsoleLog(): void" style="text;strokeColor=none;fillColor=none;align=left;verticalAlign=top;spacingLeft=4;spacingRight=4;overflow=hidden;rotatable=0;points=[[0,0.5],[1,0.5]];portConstraint=eastwest;" vertex="1" parent="0UR9MXXXDw9d1XQzhALQ-314">
          <mxGeometry y="840" width="340" height="26" as="geometry" />
        </mxCell>
        <mxCell id="0UR9MXXXDw9d1XQzhALQ-348" value="- initController(): void" style="text;strokeColor=none;fillColor=none;align=left;verticalAlign=top;spacingLeft=4;spacingRight=4;overflow=hidden;rotatable=0;points=[[0,0.5],[1,0.5]];portConstraint=eastwest;" vertex="1" parent="0UR9MXXXDw9d1XQzhALQ-314">
          <mxGeometry y="866" width="340" height="26" as="geometry" />
        </mxCell>
        <mxCell id="0UR9MXXXDw9d1XQzhALQ-349" value="- playerStatusPanel(playerNumber: int, color: Color): JPanel" style="text;strokeColor=none;fillColor=none;align=left;verticalAlign=top;spacingLeft=4;spacingRight=4;overflow=hidden;rotatable=0;points=[[0,0.5],[1,0.5]];portConstraint=eastwest;" vertex="1" parent="0UR9MXXXDw9d1XQzhALQ-314">
          <mxGeometry y="892" width="340" height="26" as="geometry" />
        </mxCell>
        <mxCell id="0UR9MXXXDw9d1XQzhALQ-350" value="- setupPlayerStatusWindow(): void" style="text;strokeColor=none;fillColor=none;align=left;verticalAlign=top;spacingLeft=4;spacingRight=4;overflow=hidden;rotatable=0;points=[[0,0.5],[1,0.5]];portConstraint=eastwest;" vertex="1" parent="0UR9MXXXDw9d1XQzhALQ-314">
          <mxGeometry y="918" width="340" height="26" as="geometry" />
        </mxCell>
        <mxCell id="0UR9MXXXDw9d1XQzhALQ-351" value="- updatePlayerStatusTextArea(): void" style="text;strokeColor=none;fillColor=none;align=left;verticalAlign=top;spacingLeft=4;spacingRight=4;overflow=hidden;rotatable=0;points=[[0,0.5],[1,0.5]];portConstraint=eastwest;" vertex="1" parent="0UR9MXXXDw9d1XQzhALQ-314">
          <mxGeometry y="944" width="340" height="26" as="geometry" />
        </mxCell>
        <mxCell id="0UR9MXXXDw9d1XQzhALQ-352" value="- updatePlayerList(): void" style="text;strokeColor=none;fillColor=none;align=left;verticalAlign=top;spacingLeft=4;spacingRight=4;overflow=hidden;rotatable=0;points=[[0,0.5],[1,0.5]];portConstraint=eastwest;" vertex="1" parent="0UR9MXXXDw9d1XQzhALQ-314">
          <mxGeometry y="970" width="340" height="26" as="geometry" />
        </mxCell>
        <mxCell id="0UR9MXXXDw9d1XQzhALQ-353" value="- isRollDouble(currentPlayerOrder: int): void" style="text;strokeColor=none;fillColor=none;align=left;verticalAlign=top;spacingLeft=4;spacingRight=4;overflow=hidden;rotatable=0;points=[[0,0.5],[1,0.5]];portConstraint=eastwest;" vertex="1" parent="0UR9MXXXDw9d1XQzhALQ-314">
          <mxGeometry y="996" width="340" height="26" as="geometry" />
        </mxCell>
        <mxCell id="0UR9MXXXDw9d1XQzhALQ-354" value="- buttonRollDice(): JButton" style="text;strokeColor=none;fillColor=none;align=left;verticalAlign=top;spacingLeft=4;spacingRight=4;overflow=hidden;rotatable=0;points=[[0,0.5],[1,0.5]];portConstraint=eastwest;" vertex="1" parent="0UR9MXXXDw9d1XQzhALQ-314">
          <mxGeometry y="1022" width="340" height="26" as="geometry" />
        </mxCell>
        <mxCell id="0UR9MXXXDw9d1XQzhALQ-355" value="- buttonNextTurn(): JButton" style="text;strokeColor=none;fillColor=none;align=left;verticalAlign=top;spacingLeft=4;spacingRight=4;overflow=hidden;rotatable=0;points=[[0,0.5],[1,0.5]];portConstraint=eastwest;" vertex="1" parent="0UR9MXXXDw9d1XQzhALQ-314">
          <mxGeometry y="1048" width="340" height="26" as="geometry" />
        </mxCell>
        <mxCell id="0UR9MXXXDw9d1XQzhALQ-356" value="- buttonBuy(): JButton" style="text;strokeColor=none;fillColor=none;align=left;verticalAlign=top;spacingLeft=4;spacingRight=4;overflow=hidden;rotatable=0;points=[[0,0.5],[1,0.5]];portConstraint=eastwest;" vertex="1" parent="0UR9MXXXDw9d1XQzhALQ-314">
          <mxGeometry y="1074" width="340" height="26" as="geometry" />
        </mxCell>
        <mxCell id="0UR9MXXXDw9d1XQzhALQ-357" value="- buttonPayRent(): JButton" style="text;strokeColor=none;fillColor=none;align=left;verticalAlign=top;spacingLeft=4;spacingRight=4;overflow=hidden;rotatable=0;points=[[0,0.5],[1,0.5]];portConstraint=eastwest;" vertex="1" parent="0UR9MXXXDw9d1XQzhALQ-314">
          <mxGeometry y="1100" width="340" height="26" as="geometry" />
        </mxCell>
        <mxCell id="0UR9MXXXDw9d1XQzhALQ-358" value="- buttonRunCPU(): JButton" style="text;strokeColor=none;fillColor=none;align=left;verticalAlign=top;spacingLeft=4;spacingRight=4;overflow=hidden;rotatable=0;points=[[0,0.5],[1,0.5]];portConstraint=eastwest;" vertex="1" parent="0UR9MXXXDw9d1XQzhALQ-314">
          <mxGeometry y="1126" width="340" height="26" as="geometry" />
        </mxCell>
        <mxCell id="0UR9MXXXDw9d1XQzhALQ-359" value="- rollDiceLogic(): void" style="text;strokeColor=none;fillColor=none;align=left;verticalAlign=top;spacingLeft=4;spacingRight=4;overflow=hidden;rotatable=0;points=[[0,0.5],[1,0.5]];portConstraint=eastwest;" vertex="1" parent="0UR9MXXXDw9d1XQzhALQ-314">
          <mxGeometry y="1152" width="340" height="26" as="geometry" />
        </mxCell>
        <mxCell id="0UR9MXXXDw9d1XQzhALQ-360" value="+ main (args: String[]): void" style="text;strokeColor=none;fillColor=none;align=left;verticalAlign=top;spacingLeft=4;spacingRight=4;overflow=hidden;rotatable=0;points=[[0,0.5],[1,0.5]];portConstraint=eastwest;fontStyle=4" vertex="1" parent="0UR9MXXXDw9d1XQzhALQ-314">
          <mxGeometry y="1178" width="340" height="26" as="geometry" />
        </mxCell>
        <mxCell id="0UR9MXXXDw9d1XQzhALQ-361" value="PlayerGUI" style="swimlane;fontStyle=1;align=center;verticalAlign=top;childLayout=stackLayout;horizontal=1;startSize=26;horizontalStack=0;resizeParent=1;resizeParentMax=0;resizeLast=0;collapsible=1;marginBottom=0;" vertex="1" parent="1">
          <mxGeometry x="-3510" y="1618" width="370" height="372" as="geometry" />
        </mxCell>
        <mxCell id="0UR9MXXXDw9d1XQzhALQ-362" value="- player: Player" style="text;strokeColor=none;fillColor=none;align=left;verticalAlign=top;spacingLeft=4;spacingRight=4;overflow=hidden;rotatable=0;points=[[0,0.5],[1,0.5]];portConstraint=eastwest;" vertex="1" parent="0UR9MXXXDw9d1XQzhALQ-361">
          <mxGeometry y="26" width="370" height="26" as="geometry" />
        </mxCell>
        <mxCell id="0UR9MXXXDw9d1XQzhALQ-363" value="- playerNumber: int" style="text;strokeColor=none;fillColor=none;align=left;verticalAlign=top;spacingLeft=4;spacingRight=4;overflow=hidden;rotatable=0;points=[[0,0.5],[1,0.5]];portConstraint=eastwest;" vertex="1" parent="0UR9MXXXDw9d1XQzhALQ-361">
          <mxGeometry y="52" width="370" height="26" as="geometry" />
        </mxCell>
        <mxCell id="0UR9MXXXDw9d1XQzhALQ-364" value="- totalPlayers: int  = 0" style="text;strokeColor=none;fillColor=none;align=left;verticalAlign=top;spacingLeft=4;spacingRight=4;overflow=hidden;rotatable=0;points=[[0,0.5],[1,0.5]];portConstraint=eastwest;fontStyle=4" vertex="1" parent="0UR9MXXXDw9d1XQzhALQ-361">
          <mxGeometry y="78" width="370" height="26" as="geometry" />
        </mxCell>
        <mxCell id="0UR9MXXXDw9d1XQzhALQ-365" value="- currentSquareNumber: int = 0" style="text;strokeColor=none;fillColor=none;align=left;verticalAlign=top;spacingLeft=4;spacingRight=4;overflow=hidden;rotatable=0;points=[[0,0.5],[1,0.5]];portConstraint=eastwest;" vertex="1" parent="0UR9MXXXDw9d1XQzhALQ-361">
          <mxGeometry y="104" width="370" height="26" as="geometry" />
        </mxCell>
        <mxCell id="0UR9MXXXDw9d1XQzhALQ-366" value="- xLocationsOfPlayer: int[]" style="text;strokeColor=none;fillColor=none;align=left;verticalAlign=top;spacingLeft=4;spacingRight=4;overflow=hidden;rotatable=0;points=[[0,0.5],[1,0.5]];portConstraint=eastwest;" vertex="1" parent="0UR9MXXXDw9d1XQzhALQ-361">
          <mxGeometry y="130" width="370" height="26" as="geometry" />
        </mxCell>
        <mxCell id="0UR9MXXXDw9d1XQzhALQ-367" value="- yLocationsOfPlayer:int[]" style="text;strokeColor=none;fillColor=none;align=left;verticalAlign=top;spacingLeft=4;spacingRight=4;overflow=hidden;rotatable=0;points=[[0,0.5],[1,0.5]];portConstraint=eastwest;" vertex="1" parent="0UR9MXXXDw9d1XQzhALQ-361">
          <mxGeometry y="156" width="370" height="26" as="geometry" />
        </mxCell>
        <mxCell id="0UR9MXXXDw9d1XQzhALQ-368" value="" style="line;strokeWidth=1;fillColor=none;align=left;verticalAlign=middle;spacingTop=-1;spacingLeft=3;spacingRight=3;rotatable=0;labelPosition=right;points=[];portConstraint=eastwest;" vertex="1" parent="0UR9MXXXDw9d1XQzhALQ-361">
          <mxGeometry y="182" width="370" height="8" as="geometry" />
        </mxCell>
        <mxCell id="0UR9MXXXDw9d1XQzhALQ-369" value="+ PlayerGUI(color: Color, playerName: String)" style="text;strokeColor=none;fillColor=none;align=left;verticalAlign=top;spacingLeft=4;spacingRight=4;overflow=hidden;rotatable=0;points=[[0,0.5],[1,0.5]];portConstraint=eastwest;" vertex="1" parent="0UR9MXXXDw9d1XQzhALQ-361">
          <mxGeometry y="190" width="370" height="26" as="geometry" />
        </mxCell>
        <mxCell id="0UR9MXXXDw9d1XQzhALQ-370" value="+ move(diceValue: int): void" style="text;strokeColor=none;fillColor=none;align=left;verticalAlign=top;spacingLeft=4;spacingRight=4;overflow=hidden;rotatable=0;points=[[0,0.5],[1,0.5]];portConstraint=eastwest;" vertex="1" parent="0UR9MXXXDw9d1XQzhALQ-361">
          <mxGeometry y="216" width="370" height="26" as="geometry" />
        </mxCell>
        <mxCell id="0UR9MXXXDw9d1XQzhALQ-371" value="+ getProperties(): Collection&lt;Square&gt;" style="text;strokeColor=none;fillColor=none;align=left;verticalAlign=top;spacingLeft=4;spacingRight=4;overflow=hidden;rotatable=0;points=[[0,0.5],[1,0.5]];portConstraint=eastwest;" vertex="1" parent="0UR9MXXXDw9d1XQzhALQ-361">
          <mxGeometry y="242" width="370" height="26" as="geometry" />
        </mxCell>
        <mxCell id="0UR9MXXXDw9d1XQzhALQ-372" value="+ getPlayerMoney(): int" style="text;strokeColor=none;fillColor=none;align=left;verticalAlign=top;spacingLeft=4;spacingRight=4;overflow=hidden;rotatable=0;points=[[0,0.5],[1,0.5]];portConstraint=eastwest;" vertex="1" parent="0UR9MXXXDw9d1XQzhALQ-361">
          <mxGeometry y="268" width="370" height="26" as="geometry" />
        </mxCell>
        <mxCell id="0UR9MXXXDw9d1XQzhALQ-373" value="+ getPlayer(): Player" style="text;strokeColor=none;fillColor=none;align=left;verticalAlign=top;spacingLeft=4;spacingRight=4;overflow=hidden;rotatable=0;points=[[0,0.5],[1,0.5]];portConstraint=eastwest;" vertex="1" parent="0UR9MXXXDw9d1XQzhALQ-361">
          <mxGeometry y="294" width="370" height="26" as="geometry" />
        </mxCell>
        <mxCell id="0UR9MXXXDw9d1XQzhALQ-374" value="+ exchangeMoney(money: int): void" style="text;strokeColor=none;fillColor=none;align=left;verticalAlign=top;spacingLeft=4;spacingRight=4;overflow=hidden;rotatable=0;points=[[0,0.5],[1,0.5]];portConstraint=eastwest;" vertex="1" parent="0UR9MXXXDw9d1XQzhALQ-361">
          <mxGeometry y="320" width="370" height="26" as="geometry" />
        </mxCell>
        <mxCell id="0UR9MXXXDw9d1XQzhALQ-375" value="+ getCurrentSquareNumber(): int" style="text;strokeColor=none;fillColor=none;align=left;verticalAlign=top;spacingLeft=4;spacingRight=4;overflow=hidden;rotatable=0;points=[[0,0.5],[1,0.5]];portConstraint=eastwest;" vertex="1" parent="0UR9MXXXDw9d1XQzhALQ-361">
          <mxGeometry y="346" width="370" height="26" as="geometry" />
        </mxCell>
        <mxCell id="0UR9MXXXDw9d1XQzhALQ-376" value="GameBoardGUI" style="swimlane;fontStyle=1;align=center;verticalAlign=top;childLayout=stackLayout;horizontal=1;startSize=26;horizontalStack=0;resizeParent=1;resizeParentMax=0;resizeLast=0;collapsible=1;marginBottom=0;" vertex="1" parent="1">
          <mxGeometry x="-2000" y="2038" width="370" height="138" as="geometry" />
        </mxCell>
        <mxCell id="0UR9MXXXDw9d1XQzhALQ-377" value="- gameBoard: GameBoard" style="text;strokeColor=none;fillColor=none;align=left;verticalAlign=top;spacingLeft=4;spacingRight=4;overflow=hidden;rotatable=0;points=[[0,0.5],[1,0.5]];portConstraint=eastwest;" vertex="1" parent="0UR9MXXXDw9d1XQzhALQ-376">
          <mxGeometry y="26" width="370" height="26" as="geometry" />
        </mxCell>
        <mxCell id="0UR9MXXXDw9d1XQzhALQ-378" value="" style="line;strokeWidth=1;fillColor=none;align=left;verticalAlign=middle;spacingTop=-1;spacingLeft=3;spacingRight=3;rotatable=0;labelPosition=right;points=[];portConstraint=eastwest;" vertex="1" parent="0UR9MXXXDw9d1XQzhALQ-376">
          <mxGeometry y="52" width="370" height="8" as="geometry" />
        </mxCell>
        <mxCell id="0UR9MXXXDw9d1XQzhALQ-379" value="+ GameBoardGUI(x:i nt, y: int, width: int, height: int)" style="text;strokeColor=none;fillColor=none;align=left;verticalAlign=top;spacingLeft=4;spacingRight=4;overflow=hidden;rotatable=0;points=[[0,0.5],[1,0.5]];portConstraint=eastwest;" vertex="1" parent="0UR9MXXXDw9d1XQzhALQ-376">
          <mxGeometry y="60" width="370" height="26" as="geometry" />
        </mxCell>
        <mxCell id="0UR9MXXXDw9d1XQzhALQ-380" value="+ getSquare(squareNumber: int): Square" style="text;strokeColor=none;fillColor=none;align=left;verticalAlign=top;spacingLeft=4;spacingRight=4;overflow=hidden;rotatable=0;points=[[0,0.5],[1,0.5]];portConstraint=eastwest;" vertex="1" parent="0UR9MXXXDw9d1XQzhALQ-376">
          <mxGeometry y="86" width="370" height="26" as="geometry" />
        </mxCell>
        <mxCell id="0UR9MXXXDw9d1XQzhALQ-381" value="- initializeSquarePanels(): void" style="text;strokeColor=none;fillColor=none;align=left;verticalAlign=top;spacingLeft=4;spacingRight=4;overflow=hidden;rotatable=0;points=[[0,0.5],[1,0.5]];portConstraint=eastwest;" vertex="1" parent="0UR9MXXXDw9d1XQzhALQ-376">
          <mxGeometry y="112" width="370" height="26" as="geometry" />
        </mxCell>
        <mxCell id="0UR9MXXXDw9d1XQzhALQ-382" value="DiceGUI" style="swimlane;fontStyle=1;align=center;verticalAlign=top;childLayout=stackLayout;horizontal=1;startSize=26;horizontalStack=0;resizeParent=1;resizeParentMax=0;resizeLast=0;collapsible=1;marginBottom=0;" vertex="1" parent="1">
          <mxGeometry x="-2705" y="1243" width="370" height="190" as="geometry" />
        </mxCell>
        <mxCell id="0UR9MXXXDw9d1XQzhALQ-383" value="- rollDice: RollDice = new RollDice()" style="text;strokeColor=none;fillColor=none;align=left;verticalAlign=top;spacingLeft=4;spacingRight=4;overflow=hidden;rotatable=0;points=[[0,0.5],[1,0.5]];portConstraint=eastwest;" vertex="1" parent="0UR9MXXXDw9d1XQzhALQ-382">
          <mxGeometry y="26" width="370" height="26" as="geometry" />
        </mxCell>
        <mxCell id="0UR9MXXXDw9d1XQzhALQ-384" value="- faceValue: int" style="text;strokeColor=none;fillColor=none;align=left;verticalAlign=top;spacingLeft=4;spacingRight=4;overflow=hidden;rotatable=0;points=[[0,0.5],[1,0.5]];portConstraint=eastwest;" vertex="1" parent="0UR9MXXXDw9d1XQzhALQ-382">
          <mxGeometry y="52" width="370" height="26" as="geometry" />
        </mxCell>
        <mxCell id="0UR9MXXXDw9d1XQzhALQ-385" value="" style="line;strokeWidth=1;fillColor=none;align=left;verticalAlign=middle;spacingTop=-1;spacingLeft=3;spacingRight=3;rotatable=0;labelPosition=right;points=[];portConstraint=eastwest;" vertex="1" parent="0UR9MXXXDw9d1XQzhALQ-382">
          <mxGeometry y="78" width="370" height="8" as="geometry" />
        </mxCell>
        <mxCell id="0UR9MXXXDw9d1XQzhALQ-386" value="+ DiceGUI(x: int, y: int, width: int, height: int)" style="text;strokeColor=none;fillColor=none;align=left;verticalAlign=top;spacingLeft=4;spacingRight=4;overflow=hidden;rotatable=0;points=[[0,0.5],[1,0.5]];portConstraint=eastwest;" vertex="1" parent="0UR9MXXXDw9d1XQzhALQ-382">
          <mxGeometry y="86" width="370" height="26" as="geometry" />
        </mxCell>
        <mxCell id="0UR9MXXXDw9d1XQzhALQ-387" value="+ paintComponent(g: Graphics): void" style="text;strokeColor=none;fillColor=none;align=left;verticalAlign=top;spacingLeft=4;spacingRight=4;overflow=hidden;rotatable=0;points=[[0,0.5],[1,0.5]];portConstraint=eastwest;" vertex="1" parent="0UR9MXXXDw9d1XQzhALQ-382">
          <mxGeometry y="112" width="370" height="26" as="geometry" />
        </mxCell>
        <mxCell id="0UR9MXXXDw9d1XQzhALQ-388" value="+ rollDice(): void" style="text;strokeColor=none;fillColor=none;align=left;verticalAlign=top;spacingLeft=4;spacingRight=4;overflow=hidden;rotatable=0;points=[[0,0.5],[1,0.5]];portConstraint=eastwest;" vertex="1" parent="0UR9MXXXDw9d1XQzhALQ-382">
          <mxGeometry y="138" width="370" height="26" as="geometry" />
        </mxCell>
        <mxCell id="0UR9MXXXDw9d1XQzhALQ-389" value="+ getFaceValue(): int" style="text;strokeColor=none;fillColor=none;align=left;verticalAlign=top;spacingLeft=4;spacingRight=4;overflow=hidden;rotatable=0;points=[[0,0.5],[1,0.5]];portConstraint=eastwest;" vertex="1" parent="0UR9MXXXDw9d1XQzhALQ-382">
          <mxGeometry y="164" width="370" height="26" as="geometry" />
        </mxCell>
        <mxCell id="0UR9MXXXDw9d1XQzhALQ-390" value="MonopolyController" style="swimlane;fontStyle=1;align=center;verticalAlign=top;childLayout=stackLayout;horizontal=1;startSize=26;horizontalStack=0;resizeParent=1;resizeParentMax=0;resizeLast=0;collapsible=1;marginBottom=0;" vertex="1" parent="1">
          <mxGeometry x="-2000" y="1313" width="370" height="656" as="geometry" />
        </mxCell>
        <mxCell id="0UR9MXXXDw9d1XQzhALQ-391" value="- frame: JFrame" style="text;strokeColor=none;fillColor=none;align=left;verticalAlign=top;spacingLeft=4;spacingRight=4;overflow=hidden;rotatable=0;points=[[0,0.5],[1,0.5]];portConstraint=eastwest;" vertex="1" parent="0UR9MXXXDw9d1XQzhALQ-390">
          <mxGeometry y="26" width="370" height="24" as="geometry" />
        </mxCell>
        <mxCell id="0UR9MXXXDw9d1XQzhALQ-392" value="- playerInitPanel: Jpanel" style="text;strokeColor=none;fillColor=none;align=left;verticalAlign=top;spacingLeft=4;spacingRight=4;overflow=hidden;rotatable=0;points=[[0,0.5],[1,0.5]];portConstraint=eastwest;" vertex="1" parent="0UR9MXXXDw9d1XQzhALQ-390">
          <mxGeometry y="50" width="370" height="26" as="geometry" />
        </mxCell>
        <mxCell id="0UR9MXXXDw9d1XQzhALQ-393" value="- startPanel: JPanel" style="text;strokeColor=none;fillColor=none;align=left;verticalAlign=top;spacingLeft=4;spacingRight=4;overflow=hidden;rotatable=0;points=[[0,0.5],[1,0.5]];portConstraint=eastwest;" vertex="1" parent="0UR9MXXXDw9d1XQzhALQ-390">
          <mxGeometry y="76" width="370" height="26" as="geometry" />
        </mxCell>
        <mxCell id="0UR9MXXXDw9d1XQzhALQ-394" value="- monopolyPanel: JPanel" style="text;strokeColor=none;fillColor=none;align=left;verticalAlign=top;spacingLeft=4;spacingRight=4;overflow=hidden;rotatable=0;points=[[0,0.5],[1,0.5]];portConstraint=eastwest;" vertex="1" parent="0UR9MXXXDw9d1XQzhALQ-390">
          <mxGeometry y="102" width="370" height="26" as="geometry" />
        </mxCell>
        <mxCell id="0UR9MXXXDw9d1XQzhALQ-395" value="- switchPanels: JPanel" style="text;strokeColor=none;fillColor=none;align=left;verticalAlign=top;spacingLeft=4;spacingRight=4;overflow=hidden;rotatable=0;points=[[0,0.5],[1,0.5]];portConstraint=eastwest;" vertex="1" parent="0UR9MXXXDw9d1XQzhALQ-390">
          <mxGeometry y="128" width="370" height="26" as="geometry" />
        </mxCell>
        <mxCell id="0UR9MXXXDw9d1XQzhALQ-396" value="- playerList: LinkedList&lt;Player&gt;" style="text;strokeColor=none;fillColor=none;align=left;verticalAlign=top;spacingLeft=4;spacingRight=4;overflow=hidden;rotatable=0;points=[[0,0.5],[1,0.5]];portConstraint=eastwest;" vertex="1" parent="0UR9MXXXDw9d1XQzhALQ-390">
          <mxGeometry y="154" width="370" height="26" as="geometry" />
        </mxCell>
        <mxCell id="0UR9MXXXDw9d1XQzhALQ-397" value="- startButton: JButton&#xa;&#xa;" style="text;strokeColor=none;fillColor=none;align=left;verticalAlign=top;spacingLeft=4;spacingRight=4;overflow=hidden;rotatable=0;points=[[0,0.5],[1,0.5]];portConstraint=eastwest;" vertex="1" parent="0UR9MXXXDw9d1XQzhALQ-390">
          <mxGeometry y="180" width="370" height="26" as="geometry" />
        </mxCell>
        <mxCell id="0UR9MXXXDw9d1XQzhALQ-398" value="- playButton: JButton&#xa;&#xa;" style="text;strokeColor=none;fillColor=none;align=left;verticalAlign=top;spacingLeft=4;spacingRight=4;overflow=hidden;rotatable=0;points=[[0,0.5],[1,0.5]];portConstraint=eastwest;" vertex="1" parent="0UR9MXXXDw9d1XQzhALQ-390">
          <mxGeometry y="206" width="370" height="26" as="geometry" />
        </mxCell>
        <mxCell id="0UR9MXXXDw9d1XQzhALQ-399" value="- addPlayer: JButton" style="text;strokeColor=none;fillColor=none;align=left;verticalAlign=top;spacingLeft=4;spacingRight=4;overflow=hidden;rotatable=0;points=[[0,0.5],[1,0.5]];portConstraint=eastwest;" vertex="1" parent="0UR9MXXXDw9d1XQzhALQ-390">
          <mxGeometry y="232" width="370" height="26" as="geometry" />
        </mxCell>
        <mxCell id="0UR9MXXXDw9d1XQzhALQ-400" value="- addCPUPlayer: JButton" style="text;strokeColor=none;fillColor=none;align=left;verticalAlign=top;spacingLeft=4;spacingRight=4;overflow=hidden;rotatable=0;points=[[0,0.5],[1,0.5]];portConstraint=eastwest;" vertex="1" parent="0UR9MXXXDw9d1XQzhALQ-390">
          <mxGeometry y="258" width="370" height="26" as="geometry" />
        </mxCell>
        <mxCell id="0UR9MXXXDw9d1XQzhALQ-401" value="- playerNameInput: JTextField" style="text;strokeColor=none;fillColor=none;align=left;verticalAlign=top;spacingLeft=4;spacingRight=4;overflow=hidden;rotatable=0;points=[[0,0.5],[1,0.5]];portConstraint=eastwest;" vertex="1" parent="0UR9MXXXDw9d1XQzhALQ-390">
          <mxGeometry y="284" width="370" height="26" as="geometry" />
        </mxCell>
        <mxCell id="0UR9MXXXDw9d1XQzhALQ-402" value="- playerNameList: JPanel" style="text;strokeColor=none;fillColor=none;align=left;verticalAlign=top;spacingLeft=4;spacingRight=4;overflow=hidden;rotatable=0;points=[[0,0.5],[1,0.5]];portConstraint=eastwest;" vertex="1" parent="0UR9MXXXDw9d1XQzhALQ-390">
          <mxGeometry y="310" width="370" height="26" as="geometry" />
        </mxCell>
        <mxCell id="0UR9MXXXDw9d1XQzhALQ-403" value="- playerFont: Font" style="text;strokeColor=none;fillColor=none;align=left;verticalAlign=top;spacingLeft=4;spacingRight=4;overflow=hidden;rotatable=0;points=[[0,0.5],[1,0.5]];portConstraint=eastwest;" vertex="1" parent="0UR9MXXXDw9d1XQzhALQ-390">
          <mxGeometry y="336" width="370" height="26" as="geometry" />
        </mxCell>
        <mxCell id="0UR9MXXXDw9d1XQzhALQ-404" value="- playerTokenColors: Color[]" style="text;strokeColor=none;fillColor=none;align=left;verticalAlign=top;spacingLeft=4;spacingRight=4;overflow=hidden;rotatable=0;points=[[0,0.5],[1,0.5]];portConstraint=eastwest;" vertex="1" parent="0UR9MXXXDw9d1XQzhALQ-390">
          <mxGeometry y="362" width="370" height="26" as="geometry" />
        </mxCell>
        <mxCell id="0UR9MXXXDw9d1XQzhALQ-405" value="" style="line;strokeWidth=1;fillColor=none;align=left;verticalAlign=middle;spacingTop=-1;spacingLeft=3;spacingRight=3;rotatable=0;labelPosition=right;points=[];portConstraint=eastwest;" vertex="1" parent="0UR9MXXXDw9d1XQzhALQ-390">
          <mxGeometry y="388" width="370" height="8" as="geometry" />
        </mxCell>
        <mxCell id="0UR9MXXXDw9d1XQzhALQ-406" value="+ MonopolyController()" style="text;strokeColor=none;fillColor=none;align=left;verticalAlign=top;spacingLeft=4;spacingRight=4;overflow=hidden;rotatable=0;points=[[0,0.5],[1,0.5]];portConstraint=eastwest;" vertex="1" parent="0UR9MXXXDw9d1XQzhALQ-390">
          <mxGeometry y="396" width="370" height="26" as="geometry" />
        </mxCell>
        <mxCell id="0UR9MXXXDw9d1XQzhALQ-407" value="+ getSwitchPanels(): JPanel" style="text;strokeColor=none;fillColor=none;align=left;verticalAlign=top;spacingLeft=4;spacingRight=4;overflow=hidden;rotatable=0;points=[[0,0.5],[1,0.5]];portConstraint=eastwest;" vertex="1" parent="0UR9MXXXDw9d1XQzhALQ-390">
          <mxGeometry y="422" width="370" height="26" as="geometry" />
        </mxCell>
        <mxCell id="0UR9MXXXDw9d1XQzhALQ-408" value="+ getPlayerList(): LinkedList&lt;Player&gt;" style="text;strokeColor=none;fillColor=none;align=left;verticalAlign=top;spacingLeft=4;spacingRight=4;overflow=hidden;rotatable=0;points=[[0,0.5],[1,0.5]];portConstraint=eastwest;" vertex="1" parent="0UR9MXXXDw9d1XQzhALQ-390">
          <mxGeometry y="448" width="370" height="26" as="geometry" />
        </mxCell>
        <mxCell id="0UR9MXXXDw9d1XQzhALQ-409" value="+ setMonopolyPanel(monopolyPanel: JPanel): void" style="text;strokeColor=none;fillColor=none;align=left;verticalAlign=top;spacingLeft=4;spacingRight=4;overflow=hidden;rotatable=0;points=[[0,0.5],[1,0.5]];portConstraint=eastwest;" vertex="1" parent="0UR9MXXXDw9d1XQzhALQ-390">
          <mxGeometry y="474" width="370" height="26" as="geometry" />
        </mxCell>
        <mxCell id="0UR9MXXXDw9d1XQzhALQ-410" value="+ addPlayerButton(): JButton" style="text;strokeColor=none;fillColor=none;align=left;verticalAlign=top;spacingLeft=4;spacingRight=4;overflow=hidden;rotatable=0;points=[[0,0.5],[1,0.5]];portConstraint=eastwest;" vertex="1" parent="0UR9MXXXDw9d1XQzhALQ-390">
          <mxGeometry y="500" width="370" height="26" as="geometry" />
        </mxCell>
        <mxCell id="0UR9MXXXDw9d1XQzhALQ-411" value="+ addCPUPlayerButton(): JButton" style="text;strokeColor=none;fillColor=none;align=left;verticalAlign=top;spacingLeft=4;spacingRight=4;overflow=hidden;rotatable=0;points=[[0,0.5],[1,0.5]];portConstraint=eastwest;" vertex="1" parent="0UR9MXXXDw9d1XQzhALQ-390">
          <mxGeometry y="526" width="370" height="26" as="geometry" />
        </mxCell>
        <mxCell id="0UR9MXXXDw9d1XQzhALQ-412" value="+ addNewPlayerPanel(): void" style="text;strokeColor=none;fillColor=none;align=left;verticalAlign=top;spacingLeft=4;spacingRight=4;overflow=hidden;rotatable=0;points=[[0,0.5],[1,0.5]];portConstraint=eastwest;" vertex="1" parent="0UR9MXXXDw9d1XQzhALQ-390">
          <mxGeometry y="552" width="370" height="26" as="geometry" />
        </mxCell>
        <mxCell id="0UR9MXXXDw9d1XQzhALQ-413" value="+ startButton(): JButton" style="text;strokeColor=none;fillColor=none;align=left;verticalAlign=top;spacingLeft=4;spacingRight=4;overflow=hidden;rotatable=0;points=[[0,0.5],[1,0.5]];portConstraint=eastwest;" vertex="1" parent="0UR9MXXXDw9d1XQzhALQ-390">
          <mxGeometry y="578" width="370" height="26" as="geometry" />
        </mxCell>
        <mxCell id="0UR9MXXXDw9d1XQzhALQ-414" value="+ playButton():JButton" style="text;strokeColor=none;fillColor=none;align=left;verticalAlign=top;spacingLeft=4;spacingRight=4;overflow=hidden;rotatable=0;points=[[0,0.5],[1,0.5]];portConstraint=eastwest;" vertex="1" parent="0UR9MXXXDw9d1XQzhALQ-390">
          <mxGeometry y="604" width="370" height="26" as="geometry" />
        </mxCell>
        <mxCell id="0UR9MXXXDw9d1XQzhALQ-415" value="+ displayGUI():void" style="text;strokeColor=none;fillColor=none;align=left;verticalAlign=top;spacingLeft=4;spacingRight=4;overflow=hidden;rotatable=0;points=[[0,0.5],[1,0.5]];portConstraint=eastwest;" vertex="1" parent="0UR9MXXXDw9d1XQzhALQ-390">
          <mxGeometry y="630" width="370" height="26" as="geometry" />
        </mxCell>
        <mxCell id="0UR9MXXXDw9d1XQzhALQ-416" value="" style="endArrow=diamondThin;endFill=1;endSize=24;html=1;rounded=0;" edge="1" parent="1" source="0UR9MXXXDw9d1XQzhALQ-44" target="0UR9MXXXDw9d1XQzhALQ-361">
          <mxGeometry width="160" relative="1" as="geometry">
            <mxPoint x="-3080" y="1297" as="sourcePoint" />
            <mxPoint x="-3160" y="1367" as="targetPoint" />
          </mxGeometry>
        </mxCell>
        <mxCell id="0UR9MXXXDw9d1XQzhALQ-417" value="SquareGUI" style="swimlane;fontStyle=1;align=center;verticalAlign=top;childLayout=stackLayout;horizontal=1;startSize=26;horizontalStack=0;resizeParent=1;resizeParentMax=0;resizeLast=0;collapsible=1;marginBottom=0;" vertex="1" parent="1">
          <mxGeometry x="-2000" y="2258" width="370" height="210" as="geometry" />
        </mxCell>
        <mxCell id="0UR9MXXXDw9d1XQzhALQ-418" value="- squareName: String" style="text;strokeColor=none;fillColor=none;align=left;verticalAlign=top;spacingLeft=4;spacingRight=4;overflow=hidden;rotatable=0;points=[[0,0.5],[1,0.5]];portConstraint=eastwest;" vertex="1" parent="0UR9MXXXDw9d1XQzhALQ-417">
          <mxGeometry y="26" width="370" height="26" as="geometry" />
        </mxCell>
        <mxCell id="0UR9MXXXDw9d1XQzhALQ-419" value="- squareNum: int" style="text;strokeColor=none;fillColor=none;align=left;verticalAlign=top;spacingLeft=4;spacingRight=4;overflow=hidden;rotatable=0;points=[[0,0.5],[1,0.5]];portConstraint=eastwest;" vertex="1" parent="0UR9MXXXDw9d1XQzhALQ-417">
          <mxGeometry y="52" width="370" height="26" as="geometry" />
        </mxCell>
        <mxCell id="0UR9MXXXDw9d1XQzhALQ-420" value="- total: int = 0" style="text;strokeColor=none;fillColor=none;align=left;verticalAlign=top;spacingLeft=4;spacingRight=4;overflow=hidden;rotatable=0;points=[[0,0.5],[1,0.5]];portConstraint=eastwest;fontStyle=4" vertex="1" parent="0UR9MXXXDw9d1XQzhALQ-417">
          <mxGeometry y="78" width="370" height="26" as="geometry" />
        </mxCell>
        <mxCell id="0UR9MXXXDw9d1XQzhALQ-421" value="" style="line;strokeWidth=1;fillColor=none;align=left;verticalAlign=middle;spacingTop=-1;spacingLeft=3;spacingRight=3;rotatable=0;labelPosition=right;points=[];portConstraint=eastwest;" vertex="1" parent="0UR9MXXXDw9d1XQzhALQ-417">
          <mxGeometry y="104" width="370" height="8" as="geometry" />
        </mxCell>
        <mxCell id="0UR9MXXXDw9d1XQzhALQ-422" value="+ SquareGUI(x: int, y: int, width: int, height: int, squareName: &#xa;String, rotationDegree: int)" style="text;strokeColor=none;fillColor=none;align=left;verticalAlign=top;spacingLeft=4;spacingRight=4;overflow=hidden;rotatable=0;points=[[0,0.5],[1,0.5]];portConstraint=eastwest;" vertex="1" parent="0UR9MXXXDw9d1XQzhALQ-417">
          <mxGeometry y="112" width="370" height="46" as="geometry" />
        </mxCell>
        <mxCell id="0UR9MXXXDw9d1XQzhALQ-423" value="- rotation(degree: int): void" style="text;strokeColor=none;fillColor=none;align=left;verticalAlign=top;spacingLeft=4;spacingRight=4;overflow=hidden;rotatable=0;points=[[0,0.5],[1,0.5]];portConstraint=eastwest;" vertex="1" parent="0UR9MXXXDw9d1XQzhALQ-417">
          <mxGeometry y="158" width="370" height="26" as="geometry" />
        </mxCell>
        <mxCell id="0UR9MXXXDw9d1XQzhALQ-424" value="+ paintComponent(g: Graphics): void" style="text;strokeColor=none;fillColor=none;align=left;verticalAlign=top;spacingLeft=4;spacingRight=4;overflow=hidden;rotatable=0;points=[[0,0.5],[1,0.5]];portConstraint=eastwest;" vertex="1" parent="0UR9MXXXDw9d1XQzhALQ-417">
          <mxGeometry y="184" width="370" height="26" as="geometry" />
        </mxCell>
        <mxCell id="0UR9MXXXDw9d1XQzhALQ-425" value="" style="endArrow=diamondThin;endFill=1;endSize=24;html=1;rounded=0;" edge="1" parent="1" source="0UR9MXXXDw9d1XQzhALQ-417" target="0UR9MXXXDw9d1XQzhALQ-376">
          <mxGeometry width="160" relative="1" as="geometry">
            <mxPoint x="-2070" y="2327" as="sourcePoint" />
            <mxPoint x="-1890" y="2297" as="targetPoint" />
          </mxGeometry>
        </mxCell>
        <mxCell id="0UR9MXXXDw9d1XQzhALQ-426" value="" style="endArrow=diamondThin;endFill=1;endSize=24;html=1;rounded=0;" edge="1" parent="1" source="0UR9MXXXDw9d1XQzhALQ-382" target="0UR9MXXXDw9d1XQzhALQ-314">
          <mxGeometry width="160" relative="1" as="geometry">
            <mxPoint x="-1510" y="1818" as="sourcePoint" />
            <mxPoint x="-1350" y="1818" as="targetPoint" />
          </mxGeometry>
        </mxCell>
        <mxCell id="0UR9MXXXDw9d1XQzhALQ-427" value="" style="endArrow=diamondThin;endFill=1;endSize=24;html=1;rounded=0;" edge="1" parent="1" source="0UR9MXXXDw9d1XQzhALQ-36" target="0UR9MXXXDw9d1XQzhALQ-382">
          <mxGeometry width="160" relative="1" as="geometry">
            <mxPoint x="-2400" y="1289" as="sourcePoint" />
            <mxPoint x="-2400" y="1433" as="targetPoint" />
          </mxGeometry>
        </mxCell>
        <mxCell id="0UR9MXXXDw9d1XQzhALQ-428" value="" style="endArrow=diamondThin;endFill=1;endSize=24;html=1;rounded=0;" edge="1" parent="1" source="0UR9MXXXDw9d1XQzhALQ-376" target="0UR9MXXXDw9d1XQzhALQ-314">
          <mxGeometry width="160" relative="1" as="geometry">
            <mxPoint x="-2270" y="1637.9999999999995" as="sourcePoint" />
            <mxPoint x="-2270" y="1782" as="targetPoint" />
          </mxGeometry>
        </mxCell>
        <mxCell id="0UR9MXXXDw9d1XQzhALQ-429" value="JPanel" style="swimlane;fontStyle=1;align=center;verticalAlign=top;childLayout=stackLayout;horizontal=1;startSize=26;horizontalStack=0;resizeParent=1;resizeParentMax=0;resizeLast=0;collapsible=1;marginBottom=0;" vertex="1" parent="1">
          <mxGeometry x="-2250" y="1898" width="160" height="34" as="geometry" />
        </mxCell>
        <mxCell id="0UR9MXXXDw9d1XQzhALQ-430" value="" style="line;strokeWidth=1;fillColor=none;align=left;verticalAlign=middle;spacingTop=-1;spacingLeft=3;spacingRight=3;rotatable=0;labelPosition=right;points=[];portConstraint=eastwest;" vertex="1" parent="0UR9MXXXDw9d1XQzhALQ-429">
          <mxGeometry y="26" width="160" height="8" as="geometry" />
        </mxCell>
        <mxCell id="0UR9MXXXDw9d1XQzhALQ-431" value="" style="endArrow=block;dashed=1;endFill=0;endSize=12;html=1;rounded=0;" edge="1" parent="1" source="0UR9MXXXDw9d1XQzhALQ-417" target="0UR9MXXXDw9d1XQzhALQ-429">
          <mxGeometry width="160" relative="1" as="geometry">
            <mxPoint x="-1811.9178082191784" y="2406" as="sourcePoint" />
            <mxPoint x="-1748.1506849315065" y="2539" as="targetPoint" />
            <Array as="points">
              <mxPoint x="-2180" y="2368" />
            </Array>
          </mxGeometry>
        </mxCell>
        <mxCell id="0UR9MXXXDw9d1XQzhALQ-432" value="" style="endArrow=diamondThin;endFill=1;endSize=24;html=1;rounded=0;" edge="1" parent="1" source="0UR9MXXXDw9d1XQzhALQ-208" target="0UR9MXXXDw9d1XQzhALQ-376">
          <mxGeometry width="160" relative="1" as="geometry">
            <mxPoint x="-1845" y="2708" as="sourcePoint" />
            <mxPoint x="-1845" y="2406" as="targetPoint" />
            <Array as="points">
              <mxPoint x="-1480" y="2107" />
            </Array>
          </mxGeometry>
        </mxCell>
        <mxCell id="0UR9MXXXDw9d1XQzhALQ-433" value="" style="endArrow=none;dashed=1;html=1;rounded=0;" edge="1" parent="1" target="0UR9MXXXDw9d1XQzhALQ-361">
          <mxGeometry width="50" height="50" relative="1" as="geometry">
            <mxPoint x="-2170" y="1573" as="sourcePoint" />
            <mxPoint x="-1230" y="2208" as="targetPoint" />
          </mxGeometry>
        </mxCell>
        <mxCell id="0UR9MXXXDw9d1XQzhALQ-434" value="" style="endArrow=block;dashed=1;endFill=0;endSize=12;html=1;rounded=0;" edge="1" parent="1" target="0UR9MXXXDw9d1XQzhALQ-429">
          <mxGeometry width="160" relative="1" as="geometry">
            <mxPoint x="-2170" y="1578" as="sourcePoint" />
            <mxPoint x="-2160" y="2008" as="targetPoint" />
          </mxGeometry>
        </mxCell>
        <mxCell id="0UR9MXXXDw9d1XQzhALQ-435" value="" style="endArrow=none;dashed=1;html=1;rounded=0;" edge="1" parent="1" target="0UR9MXXXDw9d1XQzhALQ-382">
          <mxGeometry width="50" height="50" relative="1" as="geometry">
            <mxPoint x="-2170" y="1578" as="sourcePoint" />
            <mxPoint x="-1660" y="1828" as="targetPoint" />
          </mxGeometry>
        </mxCell>
        <mxCell id="0UR9MXXXDw9d1XQzhALQ-436" value="" style="endArrow=none;dashed=1;html=1;rounded=0;" edge="1" parent="1" target="0UR9MXXXDw9d1XQzhALQ-390">
          <mxGeometry width="50" height="50" relative="1" as="geometry">
            <mxPoint x="-2170" y="1578" as="sourcePoint" />
            <mxPoint x="-1920" y="1708" as="targetPoint" />
          </mxGeometry>
        </mxCell>
        <mxCell id="0UR9MXXXDw9d1XQzhALQ-437" value="" style="endArrow=none;dashed=1;html=1;rounded=0;" edge="1" parent="1" target="0UR9MXXXDw9d1XQzhALQ-376">
          <mxGeometry width="50" height="50" relative="1" as="geometry">
            <mxPoint x="-2170" y="2048" as="sourcePoint" />
            <mxPoint x="-1960" y="2188" as="targetPoint" />
          </mxGeometry>
        </mxCell>
        <mxCell id="0UR9MXXXDw9d1XQzhALQ-438" value="" style="endArrow=none;dashed=1;html=1;rounded=0;" edge="1" parent="1" target="0UR9MXXXDw9d1XQzhALQ-314">
          <mxGeometry width="50" height="50" relative="1" as="geometry">
            <mxPoint x="-2170" y="2048" as="sourcePoint" />
            <mxPoint x="-1947.735849056604" y="2148" as="targetPoint" />
          </mxGeometry>
        </mxCell>
        <mxCell id="0UR9MXXXDw9d1XQzhALQ-439" value="CPUPlayer" style="swimlane;fontStyle=1;align=center;verticalAlign=top;childLayout=stackLayout;horizontal=1;startSize=26;horizontalStack=0;resizeParent=1;resizeParentMax=0;resizeLast=0;collapsible=1;marginBottom=0;" vertex="1" parent="1">
          <mxGeometry x="-3710" y="838" width="370" height="736" as="geometry" />
        </mxCell>
        <mxCell id="0UR9MXXXDw9d1XQzhALQ-440" value="- properties: Collection&lt;Square&gt;" style="text;strokeColor=none;fillColor=none;align=left;verticalAlign=top;spacingLeft=4;spacingRight=4;overflow=hidden;rotatable=0;points=[[0,0.5],[1,0.5]];portConstraint=eastwest;" vertex="1" parent="0UR9MXXXDw9d1XQzhALQ-439">
          <mxGeometry y="26" width="370" height="26" as="geometry" />
        </mxCell>
        <mxCell id="0UR9MXXXDw9d1XQzhALQ-441" value="- playerName: String" style="text;strokeColor=none;fillColor=none;align=left;verticalAlign=top;spacingLeft=4;spacingRight=4;overflow=hidden;rotatable=0;points=[[0,0.5],[1,0.5]];portConstraint=eastwest;" vertex="1" parent="0UR9MXXXDw9d1XQzhALQ-439">
          <mxGeometry y="52" width="370" height="26" as="geometry" />
        </mxCell>
        <mxCell id="0UR9MXXXDw9d1XQzhALQ-442" value="- money: int" style="text;strokeColor=none;fillColor=none;align=left;verticalAlign=top;spacingLeft=4;spacingRight=4;overflow=hidden;rotatable=0;points=[[0,0.5],[1,0.5]];portConstraint=eastwest;" vertex="1" parent="0UR9MXXXDw9d1XQzhALQ-439">
          <mxGeometry y="78" width="370" height="26" as="geometry" />
        </mxCell>
        <mxCell id="0UR9MXXXDw9d1XQzhALQ-443" value="- position: int" style="text;strokeColor=none;fillColor=none;align=left;verticalAlign=top;spacingLeft=4;spacingRight=4;overflow=hidden;rotatable=0;points=[[0,0.5],[1,0.5]];portConstraint=eastwest;" vertex="1" parent="0UR9MXXXDw9d1XQzhALQ-439">
          <mxGeometry y="104" width="370" height="26" as="geometry" />
        </mxCell>
        <mxCell id="0UR9MXXXDw9d1XQzhALQ-444" value="- jailTurns: int" style="text;strokeColor=none;fillColor=none;align=left;verticalAlign=top;spacingLeft=4;spacingRight=4;overflow=hidden;rotatable=0;points=[[0,0.5],[1,0.5]];portConstraint=eastwest;" vertex="1" parent="0UR9MXXXDw9d1XQzhALQ-439">
          <mxGeometry y="130" width="370" height="26" as="geometry" />
        </mxCell>
        <mxCell id="0UR9MXXXDw9d1XQzhALQ-445" value="- inJail: boolean" style="text;strokeColor=none;fillColor=none;align=left;verticalAlign=top;spacingLeft=4;spacingRight=4;overflow=hidden;rotatable=0;points=[[0,0.5],[1,0.5]];portConstraint=eastwest;" vertex="1" parent="0UR9MXXXDw9d1XQzhALQ-439">
          <mxGeometry y="156" width="370" height="26" as="geometry" />
        </mxCell>
        <mxCell id="0UR9MXXXDw9d1XQzhALQ-446" value="" style="line;strokeWidth=1;fillColor=none;align=left;verticalAlign=middle;spacingTop=-1;spacingLeft=3;spacingRight=3;rotatable=0;labelPosition=right;points=[];portConstraint=eastwest;" vertex="1" parent="0UR9MXXXDw9d1XQzhALQ-439">
          <mxGeometry y="182" width="370" height="8" as="geometry" />
        </mxCell>
        <mxCell id="0UR9MXXXDw9d1XQzhALQ-447" value="+ CPUPlayer(name: String)" style="text;strokeColor=none;fillColor=none;align=left;verticalAlign=top;spacingLeft=4;spacingRight=4;overflow=hidden;rotatable=0;points=[[0,0.5],[1,0.5]];portConstraint=eastwest;" vertex="1" parent="0UR9MXXXDw9d1XQzhALQ-439">
          <mxGeometry y="190" width="370" height="26" as="geometry" />
        </mxCell>
        <mxCell id="0UR9MXXXDw9d1XQzhALQ-448" value="+ move(numTiles: int): void" style="text;strokeColor=none;fillColor=none;align=left;verticalAlign=top;spacingLeft=4;spacingRight=4;overflow=hidden;rotatable=0;points=[[0,0.5],[1,0.5]];portConstraint=eastwest;" vertex="1" parent="0UR9MXXXDw9d1XQzhALQ-439">
          <mxGeometry y="216" width="370" height="26" as="geometry" />
        </mxCell>
        <mxCell id="0UR9MXXXDw9d1XQzhALQ-449" value="+ moveTo(newPosition: int): void" style="text;strokeColor=none;fillColor=none;align=left;verticalAlign=top;spacingLeft=4;spacingRight=4;overflow=hidden;rotatable=0;points=[[0,0.5],[1,0.5]];portConstraint=eastwest;" vertex="1" parent="0UR9MXXXDw9d1XQzhALQ-439">
          <mxGeometry y="242" width="370" height="26" as="geometry" />
        </mxCell>
        <mxCell id="0UR9MXXXDw9d1XQzhALQ-450" value="+ getPosition(): int" style="text;strokeColor=none;fillColor=none;align=left;verticalAlign=top;spacingLeft=4;spacingRight=4;overflow=hidden;rotatable=0;points=[[0,0.5],[1,0.5]];portConstraint=eastwest;" vertex="1" parent="0UR9MXXXDw9d1XQzhALQ-439">
          <mxGeometry y="268" width="370" height="26" as="geometry" />
        </mxCell>
        <mxCell id="0UR9MXXXDw9d1XQzhALQ-451" value="+ setInJail(bool: boolean): void" style="text;strokeColor=none;fillColor=none;align=left;verticalAlign=top;spacingLeft=4;spacingRight=4;overflow=hidden;rotatable=0;points=[[0,0.5],[1,0.5]];portConstraint=eastwest;" vertex="1" parent="0UR9MXXXDw9d1XQzhALQ-439">
          <mxGeometry y="294" width="370" height="26" as="geometry" />
        </mxCell>
        <mxCell id="0UR9MXXXDw9d1XQzhALQ-452" value="+ properties(): Collection&lt;Square&gt;" style="text;strokeColor=none;fillColor=none;align=left;verticalAlign=top;spacingLeft=4;spacingRight=4;overflow=hidden;rotatable=0;points=[[0,0.5],[1,0.5]];portConstraint=eastwest;" vertex="1" parent="0UR9MXXXDw9d1XQzhALQ-439">
          <mxGeometry y="320" width="370" height="26" as="geometry" />
        </mxCell>
        <mxCell id="0UR9MXXXDw9d1XQzhALQ-453" value="+ name(): String" style="text;strokeColor=none;fillColor=none;align=left;verticalAlign=top;spacingLeft=4;spacingRight=4;overflow=hidden;rotatable=0;points=[[0,0.5],[1,0.5]];portConstraint=eastwest;" vertex="1" parent="0UR9MXXXDw9d1XQzhALQ-439">
          <mxGeometry y="346" width="370" height="26" as="geometry" />
        </mxCell>
        <mxCell id="0UR9MXXXDw9d1XQzhALQ-454" value="+ getMoney(): int " style="text;strokeColor=none;fillColor=none;align=left;verticalAlign=top;spacingLeft=4;spacingRight=4;overflow=hidden;rotatable=0;points=[[0,0.5],[1,0.5]];portConstraint=eastwest;" vertex="1" parent="0UR9MXXXDw9d1XQzhALQ-439">
          <mxGeometry y="372" width="370" height="26" as="geometry" />
        </mxCell>
        <mxCell id="0UR9MXXXDw9d1XQzhALQ-455" value="+ exchangeMoney(money: int): void" style="text;strokeColor=none;fillColor=none;align=left;verticalAlign=top;spacingLeft=4;spacingRight=4;overflow=hidden;rotatable=0;points=[[0,0.5],[1,0.5]];portConstraint=eastwest;" vertex="1" parent="0UR9MXXXDw9d1XQzhALQ-439">
          <mxGeometry y="398" width="370" height="26" as="geometry" />
        </mxCell>
        <mxCell id="0UR9MXXXDw9d1XQzhALQ-456" value="+ addProperty(square: Square): void" style="text;strokeColor=none;fillColor=none;align=left;verticalAlign=top;spacingLeft=4;spacingRight=4;overflow=hidden;rotatable=0;points=[[0,0.5],[1,0.5]];portConstraint=eastwest;" vertex="1" parent="0UR9MXXXDw9d1XQzhALQ-439">
          <mxGeometry y="424" width="370" height="26" as="geometry" />
        </mxCell>
        <mxCell id="0UR9MXXXDw9d1XQzhALQ-457" value="+ removeProperty(square: Square): void" style="text;strokeColor=none;fillColor=none;align=left;verticalAlign=top;spacingLeft=4;spacingRight=4;overflow=hidden;rotatable=0;points=[[0,0.5],[1,0.5]];portConstraint=eastwest;" vertex="1" parent="0UR9MXXXDw9d1XQzhALQ-439">
          <mxGeometry y="450" width="370" height="26" as="geometry" />
        </mxCell>
        <mxCell id="0UR9MXXXDw9d1XQzhALQ-458" value="+ inputBool(state: Monopoly.Gamestate): boolean" style="text;strokeColor=none;fillColor=none;align=left;verticalAlign=top;spacingLeft=4;spacingRight=4;overflow=hidden;rotatable=0;points=[[0,0.5],[1,0.5]];portConstraint=eastwest;" vertex="1" parent="0UR9MXXXDw9d1XQzhALQ-439">
          <mxGeometry y="476" width="370" height="26" as="geometry" />
        </mxCell>
        <mxCell id="0UR9MXXXDw9d1XQzhALQ-459" value="+ inputInt(state: Monopoly.Gamestate): int" style="text;strokeColor=none;fillColor=none;align=left;verticalAlign=top;spacingLeft=4;spacingRight=4;overflow=hidden;rotatable=0;points=[[0,0.5],[1,0.5]];portConstraint=eastwest;" vertex="1" parent="0UR9MXXXDw9d1XQzhALQ-439">
          <mxGeometry y="502" width="370" height="26" as="geometry" />
        </mxCell>
        <mxCell id="0UR9MXXXDw9d1XQzhALQ-460" value="+ inputDecision(state: Monopoly.Gamestate,choices: String[]): int" style="text;strokeColor=none;fillColor=none;align=left;verticalAlign=top;spacingLeft=4;spacingRight=4;overflow=hidden;rotatable=0;points=[[0,0.5],[1,0.5]];portConstraint=eastwest;" vertex="1" parent="0UR9MXXXDw9d1XQzhALQ-439">
          <mxGeometry y="528" width="370" height="26" as="geometry" />
        </mxCell>
        <mxCell id="0UR9MXXXDw9d1XQzhALQ-461" value="+ setJailTurns(turns: int): void" style="text;strokeColor=none;fillColor=none;align=left;verticalAlign=top;spacingLeft=4;spacingRight=4;overflow=hidden;rotatable=0;points=[[0,0.5],[1,0.5]];portConstraint=eastwest;" vertex="1" parent="0UR9MXXXDw9d1XQzhALQ-439">
          <mxGeometry y="554" width="370" height="26" as="geometry" />
        </mxCell>
        <mxCell id="0UR9MXXXDw9d1XQzhALQ-462" value="+ getJailTurns(): int" style="text;strokeColor=none;fillColor=none;align=left;verticalAlign=top;spacingLeft=4;spacingRight=4;overflow=hidden;rotatable=0;points=[[0,0.5],[1,0.5]];portConstraint=eastwest;" vertex="1" parent="0UR9MXXXDw9d1XQzhALQ-439">
          <mxGeometry y="580" width="370" height="26" as="geometry" />
        </mxCell>
        <mxCell id="0UR9MXXXDw9d1XQzhALQ-463" value="+ handleNone(): boolean" style="text;strokeColor=none;fillColor=none;align=left;verticalAlign=top;spacingLeft=4;spacingRight=4;overflow=hidden;rotatable=0;points=[[0,0.5],[1,0.5]];portConstraint=eastwest;" vertex="1" parent="0UR9MXXXDw9d1XQzhALQ-439">
          <mxGeometry y="606" width="370" height="26" as="geometry" />
        </mxCell>
        <mxCell id="0UR9MXXXDw9d1XQzhALQ-464" value="+ handleBuyProperty(): boolean" style="text;strokeColor=none;fillColor=none;align=left;verticalAlign=top;spacingLeft=4;spacingRight=4;overflow=hidden;rotatable=0;points=[[0,0.5],[1,0.5]];portConstraint=eastwest;" vertex="1" parent="0UR9MXXXDw9d1XQzhALQ-439">
          <mxGeometry y="632" width="370" height="26" as="geometry" />
        </mxCell>
        <mxCell id="0UR9MXXXDw9d1XQzhALQ-465" value="+ handleBuyHouse(): boolean" style="text;strokeColor=none;fillColor=none;align=left;verticalAlign=top;spacingLeft=4;spacingRight=4;overflow=hidden;rotatable=0;points=[[0,0.5],[1,0.5]];portConstraint=eastwest;" vertex="1" parent="0UR9MXXXDw9d1XQzhALQ-439">
          <mxGeometry y="658" width="370" height="26" as="geometry" />
        </mxCell>
        <mxCell id="0UR9MXXXDw9d1XQzhALQ-466" value="+ handleTurnAction(): boolean" style="text;strokeColor=none;fillColor=none;align=left;verticalAlign=top;spacingLeft=4;spacingRight=4;overflow=hidden;rotatable=0;points=[[0,0.5],[1,0.5]];portConstraint=eastwest;" vertex="1" parent="0UR9MXXXDw9d1XQzhALQ-439">
          <mxGeometry y="684" width="370" height="26" as="geometry" />
        </mxCell>
        <mxCell id="0UR9MXXXDw9d1XQzhALQ-467" value="+ handleIncomeTax(): boolean" style="text;strokeColor=none;fillColor=none;align=left;verticalAlign=top;spacingLeft=4;spacingRight=4;overflow=hidden;rotatable=0;points=[[0,0.5],[1,0.5]];portConstraint=eastwest;" vertex="1" parent="0UR9MXXXDw9d1XQzhALQ-439">
          <mxGeometry y="710" width="370" height="26" as="geometry" />
        </mxCell>
        <mxCell id="0UR9MXXXDw9d1XQzhALQ-468" value="" style="endArrow=block;dashed=1;endFill=0;endSize=12;html=1;rounded=0;" edge="1" parent="1" source="0UR9MXXXDw9d1XQzhALQ-439" target="0UR9MXXXDw9d1XQzhALQ-19">
          <mxGeometry width="160" relative="1" as="geometry">
            <mxPoint x="-3205.3174603174602" y="893" as="sourcePoint" />
            <mxPoint x="-3235.476190476191" y="798" as="targetPoint" />
          </mxGeometry>
        </mxCell>
        <mxCell id="0UR9MXXXDw9d1XQzhALQ-469" value="" style="endArrow=diamondThin;endFill=1;endSize=24;html=1;rounded=0;" edge="1" parent="1" source="0UR9MXXXDw9d1XQzhALQ-439" target="0UR9MXXXDw9d1XQzhALQ-361">
          <mxGeometry width="160" relative="1" as="geometry">
            <mxPoint x="-3214.685950413223" y="1525" as="sourcePoint" />
            <mxPoint x="-3250.4380165289253" y="1628" as="targetPoint" />
          </mxGeometry>
        </mxCell>
      </root>
    </mxGraphModel>
  </diagram>
  <diagram id="vSwYm7S0KnqNFL2v9pEg" name="SequenceUML_1">
    <mxGraphModel dx="1278" dy="579" grid="1" gridSize="10" guides="1" tooltips="1" connect="1" arrows="1" fold="1" page="1" pageScale="1" pageWidth="850" pageHeight="1100" math="0" shadow="0">
      <root>
        <mxCell id="SnpntDbP5-iVeuT1YDde-0" />
        <mxCell id="SnpntDbP5-iVeuT1YDde-1" parent="SnpntDbP5-iVeuT1YDde-0" />
      </root>
    </mxGraphModel>
  </diagram>
  <diagram id="52M3_p7icLEpCqGeUT12" name="SequenceUML_2">
    <mxGraphModel dx="1278" dy="579" grid="1" gridSize="10" guides="1" tooltips="1" connect="1" arrows="1" fold="1" page="1" pageScale="1" pageWidth="850" pageHeight="1100" math="0" shadow="0">
      <root>
        <mxCell id="Qb0YMd9mpNvX1aOLxwo2-0" />
        <mxCell id="Qb0YMd9mpNvX1aOLxwo2-1" parent="Qb0YMd9mpNvX1aOLxwo2-0" />
      </root>
    </mxGraphModel>
  </diagram>
  <diagram id="JpVjfX-DnJLXlvXrU5V_" name="SequenceUML_3">
    <mxGraphModel dx="1278" dy="579" grid="1" gridSize="10" guides="1" tooltips="1" connect="1" arrows="1" fold="1" page="1" pageScale="1" pageWidth="850" pageHeight="1100" math="0" shadow="0">
      <root>
        <mxCell id="EEQnBTfIm0HHya7HGXnT-0" />
        <mxCell id="EEQnBTfIm0HHya7HGXnT-1" parent="EEQnBTfIm0HHya7HGXnT-0" />
      </root>
    </mxGraphModel>
  </diagram>
  <diagram id="5ZDj9Q71snL7Ewq-eP8N" name="SequenceUML_4">
    <mxGraphModel dx="1278" dy="579" grid="1" gridSize="10" guides="1" tooltips="1" connect="1" arrows="1" fold="1" page="1" pageScale="1" pageWidth="850" pageHeight="1100" math="0" shadow="0">
      <root>
        <mxCell id="sMr9pjwS4rFsDyO3m7Ci-0" />
        <mxCell id="sMr9pjwS4rFsDyO3m7Ci-1" parent="sMr9pjwS4rFsDyO3m7Ci-0" />
      </root>
    </mxGraphModel>
  </diagram>
</mxfile>
